<?xml version="1.0" standalone="no"?>
<!DOCTYPE svg PUBLIC "-//W3C//DTD SVG 20010904//EN"
 "http://www.w3.org/TR/2001/REC-SVG-20010904/DTD/svg10.dtd">
<svg version="1.0" xmlns="http://www.w3.org/2000/svg"
 width="666.000000pt" height="1280.000000pt" viewBox="0 0 666.000000 1280.000000"
 preserveAspectRatio="xMidYMid meet">
<metadata>
Created by potrace 1.15, written by Peter Selinger 2001-2017
</metadata>
<g transform="translate(0.000000,1280.000000) scale(0.100000,-0.100000)"
fill="#000000" stroke="none">
<path d="M3780 12790 c-47 -9 -460 -135 -544 -167 -66 -25 -91 -60 -90 -126 4
-126 109 -659 144 -726 10 -20 26 -55 36 -78 14 -36 22 -44 52 -49 66 -13 423
3 472 20 61 21 68 20 95 -13 22 -25 33 -29 95 -33 39 -3 73 -7 75 -10 3 -3 8
-32 11 -66 5 -43 3 -66 -6 -77 -19 -23 -27 -19 -54 24 -24 38 -26 39 -98 45
-40 3 -153 11 -251 16 -98 5 -219 15 -269 22 -82 11 -93 15 -121 45 -30 31
-35 33 -102 33 -53 0 -77 5 -100 20 -18 12 -47 20 -72 20 -81 0 -781 -244
-878 -306 -133 -84 -485 -509 -584 -704 -71 -139 -264 -655 -321 -855 -16 -58
-39 -170 -50 -248 -12 -78 -28 -162 -36 -186 -19 -59 -18 -71 6 -71 11 0 20 4
20 10 0 5 10 20 23 33 12 14 38 46 57 72 19 26 67 83 105 126 62 69 92 92 245
185 166 100 230 148 251 186 6 10 3 44 -7 94 -19 93 -11 160 37 312 29 88 37
102 91 157 l60 60 -7 -55 c-3 -30 -12 -62 -20 -70 -7 -8 -19 -41 -26 -73 -11
-51 -10 -60 4 -74 14 -14 20 -15 54 -2 34 12 43 24 83 104 73 148 141 256 204
325 l59 65 -7 80 c-6 80 -6 80 40 175 66 136 106 187 173 219 31 15 68 35 83
44 18 13 41 17 75 15 41 -3 48 -6 51 -25 4 -27 8 -28 89 -7 81 20 97 15 88
-28 -4 -18 -16 -48 -26 -68 -10 -20 -22 -57 -25 -83 -8 -60 9 -69 63 -33 l38
26 25 -30 c27 -33 54 -33 65 0 3 10 13 24 21 31 28 23 34 -11 34 -221 0 -219
6 -252 48 -258 18 -3 26 5 42 41 17 37 20 66 20 164 -1 131 32 405 56 470 8
23 21 46 28 52 17 14 213 25 251 13 27 -8 31 -13 36 -63 12 -109 17 -122 79
-190 75 -83 110 -149 110 -204 0 -37 -5 -47 -42 -81 -24 -22 -62 -53 -85 -69
-27 -19 -43 -38 -43 -51 0 -24 12 -27 158 -40 l73 -7 -6 -29 c-5 -22 -1 -37
20 -64 23 -30 28 -50 37 -146 9 -102 12 -114 43 -153 18 -24 38 -67 45 -97 25
-104 50 -176 65 -182 8 -3 15 -11 15 -17 0 -7 12 -37 27 -68 24 -51 27 -67 26
-172 0 -93 -3 -123 -19 -155 l-19 -39 -225 -6 c-282 -8 -640 -10 -640 -5 0 3
9 21 21 41 12 19 19 41 16 49 -3 8 -32 22 -64 31 -63 18 -90 37 -104 73 -19
48 -99 48 -99 -1 0 -36 42 -99 90 -135 56 -43 60 -52 21 -52 -71 0 -161 74
-161 133 0 12 10 43 23 67 20 42 26 46 80 59 52 12 60 12 76 -3 10 -9 22 -16
29 -16 6 0 25 -17 44 -39 59 -68 72 -71 300 -70 306 0 559 14 568 30 13 21 -7
46 -68 86 l-57 37 -371 7 c-205 4 -377 10 -383 13 -6 4 -11 18 -11 31 0 44
-10 55 -49 55 -20 0 -42 -5 -49 -12 -16 -16 -40 6 -44 39 -2 14 -15 35 -30 46
-26 20 -33 20 -197 8 -206 -14 -494 -45 -615 -66 -125 -22 -277 -82 -453 -180
-84 -47 -155 -85 -158 -85 -3 0 -52 -31 -108 -70 -118 -80 -221 -187 -317
-329 -69 -103 -166 -308 -180 -383 -11 -54 -22 -79 -44 -98 -14 -11 -16 -7
-16 28 0 23 4 44 10 47 16 10 13 105 -3 105 -20 0 -43 -30 -57 -75 -16 -51
-26 -62 -35 -36 -9 29 -29 37 -110 46 -89 9 -204 35 -325 75 -52 16 -137 37
-188 46 l-92 16 -36 -27 c-20 -16 -62 -53 -94 -84 -57 -56 -58 -58 -64 -126
-4 -39 -3 -108 2 -155 10 -97 22 -119 129 -258 128 -164 236 -229 466 -281 76
-17 140 -31 142 -31 2 0 11 -7 19 -16 13 -13 16 -44 16 -182 0 -189 14 -291
62 -462 30 -106 33 -128 34 -270 1 -114 9 -198 28 -320 38 -238 94 -596 101
-657 7 -57 -1 -66 -30 -33 -16 18 -20 18 -46 5 -24 -13 -33 -30 -55 -103 -33
-107 -70 -182 -125 -251 -50 -64 -63 -111 -50 -189 20 -121 51 -164 253 -352
167 -156 183 -176 219 -265 43 -109 141 -284 173 -313 18 -15 58 -36 89 -46
62 -19 89 -49 158 -171 41 -73 91 -129 188 -208 109 -89 181 -121 181 -79 0 9
-9 41 -20 70 -21 55 -25 82 -12 82 4 0 66 -56 136 -125 104 -100 135 -125 158
-125 26 0 28 3 28 36 0 20 -7 60 -16 90 -19 67 -16 128 8 132 9 2 34 -8 55
-22 21 -14 45 -26 55 -26 28 0 30 -17 9 -66 -12 -26 -21 -66 -21 -91 0 -50 41
-189 78 -265 2 -5 -4 -8 -12 -8 -24 0 -158 105 -240 187 -69 70 -74 73 -119
73 -39 0 -49 -4 -63 -25 -9 -14 -14 -34 -11 -45 8 -31 -14 -41 -69 -31 -50 10
-74 2 -74 -24 0 -7 11 -38 26 -70 14 -32 23 -64 20 -71 -4 -9 -23 -14 -55 -14
-65 0 -104 -33 -155 -129 -45 -87 -48 -143 -10 -230 27 -62 27 -91 -1 -91 -25
0 -102 -63 -119 -98 -31 -64 -23 -87 75 -220 70 -94 96 -122 114 -122 15 0 41
21 81 66 54 62 59 65 72 48 11 -15 12 -40 7 -117 -8 -116 1 -146 51 -173 52
-28 46 -45 -33 -93 -61 -38 -108 -89 -147 -162 l-28 -51 17 -111 c9 -62 25
-129 36 -151 10 -21 16 -42 14 -47 -3 -4 -32 -21 -64 -38 -32 -16 -80 -53
-108 -82 l-50 -53 -48 50 c-26 27 -66 74 -88 104 -22 30 -55 71 -74 91 -19 20
-48 57 -66 82 -18 25 -58 80 -91 121 -57 74 -58 76 -45 107 16 39 109 171 154
219 95 101 66 153 -85 153 -158 0 -225 -81 -190 -228 12 -52 12 -56 -20 -134
-18 -45 -47 -100 -65 -124 -41 -54 -67 -105 -94 -190 -21 -62 -25 -67 -51 -67
-54 0 -74 -59 -46 -137 13 -38 93 -181 139 -251 50 -75 243 -341 281 -387 63
-77 305 -315 319 -315 7 0 22 6 32 14 16 11 19 36 28 194 9 179 9 183 -17 272
-30 105 -32 139 -11 180 19 37 30 37 51 5 14 -22 16 -65 16 -354 0 -255 -3
-333 -13 -352 -23 -41 -39 -92 -39 -125 0 -52 29 -189 51 -239 76 -172 243
-309 486 -401 146 -54 307 -89 738 -158 350 -56 469 -73 639 -91 54 -5 101 21
164 90 55 60 61 78 37 111 -13 19 -12 22 11 33 14 6 47 11 73 11 29 0 53 6 60
14 19 23 -30 71 -86 85 -73 19 -118 40 -107 51 19 19 100 23 155 6 47 -14 58
-22 84 -63 l30 -48 69 -3 c81 -4 94 5 130 84 27 59 58 81 100 70 36 -9 55 -32
62 -77 7 -43 19 -47 63 -25 30 16 81 86 81 111 0 30 -50 83 -98 103 -49 21
-170 46 -279 57 -70 8 -86 29 -29 39 19 4 40 13 47 22 31 38 49 38 85 -1 29
-32 39 -37 66 -32 50 7 179 -61 218 -115 17 -22 30 -49 30 -59 0 -9 11 -31 25
-47 30 -36 32 -62 5 -62 -10 0 -24 -10 -31 -21 -9 -17 -7 -26 8 -47 28 -38 76
-50 190 -51 56 -1 217 -12 359 -26 142 -14 281 -25 310 -25 61 0 91 20 100 67
12 62 -46 77 -358 92 -119 6 -206 14 -220 22 l-23 12 25 8 c32 10 335 46 460
55 113 8 121 2 140 -91 25 -126 54 -126 289 1 97 52 181 102 188 111 10 13 8
21 -12 45 -16 19 -25 42 -25 63 0 24 -7 39 -26 54 -15 12 -32 21 -38 21 -21 0
-196 73 -196 82 0 27 28 51 98 85 l77 38 154 0 154 0 20 27 c14 19 21 44 21
77 1 44 -3 54 -34 86 -19 20 -51 45 -71 55 -66 34 -62 70 7 70 55 0 99 21 108
52 11 44 6 154 -14 267 -11 62 -20 131 -20 152 0 38 1 39 28 33 15 -4 29 -8
31 -10 12 -11 31 24 31 58 0 107 -135 239 -380 371 -208 112 -493 198 -565
171 -21 -9 -41 -49 -50 -104 -4 -25 -13 -65 -21 -90 -15 -51 -47 -165 -64
-227 -7 -29 -7 -49 -1 -61 17 -32 86 -88 155 -127 106 -59 111 -98 20 -141
-45 -21 -55 -30 -52 -47 3 -23 39 -44 192 -112 44 -19 77 -37 74 -40 -9 -9
-331 35 -403 55 -147 40 -238 50 -484 50 -218 0 -238 -2 -269 -20 -42 -26 -50
-25 -64 4 -14 33 -52 47 -129 49 -51 1 -71 -3 -100 -21 -75 -46 -111 -52 -308
-53 -202 -1 -335 12 -445 42 -114 32 -313 36 -458 10 -142 -26 -535 -137 -638
-181 -166 -71 -247 -99 -285 -100 l-40 0 25 24 c14 13 84 50 155 82 124 56
315 160 399 217 21 15 51 27 66 27 15 0 65 20 111 44 201 107 393 137 1209
190 45 3 143 -8 315 -35 381 -61 609 -78 627 -49 12 18 -7 64 -52 126 -39 55
-55 153 -46 297 6 107 18 149 54 190 22 25 67 21 188 -18 60 -20 134 -38 165
-42 54 -5 58 -4 75 22 21 32 14 49 -34 81 -24 16 -53 23 -134 28 -137 9 -642
72 -741 92 -49 10 -16 24 84 35 107 13 200 7 367 -21 109 -19 418 -88 557
-126 129 -34 180 -28 139 17 -26 29 -122 103 -160 122 -51 26 -174 45 -469 72
-154 14 -283 25 -287 25 -5 0 -8 7 -8 15 0 11 11 15 40 15 28 0 42 5 49 19 18
32 27 186 18 282 -4 50 -6 98 -3 105 14 36 50 34 308 -17 301 -61 357 -85 426
-183 26 -37 27 -46 30 -182 l4 -142 32 -29 c17 -17 54 -38 81 -48 28 -10 104
-44 170 -77 115 -57 176 -98 330 -222 97 -77 105 -76 105 22 0 97 -26 294 -46
348 -28 78 -211 232 -372 313 -80 40 -136 63 -302 121 l-135 48 -6 35 c-3 20
-11 42 -18 50 -27 33 -120 60 -325 93 -266 43 -308 51 -333 69 -13 9 -24 35
-33 85 -12 63 -11 79 4 148 10 42 27 97 38 122 23 54 94 130 122 130 10 0 46
-10 80 -21 53 -19 140 -59 571 -264 173 -83 214 -144 134 -201 -171 -121 -171
-164 -1 -228 142 -54 234 -107 372 -211 122 -92 164 -111 176 -80 9 23 -43
192 -87 278 -39 78 -75 133 -154 233 -37 48 -77 111 -72 117 1 1 -6 13 -16 27
-24 34 -22 40 13 40 44 0 80 39 80 86 0 50 -50 141 -122 219 l-60 65 -82 0
c-46 0 -85 3 -89 6 -3 4 11 27 33 53 21 25 46 63 54 83 14 34 14 38 -3 60
l-19 23 -74 -25 c-104 -35 -272 -138 -276 -169 -5 -33 12 -41 90 -41 83 0 118
-12 118 -41 0 -13 20 -39 50 -66 49 -44 85 -95 74 -106 -3 -3 -53 18 -112 45
-140 66 -387 147 -587 192 -88 20 -183 43 -210 51 -66 19 -152 10 -160 -16 -9
-26 -75 -27 -75 -1 1 42 12 45 177 50 152 4 183 10 183 36 0 21 -73 54 -165
75 -50 10 -103 24 -118 30 -60 23 -366 36 -565 23 -257 -16 -634 -75 -669
-104 -30 -24 -9 -72 49 -112 37 -26 13 -50 -58 -58 -85 -9 -296 -63 -443 -113
-205 -69 -353 -134 -521 -231 -124 -71 -162 -69 -100 5 17 20 51 60 75 89 49
57 55 87 29 127 -15 23 -15 25 1 31 10 4 26 2 36 -4 10 -7 41 -12 68 -12 56 0
81 17 81 56 0 29 20 31 74 9 37 -16 38 -15 65 14 26 28 31 29 88 24 80 -7 109
1 128 36 17 33 74 59 146 65 26 3 60 11 75 19 41 21 82 68 86 97 3 22 7 25 43
23 22 -1 135 23 250 54 257 67 376 89 580 104 198 16 192 10 175 169 -23 208
-1 498 50 671 26 86 81 151 144 169 31 8 54 23 71 46 l26 34 41 -22 c61 -34
133 -103 162 -154 35 -62 62 -152 50 -164 -5 -5 -31 -3 -65 7 -35 10 -70 13
-93 9 -31 -6 -40 -14 -61 -56 l-25 -49 0 -333 c0 -305 2 -335 18 -363 10 -16
30 -35 43 -42 56 -27 271 -94 286 -89 14 6 15 21 9 114 -4 59 -8 118 -9 132
-3 32 25 38 68 14 45 -24 54 -48 76 -196 17 -119 42 -196 69 -213 6 -4 34 12
63 35 29 22 106 83 172 134 66 52 127 105 134 119 16 30 8 89 -15 112 -17 17
-60 20 -69 5 -9 -15 -45 -12 -51 4 -3 7 28 71 69 142 125 220 188 392 230 631
24 137 47 201 75 211 11 3 12 -21 7 -134 -9 -164 -27 -245 -122 -532 l-66
-203 25 -26 25 -25 51 22 c78 34 144 110 204 238 27 59 55 110 61 114 7 4 31
8 55 8 50 0 129 38 154 73 19 28 42 105 58 197 7 36 20 92 30 125 11 33 25 80
32 104 22 78 39 91 120 91 54 0 84 -6 128 -26 32 -14 66 -24 76 -22 30 5 47
80 48 208 l1 115 39 62 c34 56 38 67 32 105 -11 68 -46 130 -91 159 -22 15
-94 57 -159 93 -124 70 -149 91 -140 116 9 25 84 479 84 510 0 40 -11 38 -54
-10 l-36 -40 0 38 c0 26 -7 45 -20 57 -11 10 -20 22 -20 28 0 5 36 47 79 93
231 244 359 573 386 994 6 93 -5 284 -21 366 -4 22 4 42 30 83 20 30 41 71 47
90 6 20 17 43 24 51 7 8 20 45 30 82 l18 67 -24 48 c-22 44 -30 51 -104 82
-43 19 -99 36 -125 39 -56 6 -74 21 -112 97 -44 87 -119 184 -233 303 -116
120 -160 155 -276 215 -122 65 -303 104 -555 122 -109 8 -212 -9 -361 -59 -56
-19 -104 -32 -107 -28 -4 3 -3 20 0 38 6 32 5 33 -60 63 -66 30 -66 30 -66 71
0 45 19 98 50 137 12 16 20 41 20 64 0 44 24 67 97 95 41 16 56 16 162 5 154
-16 341 -40 367 -46 13 -3 32 3 44 13 37 30 14 55 -87 92 -190 68 -405 116
-658 144 -276 32 -374 37 -412 21 -62 -26 -63 -25 -63 194 l0 196 -41 74 -40
74 28 29 28 29 3 346 c3 312 2 349 -14 384 -16 38 -16 41 2 75 33 61 37 61
108 -9 75 -73 153 -120 194 -115 24 3 27 7 24 33 -8 72 -9 70 23 67 17 -2 59
-16 94 -33 63 -29 134 -38 146 -19 3 6 13 10 21 10 40 0 355 -231 422 -309 60
-71 72 -111 65 -221 -5 -77 -3 -96 13 -125 10 -19 22 -35 26 -35 12 0 170
-150 210 -199 125 -153 148 -216 148 -404 0 -115 3 -136 26 -195 37 -94 76
-145 248 -325 83 -87 163 -177 178 -200 38 -59 78 -107 90 -107 14 0 5 144
-17 265 -9 49 -29 207 -45 350 -39 340 -47 390 -71 444 -25 57 -123 204 -170
256 -45 49 -61 81 -100 193 -17 48 -40 103 -52 122 -30 50 -172 195 -312 318
-66 58 -153 141 -194 184 -81 87 -143 126 -297 188 -218 89 -601 204 -646 194
-15 -3 -39 -19 -52 -36 -13 -18 -30 -29 -38 -26 -8 4 -28 71 -52 179 -22 96
-48 186 -58 201 -10 15 -25 44 -32 66 -8 22 -25 56 -38 76 -31 47 -93 66 -222
66 -103 0 -152 -15 -188 -59 -32 -38 -70 -28 -143 40 -36 34 -68 59 -72 55
-11 -10 -33 15 -33 38 1 37 53 119 95 148 55 39 137 65 261 85 99 16 109 16
172 0 37 -9 74 -17 83 -17 32 0 49 34 49 95 0 58 0 58 -63 122 -66 65 -69 66
-147 53z m-245 -3456 c98 -20 135 -33 135 -48 0 -10 -41 -15 -162 -20 -135 -5
-165 -9 -175 -23 -18 -23 -16 -40 6 -62 26 -26 177 -35 367 -21 163 11 167 11
286 -45 54 -24 59 -25 87 -11 18 10 94 21 203 31 174 16 254 27 316 47 18 5
36 7 39 4 9 -8 -41 -71 -130 -162 -102 -106 -134 -152 -208 -300 l-61 -123 -4
-148 -3 -148 34 -35 35 -36 3 -307 3 -307 -23 0 c-16 0 -34 15 -59 50 -58 81
-67 71 -62 -72 5 -110 10 -140 52 -283 28 -94 69 -206 100 -270 29 -61 57
-121 61 -135 8 -25 8 -25 -14 -6 -39 35 -137 191 -173 276 -41 97 -66 205
-142 626 -30 165 -60 312 -65 327 -9 24 -13 26 -30 15 -33 -20 -70 -108 -81
-188 -5 -41 -10 -131 -10 -200 -1 -69 -3 -120 -5 -115 -2 6 -9 71 -15 146 -11
149 -28 221 -62 264 -18 24 -26 27 -60 22 -48 -6 -74 -28 -82 -68 -6 -33 -21
-36 -71 -12 -35 17 -35 17 -65 -12 -17 -16 -34 -41 -37 -55 -7 -29 -55 -110
-65 -110 -3 0 -10 26 -13 58 -10 82 -30 172 -67 290 -24 78 -35 102 -49 102
-22 0 -26 -12 -35 -99 -14 -142 -49 -110 -100 91 -51 205 -112 339 -253 557
l-15 24 87 -8 87 -7 0 26 c0 31 -130 207 -197 266 -26 23 -82 67 -125 98 -85
63 -100 92 -45 92 17 1 75 12 127 25 93 25 100 25 380 19 187 -4 309 -11 355
-20z m-1495 1 c124 -17 280 -55 280 -68 0 -5 -12 -6 -27 -2 -234 61 -420 59
-661 -4 -71 -18 -93 -14 -49 11 46 25 243 77 297 77 30 0 102 -6 160 -14z
m386 -413 c27 -27 64 -75 82 -108 39 -70 50 -86 165 -248 58 -83 104 -137 136
-161 39 -28 54 -48 69 -88 45 -120 82 -339 82 -478 0 -178 -54 -437 -122 -589
-58 -128 -184 -308 -264 -374 l-47 -39 -31 17 c-30 16 -34 16 -98 -7 -36 -13
-72 -28 -80 -34 -24 -19 -142 -52 -208 -59 -133 -12 -400 58 -550 145 -114 66
-199 136 -216 177 -14 33 -13 38 7 71 l22 35 -23 164 c-22 158 -22 166 -7 245
10 46 23 92 31 104 8 11 42 149 76 306 58 268 131 533 151 545 5 3 9 13 9 23
0 24 114 133 167 160 27 13 61 21 92 21 42 0 63 7 118 41 38 23 88 58 113 79
58 47 60 49 139 76 103 36 129 33 187 -24z m2963 -126 c133 -52 187 -85 262
-163 130 -135 252 -437 309 -762 42 -237 19 -565 -51 -739 -55 -138 -107 -171
-327 -207 -48 -8 -116 -15 -152 -15 -99 1 -258 25 -323 51 -150 58 -364 319
-457 559 -12 30 -37 76 -56 103 -19 26 -40 71 -47 100 -16 69 -15 390 1 487
17 98 57 248 82 305 19 45 23 49 70 59 14 3 80 46 148 96 214 158 245 172 367
166 62 -3 101 -12 174 -40z m-4217 -2051 c-7 -14 -12 -48 -12 -75 0 -28 -4
-50 -10 -50 -5 0 -10 8 -10 18 0 9 -9 40 -19 68 -11 28 -23 76 -27 105 l-6 54
48 -47 c44 -44 47 -49 36 -73z m2888 -2 c176 -230 320 -444 347 -516 9 -23 21
-91 29 -152 19 -164 32 -212 67 -253 40 -45 114 -92 145 -92 21 0 24 3 18 28
-19 88 -26 189 -17 250 19 139 39 152 152 101 64 -29 87 -34 169 -37 62 -2
118 2 160 12 101 24 104 -5 7 -88 -68 -58 -145 -93 -240 -110 -106 -18 -140
-40 -151 -99 -9 -47 9 -143 38 -198 145 -272 181 -358 160 -379 -15 -15 -26
-2 -132 155 -163 242 -251 333 -340 351 -60 12 -41 -30 73 -161 58 -66 125
-146 150 -178 44 -58 75 -135 75 -189 l0 -29 -32 17 c-18 9 -71 51 -118 93
-127 114 -165 141 -212 150 -25 4 -64 23 -90 43 -47 36 -151 75 -263 100 -35
7 -124 13 -215 12 -140 0 -164 -3 -250 -28 -197 -59 -286 -104 -360 -181 -19
-20 -58 -50 -86 -66 -75 -43 -188 -152 -244 -234 -27 -40 -70 -119 -95 -176
-26 -57 -55 -122 -65 -144 -23 -50 -63 -185 -84 -290 -10 -44 -19 -91 -22
-104 -8 -37 -23 -13 -44 72 -11 42 -26 90 -35 106 -18 35 -20 153 -5 251 22
138 112 464 131 476 6 3 17 0 25 -7 12 -10 19 -8 37 10 14 12 36 21 56 21 45
0 151 71 254 168 95 92 150 121 342 181 234 73 362 94 580 95 112 1 210 -4
240 -11 57 -13 85 -4 85 29 0 24 -27 58 -45 58 -21 0 -108 61 -99 70 5 5 33 4
62 -1 82 -15 124 -9 141 22 13 24 13 29 -7 57 -13 18 -70 59 -136 97 -63 36
-120 73 -128 82 -9 12 -13 52 -13 142 0 121 -2 133 -52 314 -65 235 -70 257
-51 257 8 0 47 -44 88 -97z m-2731 -96 c61 -46 153 -107 206 -137 53 -29 100
-60 105 -70 12 -22 152 -91 245 -120 54 -17 92 -22 165 -21 93 2 306 16 325
23 6 2 12 -1 15 -7 6 -12 -75 -57 -155 -86 -118 -41 -456 -35 -563 12 -67 29
-340 294 -412 402 -33 48 -55 87 -50 87 5 0 59 -37 119 -83z m3241 17 c0 -14
-3 -14 -15 -4 -8 7 -15 14 -15 16 0 2 7 4 15 4 8 0 15 -7 15 -16z m55 -43 c59
-56 285 -202 387 -251 123 -59 254 -85 472 -96 97 -5 136 -11 136 -19 0 -19
-127 -81 -204 -101 -74 -18 -86 -14 -86 32 0 11 -8 28 -17 36 -10 9 -110 45
-222 82 -250 81 -308 113 -426 239 -79 83 -96 107 -78 107 4 0 21 -13 38 -29z
m-1345 -328 c-12 -59 -36 -175 -55 -258 -18 -82 -36 -189 -39 -237 -3 -47 -9
-93 -12 -102 -6 -16 -119 -96 -135 -96 -4 0 -25 -11 -45 -25 -20 -14 -46 -25
-58 -25 -18 0 -14 7 24 43 87 82 114 138 179 377 28 102 62 219 76 260 29 87
79 193 83 180 2 -5 -6 -58 -18 -117z m-1743 -759 c128 -222 246 -451 241 -466
-8 -23 -165 198 -251 352 -65 117 -131 306 -104 297 6 -2 58 -84 114 -183z
m4571 125 c-2 -6 -8 -10 -13 -10 -5 0 -11 4 -13 10 -2 6 4 11 13 11 9 0 15 -5
13 -11z m-2263 -184 c85 -12 176 -33 378 -87 50 -14 66 -43 38 -71 l-20 -21
-108 52 c-59 28 -128 56 -153 61 -66 15 -199 13 -334 -5 -160 -20 -172 -17
-100 26 49 30 95 44 194 59 3 0 50 -6 105 -14z m-485 -145 c0 -19 -64 -50
-102 -50 -50 0 -48 15 5 39 46 21 97 27 97 11z m-1395 -409 c40 -23 45 -58 10
-67 -22 -5 -33 0 -66 32 -21 21 -39 44 -39 51 0 16 53 7 95 -16z m2979 -124
c12 -19 3 -32 -19 -24 -17 7 -21 51 -3 45 6 -2 16 -12 22 -21z m-1923 -378 c2
-84 -3 -99 -32 -99 -15 0 -19 5 -15 18 2 9 8 62 12 117 3 55 9 105 12 110 9
14 20 -57 23 -146z m-973 -1117 c-1 -4 -24 -27 -49 -50 -50 -46 -82 -53 -99
-23 -15 29 -13 31 23 31 17 0 50 12 72 25 41 25 59 31 53 17z m2119 -658 c15
-12 30 -31 31 -44 l4 -23 -209 6 c-247 8 -419 -5 -783 -58 -135 -20 -251 -38
-257 -40 -7 -2 -13 -1 -13 4 0 5 10 12 23 15 92 27 186 47 266 57 70 8 108 18
145 39 84 46 293 69 588 67 162 -2 179 -4 205 -23z m-149 -200 c12 -4 22 -10
22 -15 0 -5 -10 -15 -22 -23 -32 -20 -402 -86 -482 -86 -66 0 -67 0 -111 47
-32 33 -42 50 -35 57 6 6 50 14 98 17 122 8 502 10 530 3z m-1730 -170 c-16
-16 -80 -33 -128 -34 -22 0 -21 3 15 25 49 30 141 37 113 9z"/>
<path d="M4150 8278 c-11 -18 -20 -41 -20 -50 0 -17 28 -38 49 -38 23 0 41 33
41 76 0 40 -2 44 -25 44 -18 0 -31 -10 -45 -32z"/>
<path d="M4102 8057 c-30 -32 -28 -58 7 -91 40 -38 67 -29 76 26 13 77 -36
115 -83 65z"/>
<path d="M2493 10667 c-28 -18 -63 -47 -77 -64 -14 -16 -83 -138 -154 -269
-121 -224 -134 -244 -208 -317 -67 -67 -77 -80 -62 -88 12 -7 40 0 103 26 48
20 154 58 237 85 82 27 160 56 174 64 30 20 31 56 3 82 -94 85 -75 242 55 467
l28 47 -24 0 c-12 0 -46 -15 -75 -33z"/>
<path d="M5006 10599 c4 -24 11 -52 15 -61 15 -28 79 -246 94 -320 29 -135 17
-146 -73 -71 -65 53 -165 103 -220 110 -27 3 -49 -3 -82 -20 -60 -32 -77 -63
-65 -114 8 -31 21 -45 65 -75 95 -63 356 -142 655 -198 181 -33 186 -32 167
56 -25 121 -115 266 -256 415 -70 73 -198 219 -238 270 -7 9 -26 25 -41 34
l-28 18 7 -44z"/>
<path d="M3312 10605 c-63 -27 -83 -110 -102 -425 -10 -152 -9 -180 4 -212 21
-48 34 -54 137 -63 74 -6 93 -4 131 13 47 20 88 72 88 109 0 12 -28 49 -63 85
-128 131 -141 224 -48 362 80 120 77 112 62 130 -18 21 -161 22 -209 1z"/>
<path d="M3628 10475 c-30 -17 -45 -64 -29 -94 9 -16 21 -19 64 -19 29 0 62
-2 73 -6 14 -4 27 0 38 13 28 31 10 71 -44 99 -51 26 -65 27 -102 7z"/>
<path d="M3895 10155 c-16 -13 -63 -36 -104 -52 -95 -36 -108 -55 -63 -93 18
-15 56 -40 84 -55 49 -27 51 -27 86 -11 65 30 152 121 152 160 0 12 -13 34
-28 49 -36 34 -85 35 -127 2z"/>
<path d="M5472 9593 c4 -33 48 -66 121 -88 42 -12 60 -26 92 -66 22 -28 51
-69 64 -92 16 -29 42 -53 82 -76 31 -18 88 -62 126 -96 72 -65 101 -85 128
-85 13 0 13 5 -4 38 -11 21 -26 44 -35 51 -8 7 -42 54 -75 105 -58 90 -169
207 -234 246 -18 11 -40 17 -53 14 -23 -6 -70 14 -120 52 -18 14 -45 24 -63
24 -29 0 -32 -3 -29 -27z"/>
<path d="M4265 199 c-4 -5 -4 -21 -1 -35 8 -29 2 -30 -76 -8 -51 15 -76 15
-176 6 -66 -6 -136 -7 -161 -2 -56 10 -105 -4 -131 -37 -25 -32 -25 -54 -1
-84 l19 -24 297 -3 c270 -3 299 -2 316 14 11 9 18 24 17 33 -4 23 33 16 111
-21 90 -43 150 -48 196 -17 36 25 46 58 23 77 -7 5 -53 24 -103 41 -49 18
-103 41 -121 51 -25 16 -49 20 -117 20 -50 0 -89 -4 -92 -11z"/>
</g>
</svg>
