<?xml version="1.0" encoding="UTF-8"?>
<svg viewBox="0 0 1122.8407 1116.5153" xmlns="http://www.w3.org/2000/svg">
 <g transform="translate(457.37 242.76)">
  <path d="m96.824 194.62c-8.2686 12.194-23.257 26.417-45.781 25.164s-63.027-19.778-68.096-22.87-58.068-30.49-65.418-33.245-18.796-6.5926-22.469-7.6251-26.754-12.263-36.444-15.637-36.273-14.152-44.799-17.906-17.212-7.6142-28.753-16.548-15.826-20.21-19.299-22.943-14.274-5.4607-18.057-7.0233-10.724-6.3388-15.274-10.922-5.268-8.0286-6.3062-11.684-2.0542-4.5499 0.25934-7.3827 4.1468-5.9802 7.9126-6.4883 5.9514 1.9923 6.3114-0.90021-4.4175-1.292-10.282-4.2184-10.216-9.2102-11.894-13.285-5.1134-8.6139-4.0809-12.286 0.92205-4.2021 2.5509-6.3391 4.903-0.81535 4.5389-3.4347-5.5274-0.64592-9.4811-3.6939-5.7373-6.9629-6.2951-10.304-0.16029-6.7422 1.6729-9.8896 5.1628-5.0857 6.8028-5.8422 4.5869 1.0736 4.4506-1.2039-5.1408 1.2094-8.984-1.3084-8.8904-9.4863-9.0727-12.352 3.2024-11.176 4.7264-13.153 6.223-5.3066 9.4588-5.7043 7.0513-1.3309 10.039 0.39733 8.962 5.1848 11.585 7.8186 8.7247 8.6912 10.646 9.9501 9.8787 6.9297 12.861 7.9677 11.022 3.7877 12.286 2.5563 4.6935-4.02 4.7321-5.8256 4.6682-6.1354 2.6448-7.8797-4.0032 4.0145-6.8746 3.5065-20.812-6.311-23.214-7.8846-17.67-11.805-21.199-14.804-9.4923-11.712-10.784-13.931-3.9649-11.066-1.3477-15.759 7.2885-11.475 12.954-13.485 19.365-1.9607 23.512-1.3037 17.129 3.898 22.612 5.6593 12.562 3.8815 15.445 5.7699 8.1669 5.3505 9.8898 8.3101 2.5899 5.1297 5.4778 7.7083 4.6109 5.5383 7.3829 6.8966 5.925 3.8817 9.5474 5.3394 9.7186 6.8248 11.259 6.9186 7.8134 0.99926 10.105 2.0428 18.902 13.07 21.304 14.643 20.856 11.833 23.369 13.937 19.476 11.844 25.357 16.841 29.322 34.544 35.744 40.811 10.934 12.656 15.682 15.538 30.15 18.608 33.778 20.756 34.131 25.107 38.46 28.63 17.885 12.175 25.202 17.426 25.986 22.517 31.243 29.166 11.155 20.353 11.072 29.911-0.39995 19.203-8.6685 31.397z" stroke="#000" stroke-width=".7577"/>
  <path transform="matrix(1.0159 0 0 1.0159 -52.381 -38.225)" d="m-18.36 76.657a76.717 76.717 0 1 1 -153.43 0 76.717 76.717 0 1 1 153.43 0z" fill="#fff"/>
  <path transform="matrix(.75688 0 0 .75688 -64.093 -3.4632)" d="m-18.36 76.657a76.717 76.717 0 1 1 -153.43 0 76.717 76.717 0 1 1 153.43 0z"/>
  <path transform="matrix(.19346 0 0 .19346 -84.373 67.052)" d="m-18.36 76.657a76.717 76.717 0 1 1 -153.43 0 76.717 76.717 0 1 1 153.43 0z" fill="#fff"/>
  <path transform="matrix(.11575 0 0 .11575 -88.781 56.117)" d="m-18.36 76.657a76.717 76.717 0 1 1 -153.43 0 76.717 76.717 0 1 1 153.43 0z" fill="#fff"/>
  <path d="m114.61 194.62c8.2686 12.194 23.257 26.417 45.781 25.164s63.027-19.778 68.096-22.87 58.068-30.49 65.418-33.245 18.796-6.5926 22.469-7.6251 26.754-12.263 36.444-15.637 36.273-14.152 44.799-17.906 17.212-7.6142 28.753-16.548 15.826-20.21 19.299-22.943 14.274-5.4607 18.057-7.0233 10.724-6.3388 15.274-10.922 5.268-8.0286 6.3062-11.684 2.0542-4.5499-0.25934-7.3827-4.1468-5.9802-7.9126-6.4883-5.9514 1.9923-6.3114-0.90021 4.4175-1.292 10.282-4.2184 10.216-9.2102 11.894-13.285 5.1134-8.6139 4.0809-12.286-0.92205-4.2021-2.5509-6.3391-4.903-0.81535-4.5389-3.4347 5.5274-0.64592 9.4811-3.6939 5.7373-6.9629 6.2951-10.304 0.16029-6.7422-1.6729-9.8896-5.1628-5.0857-6.8028-5.8422-4.5869 1.0736-4.4506-1.2039 5.1408 1.2094 8.984-1.3084 8.8904-9.4863 9.0727-12.352-3.2024-11.176-4.7264-13.153-6.223-5.3066-9.4588-5.7043-7.0513-1.3309-10.039 0.39733-8.962 5.1848-11.585 7.8186-8.7247 8.6912-10.646 9.9501-9.8787 6.9297-12.861 7.9677-11.022 3.7877-12.286 2.5563-4.6934-4.02-4.7321-5.8256-4.6682-6.1354-2.6448-7.8797 4.0032 4.0145 6.8746 3.5065 20.812-6.311 23.214-7.8846 17.67-11.805 21.199-14.804 9.4923-11.712 10.784-13.931 3.9649-11.066 1.3477-15.759-7.2885-11.475-12.954-13.485-19.365-1.9607-23.512-1.3037-17.129 3.898-22.612 5.6593-12.562 3.8815-15.445 5.7699-8.1669 5.3505-9.8898 8.3101-2.5899 5.1297-5.4778 7.7083-4.6109 5.5383-7.3829 6.8966-5.925 3.8817-9.5474 5.3394-9.7186 6.8248-11.259 6.9186-7.8134 0.99926-10.105 2.0428-18.902 13.07-21.304 14.643-20.856 11.833-23.369 13.937-19.476 11.844-25.357 16.841-29.322 34.544-35.744 40.811-10.934 12.656-15.682 15.538-30.15 18.608-33.778 20.756-34.131 25.107-38.46 28.63-17.885 12.175-25.202 17.426-25.986 22.517-31.243 29.166-11.155 20.353-11.072 29.911 0.39996 19.203 8.6685 31.397z" stroke="#000" stroke-width=".7577"/>
  <path transform="matrix(-1.0159 0 0 1.0159 263.81 -38.225)" d="m-18.36 76.657a76.717 76.717 0 1 1 -153.43 0 76.717 76.717 0 1 1 153.43 0z" fill="#fff"/>
  <path transform="matrix(-.75688 0 0 .75688 275.53 -3.4632)" d="m-18.36 76.657a76.717 76.717 0 1 1 -153.43 0 76.717 76.717 0 1 1 153.43 0z"/>
  <path transform="matrix(-.19346 0 0 .19346 295.81 67.052)" d="m-18.36 76.657a76.717 76.717 0 1 1 -153.43 0 76.717 76.717 0 1 1 153.43 0z" fill="#fff"/>
  <path transform="matrix(-.11575 0 0 .11575 300.21 56.117)" d="m-18.36 76.657a76.717 76.717 0 1 1 -153.43 0 76.717 76.717 0 1 1 153.43 0z" fill="#fff"/>
  <path d="m160.79 196.31c8.1005 0.5864 19.022 3.8218 24.632 14.92s7.9301 35.54 7.8511 38.813 1.4492 36.126 2.1596 40.394 2.0335 10.791 2.5527 12.828 1.5195 16.152 2.58 21.709 3.242 21.218 3.7994 26.323 1.109 10.316 0.0249 18.288-5.286 13.126-5.6335 15.537 1.3274 8.3196 1.624 10.556-0.0705 6.8666-1.0043 10.302-2.3809 4.7279-3.8398 6.2311-1.606 2.2348-3.596 1.9111-3.998-0.33135-5.2785-1.9891-0.68927-3.3904-2.1694-2.765 0.60079 2.465 0.82006 6.0713-1.5812 7.4156-3.064 9.3402-2.7029 4.8154-4.7406 5.3346-2.2603 0.71805-3.7294 0.52943-1.7406-2.116-2.8908-1.2202 1.2151 2.8168 0.84979 5.5444-1.7427 4.6582-3.1838 5.8453-3.1746 1.9349-5.1824 1.9272-3.851-1.063-4.6642-1.6374-0.75173-2.4857-1.8014-1.7929 1.9943 2.1209 1.8516 4.6497-2.0784 6.859-3.3962 7.7359-6.2183 1.5517-7.5821 1.369-4.2486-1.5082-5.3304-2.9434-2.579-2.9995-2.5773-4.902 5e-3 -5.7076 0.53948-7.6858 1.7444-6.5607 1.8158-7.8251 0.58537-6.6262 0.25906-8.3358-1.2296-6.3058-2.166-6.57-3.2128-1.1326-4.0855-0.65339-4.2157-0.53751-4.4908 0.90926 3.0199 0.80465 3.5689 2.3155 2.7235 11.675 2.6343 13.256-0.76545 11.69-1.2243 14.201-2.9748 7.7597-3.6784 8.9884-4.1899 4.9429-7.1521 4.9871-7.4869-0.31681-10.008-2.4674-6.2736-8.7045-7.103-10.865-2.8603-9.2518-3.5307-12.355-1.6095-7.0671-1.5024-8.9637 0.30329-5.3737 1.2414-7.0119 1.7351-2.6503 2.1701-4.7398 1.3731-3.7278 1.2575-5.4255 0.22004-3.8985-0.0825-6.0296 0.57944-6.5208 0.1996-7.2821-1.6766-4.0056-1.81-5.3872 1.0297-12.626 1.1189-14.207-0.0996-13.218 0.21224-14.998 0.28622-12.562 1.0509-16.747 8.4094-23.52 9.6313-28.313 3.0283-8.708 3.0954-11.77 0.57333-19.522 0.5988-21.846 2.5786-23.214 3.0672-26.252 0.88273-11.894 1.373-16.835 3.5873-18.612 5.3122-22.955 6.6422-10.935 11.228-13.53 9.278-5.102 17.378-4.5156z" stroke="#000" stroke-width=".41769"/>
  <path d="m51.127 196.31c-8.1006 0.5864-19.022 3.8218-24.632 14.92s-7.93 35.54-7.851 38.813-1.4492 36.126-2.1596 40.394-2.0335 10.791-2.5527 12.828-1.5195 16.152-2.58 21.709-3.242 21.218-3.7994 26.323-1.109 10.316-0.02485 18.288 5.286 13.126 5.6335 15.537-1.3274 8.3196-1.6239 10.556 0.07047 6.8666 1.0042 10.302 2.3809 4.7279 3.8398 6.2311 1.606 2.2348 3.596 1.9111 3.998-0.33135 5.2785-1.9891 0.68927-3.3904 2.1694-2.765-0.60079 2.465-0.82006 6.0713 1.5813 7.4156 3.064 9.3402 2.7029 4.8154 4.7406 5.3346 2.2602 0.71805 3.7294 0.52943 1.7407-2.116 2.8908-1.2202-1.2151 2.8168-0.84979 5.5444 1.7427 4.6582 3.1838 5.8453 3.1746 1.9349 5.1824 1.9272 3.851-1.063 4.6642-1.6374 0.75173-2.4857 1.8014-1.7929-1.9943 2.1209-1.8516 4.6497 2.0783 6.859 3.3963 7.7359 6.2182 1.5517 7.5821 1.369 4.2486-1.5082 5.3304-2.9434 2.579-2.9995 2.5773-4.902-0.0053-5.7076-0.53948-7.6858-1.7444-6.5607-1.8158-7.8251-0.58538-6.6262-0.25907-8.3358 1.2296-6.3058 2.166-6.57 3.2128-1.1326 4.0855-0.65339 4.2157-0.53751 4.4908 0.90926-3.0199 0.80465-3.5689 2.3155-2.7235 11.675-2.6343 13.256 0.76547 11.69 1.2243 14.201 2.9748 7.7597 3.6784 8.9884 4.1899 4.9429 7.1521 4.9871 7.4869-0.31681 10.008-2.4674 6.2736-8.7045 7.103-10.865 2.8603-9.2518 3.5307-12.355 1.6095-7.0671 1.5024-8.9637-0.3033-5.3737-1.2414-7.0119-1.7351-2.6503-2.1701-4.7398-1.3731-3.7278-1.2575-5.4255-0.22004-3.8985 0.0825-6.0296-0.57944-6.5208-0.1996-7.2821 1.6766-4.0056 1.81-5.3872-1.0297-12.626-1.1189-14.207 0.0996-13.218-0.21226-14.998-0.2862-12.562-1.0509-16.747-8.4094-23.52-9.6313-28.313-3.0283-8.708-3.0954-11.77-0.57334-19.522-0.5988-21.846-2.5786-23.214-3.0672-26.252-0.88272-11.894-1.373-16.835-3.5873-18.612-5.3122-22.955-6.6422-10.935-11.228-13.53-9.278-5.102-17.378-4.5156z" stroke="#000" stroke-width=".41769"/>
  <g transform="matrix(.55441 0 0 -.55441 83.725 1071)" stroke="#000" stroke-width=".55126">
   <path d="m428.86 817.44c6.5534 8.4823 18.078 18.135 34.377 16.211s44.876-17.2 48.417-19.674 40.793-24.756 46.006-27.088 13.352-5.6338 15.972-6.549 18.875-10.11 25.76-12.996 25.702-11.91 31.724-15.02 12.155-6.3043 20.133-13.312 10.582-15.388 12.981-17.529 10.119-4.6082 12.795-5.9133 7.5014-5.0859 10.599-8.6188 3.4638-6.0672 4.053-8.7684 1.2868-3.3965-0.52086-5.3492-3.2805-4.1558-6.038-4.3551-4.2319 1.7147-4.6236-0.36941 3.1496-1.1372 7.2761-3.5263 7.0032-7.1481 8.0387-10.183 3.3251-6.4853 2.41-9.1052-0.85878-3.0098-2.1379-4.4882-3.597-0.37124-3.4506-2.2897 3.9846-0.71798 6.7183-3.1093 3.8526-5.3145 4.1071-7.7655-0.18728-4.903-1.6602-7.106-3.978-3.4604-5.203-3.9359-3.2824 0.98619-3.286-0.67375 3.7874 0.64667 6.4648-1.3548 6.0284-7.2889 6.0317-9.3781-2.8288-7.9714-4.0245-9.3382-4.7578-3.5731-7.1254-3.7161-5.1803-0.64884-7.2717 0.74068-6.2741 4.1689-8.0602 6.1993-5.944 6.704-7.2826 7.7048-6.8613 5.4769-8.9798 6.365-7.8328 3.2469-8.8064 2.4096-3.5892-2.7077-3.6986-4.0171-3.6661-4.2449-2.2754-5.6027 3.0878 2.7348 5.1499 2.2366 14.828-5.5201 16.502-6.771 12.299-9.3682 14.727-11.704 6.3653-8.9319 7.2036-10.602 2.3807-8.2139 0.26878-11.504-5.8093-8.004-10.014-9.2084-14.15-0.55155-17.132 0.11232-12.262 3.602-16.165 5.128-8.9472 3.3844-10.955 4.8855-5.6894 4.2531-6.8072 6.4798-1.6496 3.8416-3.6305 5.8441-3.0987 4.2293-5.0504 5.3405-4.1276 3.0856-6.6923 4.3072-6.7497 5.3935-7.8642 5.531-5.6287 1.0775-7.2457 1.9386-13.137 10.342-14.81 11.593-14.612 9.5318-16.341 11.173-13.609 9.4776-17.654 13.371-19.736 26.405-24.117 31.245-7.3693 9.6824-10.688 11.989-21.055 14.87-23.593 16.593-23.653 19.769-26.638 22.522-12.439 9.6466-17.516 13.789-17.856 17.521-21.374 22.586-7.1831 15.282-6.6926 22.219 1.1554 13.926 7.7088 22.409z"/>
   <path d="m231.6 942.68c6.5534 8.4823 18.078 18.135 34.377 16.211s44.876-17.2 48.417-19.674 40.793-24.756 46.006-27.088 13.352-5.6338 15.972-6.549 18.875-10.11 25.76-12.996 25.702-11.91 31.724-15.02 12.155-6.3043 20.133-13.312 10.582-15.388 12.981-17.529 10.119-4.6082 12.795-5.9133 7.5014-5.0859 10.599-8.6188 3.4638-6.0672 4.053-8.7684 1.2868-3.3965-0.52086-5.3492-3.2805-4.1558-6.038-4.3551-4.2319 1.7147-4.6236-0.36941 3.1496-1.1372 7.2761-3.5263 7.0032-7.1481 8.0387-10.183 3.3251-6.4853 2.41-9.1052-0.85878-3.0098-2.1379-4.4882-3.597-0.37124-3.4506-2.2897 3.9846-0.71798 6.7183-3.1093 3.8526-5.3145 4.1071-7.7655-0.18728-4.903-1.6602-7.106-3.978-3.4604-5.203-3.9359-3.2824 0.98619-3.286-0.67375 3.7874 0.64667 6.4648-1.3548 6.0284-7.2889 6.0317-9.3781-2.8288-7.9714-4.0245-9.3382-4.7578-3.5731-7.1254-3.7161-5.1803-0.64884-7.2717 0.74068-6.2741 4.1689-8.0602 6.1993-5.944 6.704-7.2826 7.7048-6.8613 5.4769-8.9798 6.365-7.8328 3.2469-8.8064 2.4096-3.5892-2.7077-3.6986-4.0171-3.6661-4.2449-2.2754-5.6027 3.0878 2.7348 5.1499 2.2366 14.828-5.5201 16.502-6.771 12.299-9.3682 14.727-11.704 6.3653-8.9319 7.2036-10.602 2.3807-8.2139 0.26878-11.504-5.8093-8.004-10.014-9.2084-14.15-0.55155-17.132 0.11232-12.262 3.602-16.165 5.128-8.9472 3.3844-10.955 4.8855-5.6894 4.2531-6.8072 6.4798-1.6496 3.8416-3.6305 5.8441-3.0987 4.2293-5.0504 5.3405-4.1276 3.0856-6.6923 4.3072-6.7497 5.3935-7.8642 5.531-5.6287 1.0775-7.2457 1.9386-13.137 10.342-14.81 11.593-14.612 9.5318-16.341 11.173-13.609 9.4776-17.654 13.371-19.736 26.405-24.117 31.245-7.3693 9.6824-10.688 11.989-21.055 14.87-23.593 16.593-23.653 19.769-26.638 22.522-12.439 9.6466-17.516 13.789-17.856 17.521-21.374 22.586-7.1831 15.282-6.6926 22.219 1.1554 13.926 7.7088 22.409z"/>
   <path d="m28.082 1074.2c6.5534 8.4823 18.078 18.135 34.377 16.211s44.876-17.2 48.417-19.674 40.793-24.756 46.006-27.088 13.352-5.6338 15.972-6.5489 18.875-10.11 25.76-12.996 25.702-11.91 31.724-15.02 12.155-6.3043 20.133-13.312 10.582-15.388 12.981-17.529 10.119-4.6082 12.795-5.9133 7.5014-5.0859 10.599-8.6188 3.4638-6.0672 4.053-8.7684 1.2868-3.3965-0.52086-5.3492-3.2805-4.1558-6.038-4.3551-4.2319 1.7147-4.6236-0.36941 3.1496-1.1372 7.2761-3.5263 7.0032-7.1481 8.0387-10.183 3.3251-6.4853 2.41-9.1052-0.85878-3.0098-2.1379-4.4882-3.597-0.37124-3.4506-2.2897 3.9846-0.71798 6.7183-3.1093 3.8526-5.3145 4.1071-7.7655-0.18728-4.903-1.6602-7.106-3.978-3.4604-5.203-3.9359-3.2824 0.98619-3.286-0.67375 3.7874 0.64667 6.4648-1.3548 6.0284-7.2889 6.0317-9.3781-2.8288-7.9714-4.0245-9.3382-4.7578-3.5731-7.1254-3.7161-5.1803-0.64884-7.2717 0.74068-6.2741 4.1689-8.0602 6.1993-5.944 6.704-7.2826 7.7048-6.8613 5.4769-8.9798 6.365-7.8328 3.2469-8.8064 2.4096-3.5892-2.7077-3.6986-4.0171-3.6661-4.2449-2.2754-5.6027 3.0878 2.7348 5.1499 2.2366 14.828-5.5201 16.502-6.771 12.299-9.3682 14.727-11.704 6.3653-8.9319 7.2036-10.602 2.3807-8.2139 0.26878-11.504-5.8093-8.004-10.014-9.2084-14.15-0.55155-17.132 0.11232-12.262 3.602-16.165 5.128-8.9472 3.3844-10.955 4.8855-5.6894 4.2531-6.8072 6.4798-1.6496 3.8416-3.6305 5.8441-3.0987 4.2293-5.0504 5.3405-4.1276 3.0856-6.6923 4.3072-6.7497 5.3935-7.8642 5.531-5.6287 1.0775-7.2457 1.9386-13.137 10.342-14.81 11.593-14.612 9.5318-16.341 11.173-13.609 9.4776-17.654 13.371-19.736 26.405-24.117 31.245-7.3693 9.6824-10.688 11.989-21.055 14.87-23.593 16.593-23.653 19.769-26.638 22.522-12.439 9.6466-17.516 13.789-17.856 17.522-21.374 22.586-7.1831 15.282-6.6926 22.219 1.1554 13.926 7.7088 22.409z"/>
  </g>
  <g transform="matrix(-.55441 0 0 -.55441 141.49 1071)" stroke="#000" stroke-width=".55126">
   <path d="m428.86 817.44c6.5534 8.4823 18.078 18.135 34.377 16.211s44.876-17.2 48.417-19.674 40.793-24.756 46.006-27.088 13.352-5.6338 15.972-6.549 18.875-10.11 25.76-12.996 25.702-11.91 31.724-15.02 12.155-6.3043 20.133-13.312 10.582-15.388 12.981-17.529 10.119-4.6082 12.795-5.9133 7.5014-5.0859 10.599-8.6188 3.4638-6.0672 4.053-8.7684 1.2868-3.3965-0.52086-5.3492-3.2805-4.1558-6.038-4.3551-4.2319 1.7147-4.6236-0.36941 3.1496-1.1372 7.2761-3.5263 7.0032-7.1481 8.0387-10.183 3.3251-6.4853 2.41-9.1052-0.85878-3.0098-2.1379-4.4882-3.597-0.37124-3.4506-2.2897 3.9846-0.71798 6.7183-3.1093 3.8526-5.3145 4.1071-7.7655-0.18728-4.903-1.6602-7.106-3.978-3.4604-5.203-3.9359-3.2824 0.98619-3.286-0.67375 3.7874 0.64667 6.4648-1.3548 6.0284-7.2889 6.0317-9.3781-2.8288-7.9714-4.0245-9.3382-4.7578-3.5731-7.1254-3.7161-5.1803-0.64884-7.2717 0.74068-6.2741 4.1689-8.0602 6.1993-5.944 6.704-7.2826 7.7048-6.8613 5.4769-8.9798 6.365-7.8328 3.2469-8.8064 2.4096-3.5892-2.7077-3.6986-4.0171-3.6661-4.2449-2.2754-5.6027 3.0878 2.7348 5.1499 2.2366 14.828-5.5201 16.502-6.771 12.299-9.3682 14.727-11.704 6.3653-8.9319 7.2036-10.602 2.3807-8.2139 0.26878-11.504-5.8093-8.004-10.014-9.2084-14.15-0.55155-17.132 0.11232-12.262 3.602-16.165 5.128-8.9472 3.3844-10.955 4.8855-5.6894 4.2531-6.8072 6.4798-1.6496 3.8416-3.6305 5.8441-3.0987 4.2293-5.0504 5.3405-4.1276 3.0856-6.6923 4.3072-6.7497 5.3935-7.8642 5.531-5.6287 1.0775-7.2457 1.9386-13.137 10.342-14.81 11.593-14.612 9.5318-16.341 11.173-13.609 9.4776-17.654 13.371-19.736 26.405-24.117 31.245-7.3693 9.6824-10.688 11.989-21.055 14.87-23.593 16.593-23.653 19.769-26.638 22.522-12.439 9.6466-17.516 13.789-17.856 17.521-21.374 22.586-7.1831 15.282-6.6926 22.219 1.1554 13.926 7.7088 22.409z"/>
   <path d="m231.6 942.68c6.5534 8.4823 18.078 18.135 34.377 16.211s44.876-17.2 48.417-19.674 40.793-24.756 46.006-27.088 13.352-5.6338 15.972-6.549 18.875-10.11 25.76-12.996 25.702-11.91 31.724-15.02 12.155-6.3043 20.133-13.312 10.582-15.388 12.981-17.529 10.119-4.6082 12.795-5.9133 7.5014-5.0859 10.599-8.6188 3.4638-6.0672 4.053-8.7684 1.2868-3.3965-0.52086-5.3492-3.2805-4.1558-6.038-4.3551-4.2319 1.7147-4.6236-0.36941 3.1496-1.1372 7.2761-3.5263 7.0032-7.1481 8.0387-10.183 3.3251-6.4853 2.41-9.1052-0.85878-3.0098-2.1379-4.4882-3.597-0.37124-3.4506-2.2897 3.9846-0.71798 6.7183-3.1093 3.8526-5.3145 4.1071-7.7655-0.18728-4.903-1.6602-7.106-3.978-3.4604-5.203-3.9359-3.2824 0.98619-3.286-0.67375 3.7874 0.64667 6.4648-1.3548 6.0284-7.2889 6.0317-9.3781-2.8288-7.9714-4.0245-9.3382-4.7578-3.5731-7.1254-3.7161-5.1803-0.64884-7.2717 0.74068-6.2741 4.1689-8.0602 6.1993-5.944 6.704-7.2826 7.7048-6.8613 5.4769-8.9798 6.365-7.8328 3.2469-8.8064 2.4096-3.5892-2.7077-3.6986-4.0171-3.6661-4.2449-2.2754-5.6027 3.0878 2.7348 5.1499 2.2366 14.828-5.5201 16.502-6.771 12.299-9.3682 14.727-11.704 6.3653-8.9319 7.2036-10.602 2.3807-8.2139 0.26878-11.504-5.8093-8.004-10.014-9.2084-14.15-0.55155-17.132 0.11232-12.262 3.602-16.165 5.128-8.9472 3.3844-10.955 4.8855-5.6894 4.2531-6.8072 6.4798-1.6496 3.8416-3.6305 5.8441-3.0987 4.2293-5.0504 5.3405-4.1276 3.0856-6.6923 4.3072-6.7497 5.3935-7.8642 5.531-5.6287 1.0775-7.2457 1.9386-13.137 10.342-14.81 11.593-14.612 9.5318-16.341 11.173-13.609 9.4776-17.654 13.371-19.736 26.405-24.117 31.245-7.3693 9.6824-10.688 11.989-21.055 14.87-23.593 16.593-23.653 19.769-26.638 22.522-12.439 9.6466-17.516 13.789-17.856 17.521-21.374 22.586-7.1831 15.282-6.6926 22.219 1.1554 13.926 7.7088 22.409z"/>
   <path d="m28.082 1074.2c6.5534 8.4823 18.078 18.135 34.377 16.211s44.876-17.2 48.417-19.674 40.793-24.756 46.006-27.088 13.352-5.6338 15.972-6.5489 18.875-10.11 25.76-12.996 25.702-11.91 31.724-15.02 12.155-6.3043 20.133-13.312 10.582-15.388 12.981-17.529 10.119-4.6082 12.795-5.9133 7.5014-5.0859 10.599-8.6188 3.4638-6.0672 4.053-8.7684 1.2868-3.3965-0.52086-5.3492-3.2805-4.1558-6.038-4.3551-4.2319 1.7147-4.6236-0.36941 3.1496-1.1372 7.2761-3.5263 7.0032-7.1481 8.0387-10.183 3.3251-6.4853 2.41-9.1052-0.85878-3.0098-2.1379-4.4882-3.597-0.37124-3.4506-2.2897 3.9846-0.71798 6.7183-3.1093 3.8526-5.3145 4.1071-7.7655-0.18728-4.903-1.6602-7.106-3.978-3.4604-5.203-3.9359-3.2824 0.98619-3.286-0.67375 3.7874 0.64667 6.4648-1.3548 6.0284-7.2889 6.0317-9.3781-2.8288-7.9714-4.0245-9.3382-4.7578-3.5731-7.1254-3.7161-5.1803-0.64884-7.2717 0.74068-6.2741 4.1689-8.0602 6.1993-5.944 6.704-7.2826 7.7048-6.8613 5.4769-8.9798 6.365-7.8328 3.2469-8.8064 2.4096-3.5892-2.7077-3.6986-4.0171-3.6661-4.2449-2.2754-5.6027 3.0878 2.7348 5.1499 2.2366 14.828-5.5201 16.502-6.771 12.299-9.3682 14.727-11.704 6.3653-8.9319 7.2036-10.602 2.3807-8.2139 0.26878-11.504-5.8093-8.004-10.014-9.2084-14.15-0.55155-17.132 0.11232-12.262 3.602-16.165 5.128-8.9472 3.3844-10.955 4.8855-5.6894 4.2531-6.8072 6.4798-1.6496 3.8416-3.6305 5.8441-3.0987 4.2293-5.0504 5.3405-4.1276 3.0856-6.6923 4.3072-6.7497 5.3935-7.8642 5.531-5.6287 1.0775-7.2457 1.9386-13.137 10.342-14.81 11.593-14.612 9.5318-16.341 11.173-13.609 9.4776-17.654 13.371-19.736 26.405-24.117 31.245-7.3693 9.6824-10.688 11.989-21.055 14.87-23.593 16.593-23.653 19.769-26.638 22.522-12.439 9.6466-17.516 13.789-17.856 17.522-21.374 22.586-7.1831 15.282-6.6926 22.219 1.1554 13.926 7.7088 22.409z"/>
  </g>
  <path d="m-168.17 146.95 169.66 72.167s-41.781 111.42-24.056 164.59 49.378 92.425 49.378 92.425-281.07 159.53-289.94 187.38-41.781 54.442-26.588 87.361 26.588 51.91 65.837 39.249 313.99-186.12 339.31-187.38v2.5322s-1.2661 81.03-25.322 100.02-25.322 59.506-82.296 121.55-182.32 49.378-264.61 32.918-132.94-48.112-169.66-112.68 110.15-169.66 132.94-192.45 87.361-43.047 140.54-98.755 6.3305-81.03-15.193-121.55-93.691-92.425-72.167-127.88 48.112-62.039 72.167-59.506z" stroke="#000"/>
  <path d="m390.64 146.95-169.66 72.167s41.781 111.42 24.056 164.59-49.378 92.425-49.378 92.425 281.07 159.53 289.94 187.38 41.781 54.442 26.588 87.361-26.588 51.91-65.837 39.249-313.99-186.12-339.31-187.38v2.5322s1.2661 81.03 25.322 100.02 25.322 59.506 82.296 121.55 182.32 49.378 264.61 32.918 132.94-48.112 169.66-112.68-110.15-169.66-132.94-192.45-87.361-43.047-140.54-98.755-6.3305-81.03 15.193-121.55 93.691-92.425 72.167-127.88-48.112-62.039-72.167-59.506z" stroke="#000"/>
  <path d="m390.64 146.95-169.66 72.167s41.781 111.42 24.056 164.59-49.378 92.425-49.378 92.425 281.07 159.53 289.94 187.38 41.781 54.442 26.588 87.361-26.588 51.91-65.837 39.249-313.99-186.12-339.31-187.38v2.5322s1.2661 81.03 25.322 100.02 25.322 59.506 82.296 121.55 182.32 49.378 264.61 32.918 132.94-48.112 169.66-112.68-110.15-169.66-132.94-192.45-87.361-43.047-140.54-98.755-6.3305-81.03 15.193-121.55 93.691-92.425 72.167-127.88-48.112-62.039-72.167-59.506z" stroke="#000"/>
  <path transform="translate(-457.37 -242.76)" d="m136.06 0.5c-10.881 0.14239-19.588 3.6587-27.688 14.406 8.3078 5.3077 17.63 12.988 30.562 22.688 26.156 19.617 11.451 11.438-6.5312 11.438-17.795 0-9.9865-8.0036-32-20.844-1.5014 3.0518-2.9942 6.4257-4.5 10.125 4.9309 6.3928 11.894 14.518 20.156 23.812 26.156 29.425 6.5299 9.8111 27.781 31.062s0.025 4.9062-14.688 4.9062-9.8229-6.5493-34.344-24.531c-3.1048-2.2769-5.8192-3.9543-8.1875-5.1875-1.2157 5.5911-2.1821 11.165-2.9375 16.688 9.4945 8.0585 22.274 18.699 34 27.719 21.251 16.347 18.01 6.557 16.375 18s-8.1764 1.6306-31.062-9.8125c-17.018-8.5091-15.075-9.7797-21.688-8.5312-0.29641 6.656-0.42746 13.18-0.5 19.531 9.8158 6.1485 22.633 13.881 35.25 23.344 32.694 24.521 0.01181 11.434 3.2812 27.781s-14.725 0.00764-29.438-6.5312c-3.318-1.4746-6.8707-1.2697-10.406-0.09375-1.5381 15.499-5.1384 28.442-13.781 37.625-24.537 26.071-79.233 0.91714-61.812 38.156 11.196-4.2189 25.838-4.8548 48.219-7.5312 32.463-3.8822 16.19 0.36023 3.1875 12.781s-12.73 0.86663-38.312 7.2188c-2.0052 0.49789-3.6885 0.96811-5.125 1.4375 1.644 2.5177 3.4804 5.2086 5.5312 8.0938 8.2433 1.494 20.48 2.8019 35.125 4 39.238 3.2101 11.485 2.5626 41.531 3.25s3.3885 3.5561-7.25 13.719-11.598 2.0336-41.75 5.9688c-2.8579 0.37298-5.329 0.85789-7.4688 1.375 3.5155 5.0345 6.8169 9.8715 9.9375 14.5 12.099-0.73705 27.634-1.8591 41.188-3.3125 26.659-2.8588 17.497-7.6848 24.219 1.7188s-4.7656 6.8408-29.219 14.375c-18.607 5.7328-17.64 3.2748-21.875 9.25 3.2698 5.3182 6.1474 10.284 8.6875 14.938 11.832-2.3053 28.423-6.2632 46.344-8.4062 40.579-4.8528 7.9066 8.2815 21.562 17.844s-10.626 10.159-25.781 15.594-11.281 37.906-11.281 37.906c2.2584 2.3641-15.217 7.7222-29.031 5.0938-1.1812-0.22474-2.649-1.1183-4.375-2.5625-10.009 16.791-14.131 33.908 24.625 18.406 53.716-21.486 64.467-19.691 94.906-25.062s73.406-34.035 73.406-39.406c0 0-26.879 1.7988-50.156-19.688s-33.998-12.539-46.531-41.188-10.748-34.011-23.281-68.031 1.7847-46.542 7.1562-80.562 5.3726-26.857 17.906-48.344 14.326-25.081 35.812-21.5 8.9614 21.472 46.562 26.844 51.916 42.972 68.031 48.344 21.467 16.119 51.906 23.281 5.3896 5.3862 44.781 39.406 69.835 51.926 89.531 66.25 53.719 57.281 53.719 57.281 21.47-134.27-8.9688-179.03-59.078-78.802-116.38-111.03-125.33-57.291-205.91-55.5c-42.805 0.95122-69.44-9.7251-89.031-9.4688z" stroke="#000"/>
  <path transform="translate(-457.37 -242.76)" d="m985.03 0.5c-19.425 0.35613-45.735 10.392-87.281 9.4688-80.574-1.7905-148.61 23.27-205.91 55.5s-85.936 66.268-116.38 111.03-8.9688 179.03-8.9688 179.03 34.023-42.957 53.719-57.281 50.14-32.23 89.531-66.25 14.311-32.244 44.75-39.406 35.823-17.91 51.938-23.281 30.43-42.972 68.031-48.344 25.076-23.263 46.562-26.844 23.279 0.01365 35.812 21.5 12.535 14.324 17.906 48.344 19.69 46.542 7.1562 80.562-10.748 39.383-23.281 68.031-23.254 19.701-46.531 41.188-50.156 19.688-50.156 19.688c0 5.3716 42.967 34.035 73.406 39.406s41.19 3.5762 94.906 25.062c45.262 18.105 32.03-8.2599 19.25-26.656-5.2402 6.2922-9.5375 10.296-12.25 10.812-13.815 2.6285-31.29-2.7296-29.031-5.0938 0 0 3.9052-32.472-11.25-37.906s-39.468-6.0316-25.812-15.594-19.016-22.697 21.562-17.844c25.578 3.0588 48.467 9.8498 58.625 10.188 1.158-2.1636 2.4277-4.4088 3.75-6.7188-0.3049-0.4474-0.6465-0.90594-1.0313-1.4062-13.108-17.044-3.7032-10.31-28.156-17.844s-35.972-4.9714-29.25-14.375-2.4086-4.5776 24.25-1.7188c19.278 2.0674 42.406 3.402 53.938 4 2.3121-3.4363 4.8117-7.058 7.3437-10.719-2.7371-2.3868-7.9981-4.5873-17.625-5.8438-30.152-3.9351-31.143 4.1939-41.781-5.9688s-37.296-13.031-7.25-13.719 2.3243-0.0399 41.563-3.25 61.114-7.1791 35.531-13.531-25.31 5.2023-38.312-7.2188-29.307-16.664 3.1563-12.781c29.907 3.5766 46.017 3.5339 58.531 13.219 25.589-45.406-33.183-16.546-58.875-43.844-8.6892-9.2322-12.257-22.265-13.781-37.875-0.3095 0.10808-0.6321 0.20802-0.9376 0.34375-14.712 6.5389-32.676 22.878-29.406 6.5312s-29.444-3.2604 3.25-27.781c8.9133-6.685 17.847-12.452 25.844-17.469-0.0589-7.5869-0.178-15.405-0.5-23.469-2.4924 1.4084-6.1178 3.5276-12.25 6.5938-22.886 11.443-29.428 21.256-31.063 9.8125s-4.9076-1.6528 16.344-18c8.3516-6.4243 17.425-13.811 25.406-20.469-0.66-6.1384-1.5343-12.348-2.7187-18.594-24.284 17.866-19.454 24.375-34.125 24.375-14.712 0-35.97 16.345-14.719-4.9062s1.6257-1.6375 27.781-31.062c5.1391-5.7815 9.7629-11.095 13.719-15.844-0.4837-1.3626-0.9765-2.7322-1.5-4.0938-1.2728-3.3088-2.5183-6.3531-3.7813-9.1875-13.166 10.01-9.3173 16.031-24.781 16.031-17.982 0-32.687 8.1792-6.5312-11.438 9.706-7.2795 17.385-13.42 24.125-18.281-9.3915-14.867-19.374-19.053-32.469-18.812z" stroke="#000"/>
 </g>
</svg>
