<?xml version="1.0" encoding="UTF-8" standalone="no"?>
<!DOCTYPE svg PUBLIC "-//W3C//DTD SVG 1.0//EN"
"http://www.w3.org/TR/2001/REC-SVG-20010904/DTD/svg10.dtd">
<!-- Created with Sodipodi ("http://www.sodipodi.com/") -->
<svg
   id="svg602"
   sodipodi:version="0.34"
   xmlns="http://www.w3.org/2000/svg"
   xmlns:sodipodi="http://sodipodi.sourceforge.net/DTD/sodipodi-0.dtd"
   xmlns:xlink="http://www.w3.org/1999/xlink"
   width="510.28pt"
   height="681.89pt"
   xml:space="preserve"
   sodipodi:docbase="/mnt/sda1/elementi_decorativi"
   sodipodi:docname="/mnt/sda1/elementi_decorativi/carnival_mask2.svg"><defs
   id="defs604" /><sodipodi:namedview
   id="base" /><g
   id="g632"
   transform="translate(-57.40515,-13.1544)"><g
   id="g627"
   style="fill:none;fill-opacity:1;stroke:#000000;stroke-opacity:1;stroke-width:6.5;stroke-dasharray:none;"><path
   style="font-size:12;fill:none;fill-rule:evenodd;stroke-width:6.5;fill-opacity:1;stroke:#000000;stroke-opacity:1;stroke-dasharray:none;"
   d="M 197.5306 291.1875 C 480.2041 141.8311 457.9836 435.9298 539.8038 435.9298 C 447.9329 166.8793 670.9234 342.7675 670.9234 202.6392 C 670.9234 62.51094 427.4987 37.46264 345.6788 37.46264 C 740.6572 187.3136 197.5306 151.0591 197.5306 291.1875 z "
   id="path608"
   sodipodi:nodetypes="ccccc" /><path
   style="font-size:12;fill:none;fill-rule:evenodd;stroke-width:6.5;fill-opacity:1;stroke:#000000;stroke-opacity:1;stroke-dasharray:none;"
   d="M 555.1297 291.1876 C 272.4563 141.8312 294.6768 435.9299 212.8566 435.9299 C 304.7275 166.8794 81.73686 342.7676 81.73686 202.6393 C 81.73686 62.51104 325.1617 37.46274 406.9816 37.46274 C 12.00306 187.3137 555.1297 151.0592 555.1297 291.1876 z "
   id="path609"
   sodipodi:nodetypes="ccccc" /><path
   sodipodi:type="arc"
   style="fill-rule:evenodd;stroke:#000000;fill:none;fill-opacity:1;stroke-opacity:1;stroke-width:6.5;stroke-linejoin:miter;stroke-linecap:butt;stroke-dasharray:none;"
   id="path612"
   d="M 524.4783 129.4167 A 143.0395 85.14256 0 1 0 238.3992 129.4167 A 143.0395 85.14256 0 1 0  524.4783 129.4167 z"
   sodipodi:cx="381.438721"
   sodipodi:cy="129.416656"
   sodipodi:rx="143.039536"
   sodipodi:ry="85.1425552" /></g><path
   style="font-size:12;fill:none;fill-rule:evenodd;stroke-width:6.875;fill-opacity:1;stroke:#000000;stroke-opacity:1;stroke-dasharray:none;"
   d="M 197.5306 587.4837 C 480.2041 736.8401 457.9836 442.7414 539.8038 442.7414 C 447.9329 711.7919 670.9234 535.9037 670.9234 676.032 C 670.9234 816.1603 427.4987 841.2086 345.6788 841.2086 C 740.6574 691.3576 197.5306 727.6121 197.5306 587.4837 z "
   id="path606"
   sodipodi:nodetypes="ccccc" /><path
   style="font-size:12;fill:none;fill-rule:evenodd;stroke-width:6.875;fill-opacity:1;stroke:#000000;stroke-opacity:1;stroke-dasharray:none;"
   d="M 555.1297 587.4836 C 272.4563 736.84 294.6768 442.7413 212.8566 442.7413 C 304.7275 711.7918 81.73689 535.9036 81.73689 676.0319 C 81.73689 816.1602 325.1617 841.2085 406.9816 841.2085 C 12.00309 691.3575 555.1297 727.612 555.1297 587.4836 z "
   id="path607"
   sodipodi:nodetypes="ccccc" /><g
   id="g623"
   style="stroke:#000000;stroke-opacity:1;stroke-width:8.5;stroke-dasharray:none;fill:#000000;fill-opacity:1;"><path
   style="font-size:12;fill-rule:evenodd;stroke:#000000;stroke-width:8.5;stroke-opacity:1;stroke-dasharray:none;fill:#000000;fill-opacity:1;"
   d="M 493.8267 399.0444 C 358.3106 295.0536 384.616 462.0175 249.8978 462.0175 C 214.558 281.3295 277.001 538.9837 322.1729 408.0788 C 412.517 295.2447 232.6268 401.3032 249.8978 292.89 C 384.616 292.89 493.8267 340.4168 493.8267 399.0444 z "
   id="path614"
   sodipodi:nodetypes="ccccc"
   transform="translate(5.383606,-3.051758e-5)" /><path
   style="font-size:12;fill-rule:evenodd;stroke:#000000;stroke-width:8.5;stroke-opacity:1;stroke-dasharray:none;fill:#000000;fill-opacity:1;"
   d="M 239.5002 399.0444 C 375.0166 295.0537 348.7112 469.2139 483.43 469.2139 C 518.7696 288.5266 456.3257 538.9836 411.1543 408.0789 C 320.8102 295.2447 500.7006 401.3032 483.43 292.8904 C 348.7112 292.8904 239.5002 340.417 239.5002 399.0444 z "
   id="path615"
   sodipodi:nodetypes="ccccc"
   transform="translate(5.383568,-3.051758e-5)" /><path
   style="font-size:12;fill:#000000;fill-rule:evenodd;stroke-width:8.5;stroke:#000000;stroke-opacity:1;stroke-dasharray:none;fill-opacity:1;"
   d="M 331.1788 538.7059 C 331.1788 527.419 355.4751 527.8865 368.6415 527.8865 C 381.8079 527.8865 412.9156 527.419 412.9156 538.7059 C 412.9156 549.9928 381.8079 568.76 368.6415 568.76 C 355.4751 568.76 331.1788 549.9928 331.1788 538.7059 z "
   id="path622"
   sodipodi:nodetypes="ccccc"
   transform="translate(3.814697e-5,-3.051758e-5)" /></g></g></svg>
