<?xml version="1.0" encoding="iso-8859-1"?>
<!-- Generator: Adobe Illustrator 23.0.6, SVG Export Plug-In . SVG Version: 6.00 Build 0)  -->
<svg version="1.1" xmlns="http://www.w3.org/2000/svg" xmlns:xlink="http://www.w3.org/1999/xlink" x="0px" y="0px"
	 viewBox="0 0 248.698 430.75" style="enable-background:new 0 0 248.698 430.75;" xml:space="preserve">
<g id="tiki-mask-silhouette-clip-art-5">
	<g>
		<path style="stroke:#000000;stroke-width:0.75;stroke-linecap:round;stroke-linejoin:round;stroke-miterlimit:10;" d="
			M99.999,394.447c-4.962-3.8-10.565-8.102-16.844-13.747H46.229c7.064,4.93,5.54,9.276,2.709,13.128
			c32.808,4.574,58.602,1.033,72.675,28.679C120.647,403.143,113.839,405.049,99.999,394.447z"/>
		<path style="stroke:#000000;stroke-width:0.75;stroke-linecap:round;stroke-linejoin:round;stroke-miterlimit:10;" d="
			M147.317,390.881c3.862-2.958,8.118-6.22,12.762-10.18h-35.043h-0.206H89.966c4.645,3.96,8.901,7.222,12.762,10.183
			c10.836,8.3,17.794,6.485,21.362,18.66C127.658,397.368,136.481,399.182,147.317,390.881z"/>
		<path style="stroke:#000000;stroke-width:0.75;stroke-linecap:round;stroke-linejoin:round;stroke-miterlimit:10;" d="
			M200.946,393.85c-2.841-3.857-4.385-8.21,2.693-13.15h-36.748c-6.279,5.645-11.882,9.945-16.844,13.745
			c-13.841,10.602-22.515,8.695-23.48,28.061C140.619,394.907,168.212,398.417,200.946,393.85z"/>
		<path style="stroke:#000000;stroke-width:0.75;stroke-linecap:round;stroke-linejoin:round;stroke-miterlimit:10;" d="
			M204.11,397.942c-36.039,5.009-63.692,0.87-76.154,32.433l75.683-24.345c4.421-2.39,3.037-5.075,0.608-8.107
			C204.202,397.928,204.155,397.935,204.11,397.942z"/>
		<path style="stroke:#000000;stroke-width:0.75;stroke-linecap:round;stroke-linejoin:round;stroke-miterlimit:10;" d="
			M45.935,397.942c-0.097-0.014-0.199-0.029-0.297-0.042c-2.44,3.041-3.842,5.734,0.591,8.13l73.881,24.07
			C107.602,398.796,81.868,402.936,45.935,397.942z"/>
		<path style="stroke:#000000;stroke-width:0.75;stroke-linecap:round;stroke-linejoin:round;stroke-miterlimit:10;" d="
			M99.241,216.629c7.725,2.449,15.647,3.801,23.591,4.07c-7.111-3.282-22.657-14.442-27.116-20.501
			c-1.427-1.938-1.935-3.579-1.63-5.024c0,0-41.043,20.236-69.712,21.963c-1.311,2.779,4.535,13.23,4.535,13.23
			c10.939-9.054,24.446-15.091,39.183-16.738H68.09C78.735,212.446,89.211,213.45,99.241,216.629z"/>
		<path style="stroke:#000000;stroke-width:0.75;stroke-linecap:round;stroke-linejoin:round;stroke-miterlimit:10;" d="
			M100.223,12.112C87.395,20.591,72.874,26.74,57.781,30.22c11.899,0.884,23.614,4.431,33.837,10.489
			c17.886,10.601,29.038,32.24,33.953,49.821c4.917-17.583,16.07-39.222,33.954-49.821c10.223-6.06,21.94-9.605,33.841-10.488
			c-15.094-3.479-29.617-9.629-42.446-18.109c-4.402-2.908-9.346,4.843-13.368-0.672c1.435,6.645,1.666,2.777,1.666,11.38
			c0,23.073-26.89,23.073-26.89,0c0-8.999,1.531-5.452,3.089-12.271C111.363,16.512,104.857,9.05,100.223,12.112z"/>
		<path style="stroke:#000000;stroke-width:0.75;stroke-linecap:round;stroke-linejoin:round;stroke-miterlimit:10;" d="
			M183.459,213.63c14.736,1.647,28.243,7.684,39.182,16.737c0,0,6.088-8.051,4.925-10.774c-46.395-10.324-70.105-24.42-70.105-24.42
			c0.308,1.445-0.2,3.087-1.627,5.025c-4.459,6.059-20.005,17.219-27.116,20.501c7.943-0.27,15.864-1.622,23.591-4.07
			C162.338,213.452,172.814,212.448,183.459,213.63z"/>
		<path style="stroke:#000000;stroke-width:0.75;stroke-linecap:round;stroke-linejoin:round;stroke-miterlimit:10;" d="
			M79.822,108.292c-10.185-1.039-21.288,2.065-30.405,8.49c-9.569,6.745-18.244,16.607-22.474,25.415l0.814,0.401
			c15.7,3.865,37.96,16.319,54.871,26.791l37.489-34.689l-10.41-10.019C98.654,114.894,90.61,109.38,79.822,108.292z
			 M100.546,137.931c-16.222,16.223-42.525,16.223-58.747,0h0l0,0c7.749-7.749,18.039-19.661,28.191-20.007
			C81.089,117.546,92.072,129.457,100.546,137.931L100.546,137.931z"/>
		<path style="stroke:#000000;stroke-width:0.75;stroke-linecap:round;stroke-linejoin:round;stroke-miterlimit:10;" d="
			M125.858,113.239c-2.783,5.124-7.652,8.563-10.797,10.365l9.609,9.249c0.341-0.051,0.675-0.136,1.027-0.136
			c0.027,0,0.051,0.01,0.078,0.011c0.027,0,0.051-0.011,0.078-0.011c0.352,0,0.685,0.085,1.026,0.136l9.552-9.192
			C133.25,121.907,128.452,118.509,125.858,113.239z"/>
		<path style="stroke:#000000;stroke-width:0.75;stroke-linecap:round;stroke-linejoin:round;stroke-miterlimit:10;" d="
			M145.502,184.72c2.287-1.593,9.7-6.694,19.475-12.863l-27.469-25.416c2.454,7.669,3.736,17.582,3.736,27.221
			c0,5.041-0.338,10.041-0.973,14.7L145.502,184.72z"/>
		<path style="stroke:#000000;stroke-width:0.75;stroke-linecap:round;stroke-linejoin:round;stroke-miterlimit:10;" d="
			M86.576,171.856c9.774,6.169,17.186,11.271,19.472,12.864l5.231,3.641c-0.635-4.665-0.974-9.666-0.974-14.699
			c0-9.639,1.282-19.552,3.736-27.22L86.576,171.856z"/>
		<path style="stroke:#000000;stroke-width:0.75;stroke-linecap:round;stroke-linejoin:round;stroke-miterlimit:10;" d="
			M202.132,116.782c-9.115-6.427-20.198-9.529-30.405-8.49c-10.799,1.09-18.848,6.614-29.921,16.424l0,0l-10.373,9.986l37.493,34.69
			c16.888-10.455,39.109-22.887,54.804-26.773l0.872-0.43C220.371,133.382,211.698,123.524,202.132,116.782z M209.751,137.931
			c-16.222,16.223-42.525,16.223-58.748,0v0c7.75-7.749,18.039-19.661,28.191-20.007
			C190.295,117.546,201.278,129.457,209.751,137.931L209.751,137.931z"/>
		<path style="stroke:#000000;stroke-width:0.75;stroke-linecap:round;stroke-linejoin:round;stroke-miterlimit:10;" d="
			M35.33,282.265c-0.549,4.945-0.407,9.82,0.368,14.538h41v-59.512C54.9,241.634,37.809,259.92,35.33,282.265z"/>
		<path style="stroke:#000000;stroke-width:0.75;stroke-linecap:round;stroke-linejoin:round;stroke-miterlimit:10;" d="
			M81.188,236.604v60.199h42.447V242.02c-7.1-0.04-14.196-1.14-21.097-3.329C95.671,236.515,88.482,235.82,81.188,236.604z"/>
		<path style="stroke:#000000;stroke-width:0.75;stroke-linecap:round;stroke-linejoin:round;stroke-miterlimit:10;" d="
			M145.531,238.691c-5.706,1.809-11.544,2.845-17.406,3.186v54.926h43.248v-59.511c-1.41-0.281-2.839-0.509-4.286-0.67
			C159.712,235.802,152.46,236.494,145.531,238.691z"/>
		<path style="stroke:#000000;stroke-width:0.75;stroke-linecap:round;stroke-linejoin:round;stroke-miterlimit:10;" d="
			M175.861,238.4v58.403h36.505c0.776-4.718,0.918-9.594,0.369-14.538C210.43,261.48,195.481,244.206,175.861,238.4z"/>
		<path style="stroke:#000000;stroke-width:0.75;stroke-linecap:round;stroke-linejoin:round;stroke-miterlimit:10;" d="
			M200.347,224.798c0.811,3.105,1.206,6.317,1.049,9.524c0,0-0.917-1.448-2.073-3.382c-3.542-5.923-9.667-9.833-16.526-10.605
			l-0.085-0.01c-9.704-1.091-19.237-0.169-28.36,2.72c-18.57,5.882-38.562,5.891-57.132,0.007c-9.13-2.893-18.68-3.815-28.381-2.727
			h-0.002c-1.493,0.167-2.973,0.383-4.437,0.647c-10.336,1.865-18.902,9.108-22.999,18.78l0.831-10.543
			c-18.143,10.649-31.052,29.453-33.463,51.175c-2.194,19.758,3.833,38.718,16.966,53.39c7.069,7.897,15.816,13.94,25.45,17.816
			c-1.492-3.083-2.329-6.482-2.351-9.922c0,0,6.268,8.936,9.287,12.293c5.982,1.691,12.215,2.588,18.542,2.588
			c7.101,0,14.098-1.092,20.799-3.247c9.26-2.977,18.785-4.463,28.31-4.463s19.05,1.486,28.31,4.463
			c7.355,2.365,15.067,3.45,22.88,3.215c0.022-0.009,0.042-0.017,0.064-0.026l6.688-6.182l-1.878,5.876
			c0.036-0.004,0.071-0.007,0.107-0.011c6.093-0.635,11.508-4.212,14.819-9.366c2.155-3.355,4.18-6.283,4.18-6.283
			c-0.426,4.067-1.452,8.099-2.916,11.949c10.557-3.807,20.149-10.171,27.784-18.701c13.134-14.672,19.16-33.635,16.965-53.393
			C239.985,255.23,223.12,233.991,200.347,224.798z M203.187,325.834c-10.696,11.949-26.021,18.802-42.048,18.802
			c-5.86,0-11.64-0.903-17.18-2.683c-13.037-4.192-26.819-4.189-39.852,0c-5.54,1.78-11.32,2.683-17.18,2.683
			c-16.027,0-31.355-6.853-42.05-18.804c-10.845-12.114-15.819-27.762-14.01-44.063c2.87-25.857,23.735-46.72,49.613-49.611
			c8.006-0.888,15.88-0.134,23.412,2.254c13.175,4.174,27.102,4.174,40.281,0c7.534-2.39,15.415-3.141,23.412-2.254
			c25.879,2.891,46.744,23.754,49.613,49.611C219.008,298.071,214.032,313.72,203.187,325.834z"/>
		<path style="stroke:#000000;stroke-width:0.75;stroke-linecap:round;stroke-linejoin:round;stroke-miterlimit:10;" d="
			M175.861,337.992c9.152-2.711,17.494-7.905,23.98-15.153c5.64-6.3,9.552-13.643,11.591-21.547h-35.571V337.992z"/>
		<path style="stroke:#000000;stroke-width:0.75;stroke-linecap:round;stroke-linejoin:round;stroke-miterlimit:10;" d="
			M81.188,339.822c1.897,0.212,3.812,0.325,5.739,0.325c5.393,0,10.711-0.831,15.808-2.468c6.838-2.197,13.867-3.302,20.9-3.343
			v-33.043H81.188V339.822z"/>
		<path style="stroke:#000000;stroke-width:0.75;stroke-linecap:round;stroke-linejoin:round;stroke-miterlimit:10;" d="
			M48.222,322.84c7.535,8.417,17.57,14.075,28.476,16.273v-37.82H36.632C38.67,309.196,42.582,316.539,48.222,322.84z"/>
		<path style="stroke:#000000;stroke-width:0.75;stroke-linecap:round;stroke-linejoin:round;stroke-miterlimit:10;" d="
			M128.124,334.48c5.795,0.345,11.566,1.387,17.207,3.198c5.097,1.637,10.415,2.468,15.808,2.468c3.463,0,6.888-0.361,10.233-1.035
			v-37.819h-43.248V334.48z"/>
		<path style="stroke:#000000;stroke-width:0.75;stroke-linecap:round;stroke-linejoin:round;stroke-miterlimit:10;" d="
			M161.814,44.571c-15.11,8.955-25.988,27.777-31.244,44.867c0.958-1.257,1.988-2.523,3.156-3.805
			c35.211-35.695,66.71-27.733,82.364-19.82c6.869,3.474,12.926,8.009,18.103,13.066c-2.482-5.955-14.443-33.73-25.624-43.798
			C192.523,33.031,175.705,36.336,161.814,44.571z"/>
		<path style="stroke:#000000;stroke-width:0.75;stroke-linecap:round;stroke-linejoin:round;stroke-miterlimit:10;" d="
			M151.387,375.758c-15.302-9.642-35.646-9.636-51.94,0h21.555h9.544H151.387z"/>
		<path style="stroke:#000000;stroke-width:0.75;stroke-linecap:round;stroke-linejoin:round;stroke-miterlimit:10;" d="
			M153.398,8.368c16.227,10.725,35.262,17.583,54.667,19.843l0.501-17.219L138.195,3.48C141.28,11.12,147.982,4.789,153.398,8.368z"
			/>
		<path style="stroke:#000000;stroke-width:0.75;stroke-linecap:round;stroke-linejoin:round;stroke-miterlimit:10;" d="
			M207.409,66.956c-15.875-5.727-41.733-7.318-70.426,21.765c-6.732,7.388-9.483,14.085-8.118,19.841
			c1.574,6.641,8.316,10.512,11.066,11.842c10.97-9.6,19.786-15.415,31.344-16.581c11.268-1.133,40.196-2.657,60.595,34.919
			C256.289,104.792,238.208,83.363,207.409,66.956z"/>
		<path style="stroke:#000000;stroke-width:0.75;stroke-linecap:round;stroke-linejoin:round;stroke-miterlimit:10;" d="
			M79.946,103.824c11.558,1.166,20.373,6.982,31.344,16.581c2.751-1.33,9.492-5.201,11.066-11.842
			c1.366-5.757-1.386-12.454-8.118-19.841c-28.692-29.084-54.55-27.493-70.425-21.765c-30.799,16.407-48.88,37.836-24.461,71.786
			C39.749,101.167,68.678,102.691,79.946,103.824z"/>
		<path style="stroke:#000000;stroke-width:0.75;stroke-linecap:round;stroke-linejoin:round;stroke-miterlimit:10;" d="
			M152.024,359.712c-17.171-5.515-35.327-5.515-52.498,0c-7.368,2.37-15.058,3.571-22.86,3.571c-13.461,0-26.547-3.642-37.95-10.322
			l1.824,22.797h50.923c20.26-15.61,48.772-15.604,67.545,0h52.002l1.824-22.797c-11.403,6.68-24.488,10.322-37.949,10.322
			C167.082,363.283,159.392,362.082,152.024,359.712z"/>
		<path style="stroke:#000000;stroke-width:0.75;stroke-linecap:round;stroke-linejoin:round;stroke-miterlimit:10;" d="
			M114.152,3.503L43.494,10.92l-0.607,17.31c19.472-2.237,38.578-9.102,54.858-19.862C103.156,4.793,111.062,11.131,114.152,3.503z"
			/>
		<path style="stroke:#000000;stroke-width:0.75;stroke-linecap:round;stroke-linejoin:round;stroke-miterlimit:10;" d="
			M117.762,85.57c0.853,0.839,1.626,1.673,2.374,2.506c-5.405-16.719-16.095-34.784-30.807-43.504
			c-13.802-8.18-30.49-11.49-46.442-9.522v0.081C31.734,45.269,19.832,72.935,17.356,78.878c5.177-5.056,11.234-9.59,18.101-13.065
			C51.107,57.9,82.611,49.938,117.762,85.57z"/>
		<path style="stroke:#000000;stroke-width:0.75;stroke-linecap:round;stroke-linejoin:round;stroke-miterlimit:10;" d="
			M151.408,196.062c-0.679-1.936-3.19-3.068-6.54-3.227c-2.099,0.099-4.4,0.529-6.725,1.313l-3.615,1.221l0.141-0.767l-0.15,0.041
			l0.622-3.508c0.967-5.452,1.458-11.331,1.458-17.474c0-22.46-6.277-36.288-10.824-36.441
			c-4.548,0.153-10.826,13.981-10.826,36.441c0,6.143,0.491,12.022,1.458,17.474l0.623,3.508l-0.152-0.042l0.141,0.768l-3.613-1.221
			c-2.345-0.791-4.661-1.214-6.773-1.308c-3.325,0.168-5.815,1.297-6.489,3.222c0.434,4.214,21.582,19.917,25.631,21.076
			C129.821,215.979,150.97,200.278,151.408,196.062z"/>
		<path style="stroke:#000000;stroke-width:0.75;stroke-linecap:round;stroke-linejoin:round;stroke-miterlimit:10;" d="
			M126.031,29.927c4.505,0,8.764-10.362,8.764-21.328c0-5.483-4.079-8.225-8.158-8.225c-4.079,0-8.158,2.742-8.158,8.225
			C118.479,19.565,121.525,29.927,126.031,29.927z"/>
		<path style="stroke:#000000;stroke-width:0.75;stroke-linecap:round;stroke-linejoin:round;stroke-miterlimit:10;" d="
			M183.132,191.979c10.986,1.311,20.259,0.123,27.574-3.538c7.279-3.64,13.121-10.086,16.029-17.685
			c2.778-7.267,2.828-15.532,0.215-22.862c-27.885,8.086-53.831,26.632-74.907,38.41l1.192,0.242
			C162.971,188.536,175.087,191.014,183.132,191.979z"/>
		<path style="stroke:#000000;stroke-width:0.75;stroke-linecap:round;stroke-linejoin:round;stroke-miterlimit:10;" d="
			M248.286,186.552c-0.721-15.103-14.686-40.39-15.864-40.111c-0.035,0.008-0.069,0.019-0.104,0.028
			c2.897,8.454,2.794,17.924-0.402,26.27c-3.396,8.879-10.22,16.412-18.724,20.665c-6.178,3.089-13.471,4.64-21.769,4.64
			c-2.865,0-5.849-0.184-8.948-0.556c-5.685-0.681-13.235-2.077-20.596-3.535c20.913,8.872,60.771,24.093,74.185,17.495
			C244.82,207.14,248.751,196.299,248.286,186.552z"/>
		<path style="stroke:#000000;stroke-width:0.75;stroke-linecap:round;stroke-linejoin:round;stroke-miterlimit:10;" d="
			M21.962,170.755c2.908,7.599,8.75,14.046,16.029,17.685c7.315,3.661,16.589,4.85,27.574,3.538
			c8.045-0.964,20.162-3.443,29.897-5.433l1.192-0.242c-21.076-11.779-47.022-30.325-74.907-38.41
			C19.134,155.223,19.184,163.488,21.962,170.755z"/>
		<path style="stroke:#000000;stroke-width:0.75;stroke-linecap:round;stroke-linejoin:round;stroke-miterlimit:10;" d="
			M86.819,193.953c-7.361,1.458-14.911,2.854-20.596,3.535c-3.099,0.372-6.083,0.556-8.948,0.556c-8.298,0-15.592-1.552-21.769-4.64
			c-8.504-4.254-15.328-11.786-18.724-20.665c-3.196-8.346-3.299-17.816-0.402-26.27c-0.035-0.008-0.069-0.019-0.104-0.028
			c-1.179-0.279-15.144,25.008-15.864,40.111c-0.465,9.747,3.466,20.588,12.222,24.896
			C26.048,218.045,65.906,202.825,86.819,193.953z"/>
	</g>
</g>
<g id="Layer_1">
</g>
</svg>
