<?xml version="1.0" encoding="iso-8859-1"?>
<!-- Generator: Adobe Illustrator 23.0.6, SVG Export Plug-In . SVG Version: 6.00 Build 0)  -->
<svg version="1.1" xmlns="http://www.w3.org/2000/svg" xmlns:xlink="http://www.w3.org/1999/xlink" x="0px" y="0px"
	 viewBox="0 0 212.066 430.75" style="enable-background:new 0 0 212.066 430.75;" xml:space="preserve">
<g id="tiki-mask-silhouette-clip-art-4">
	<g>
		<path style="stroke:#000000;stroke-width:0.75;stroke-linecap:round;stroke-linejoin:round;stroke-miterlimit:10;" d="
			M122.393,147.842c0.217,0.205,0.433,0.411,0.633,0.636c1.86,2.087,2.714,4.724,2.401,7.42l-1.804,15.588
			c2.511-4.555,5.933-9.119,9.455-12.41c2.86-2.675,5.86-4.88,8.944-6.643c-0.884-1.665-2.22-3.844-3.616-6.119
			c-2.059-3.358-4.326-7.068-5.854-10.262C128.139,139.219,124.745,143.147,122.393,147.842z"/>
		<path style="stroke:#000000;stroke-width:0.75;stroke-linecap:round;stroke-linejoin:round;stroke-miterlimit:10;" d="
			M146.881,205.365c2.854-4.844,5.934-9.139,9.296-12.941c-0.902,0.057-1.807,0.086-2.711,0.086
			c-11.294,0-22.638-4.415-30.872-12.133l-1.183,12.636C126.31,200.984,136.223,205.766,146.881,205.365z"/>
		<path style="stroke:#000000;stroke-width:0.75;stroke-linecap:round;stroke-linejoin:round;stroke-miterlimit:10;" d="
			M120.522,198.28l-0.069,5.362c3.267,7.803,12.667,11.67,20.717,12.835c1.143-2.543,2.325-4.967,3.552-7.269
			C135.082,208.955,126.155,204.914,120.522,198.28z"/>
		<path style="stroke:#000000;stroke-width:0.75;stroke-linecap:round;stroke-linejoin:round;stroke-miterlimit:10;" d="
			M156.973,127.271c0.504,3.578,0.85,9.029,1.157,13.913c0.145,2.317,0.285,4.536,0.427,6.298c2.925-0.122,5.85,0.151,8.745,0.817
			l7.925-22.022C168.566,126.165,162.477,126.494,156.973,127.271z"/>
		<path style="stroke:#000000;stroke-width:0.75;stroke-linecap:round;stroke-linejoin:round;stroke-miterlimit:10;" d="
			M153.19,127.897c-6.778,1.278-12.578,3.302-17.389,6.068c1.416,3.073,3.761,6.902,5.873,10.345
			c1.488,2.428,2.818,4.602,3.752,6.372c3.054-1.385,6.175-2.323,9.317-2.819c-0.148-1.815-0.29-4.071-0.438-6.438
			C154.003,136.643,153.665,131.305,153.19,127.897z"/>
		<path style="stroke:#000000;stroke-width:0.75;stroke-linecap:round;stroke-linejoin:round;stroke-miterlimit:10;" d="
			M40.723,150.269c0.778-0.338,1.56-0.638,2.346-0.915l-7.573-21.044c-0.16,0.125-0.328,0.24-0.484,0.369
			c-4.098,2.023-8.17,4.754-11.452,8.237c3.233,4.69,7.997,11.761,10.953,16.864C36.426,152.418,38.504,151.232,40.723,150.269z"/>
		<path style="stroke:#000000;stroke-width:0.75;stroke-linecap:round;stroke-linejoin:round;stroke-miterlimit:10;" d="
			M70.559,115.342c-8.065-8.135-18.219-13.81-28.886-16.577l2.854,13.726c5.135,0.671,10.017,2.26,14.355,4.595
			c-4.538-0.925-9.118-1.017-13.481-0.394l1.214,5.837c24.871,0.972,41.133,8.876,48.497,23.624
			c1.613-0.826,3.434-1.284,5.324-1.284h0.449c-6.805-13.928-18.032-29.608-31.078-43.342c-9.239-9.721-20.663-16.942-32.332-23.485
			l-0.091,0.083l3.125,15.03C52.614,97.572,63.15,105.417,70.559,115.342z"/>
		<path style="stroke:#000000;stroke-width:0.75;stroke-linecap:round;stroke-linejoin:round;stroke-miterlimit:10;" d="
			M173.343,150.269c2.219,0.963,4.296,2.149,6.21,3.513c3.302-5.702,8.863-13.862,12.015-18.403
			c-3.765-3.499-8.305-6.129-12.676-7.963l-7.896,21.94C171.783,149.631,172.565,149.931,173.343,150.269z"/>
		<path style="stroke:#000000;stroke-width:0.75;stroke-linecap:round;stroke-linejoin:round;stroke-miterlimit:10;" d="
			M92.654,193.013l-0.96-12.851c-8.252,7.849-19.698,12.347-31.096,12.347c-0.905,0-1.809-0.029-2.711-0.086
			c3.362,3.802,6.442,8.097,9.296,12.941C77.825,205.764,87.754,200.983,92.654,193.013z"/>
		<path style="stroke:#000000;stroke-width:0.75;stroke-linecap:round;stroke-linejoin:round;stroke-miterlimit:10;" d="
			M173.626,179.506c5.362-2.245,10.704-3.295,15.265-3.45c-0.657-7.845-5.51-15.314-12.793-19.973
			c1.444,6.942,0.73,15.876-1.33,20.98C174.432,177.896,174.049,178.711,173.626,179.506z"/>
		<path style="stroke:#000000;stroke-width:0.75;stroke-linecap:round;stroke-linejoin:round;stroke-miterlimit:10;" d="
			M111.696,144.869h3.071c1.541,0,3.033,0.311,4.399,0.882c7.228-14.04,22.621-21.802,45.995-23.143l1.252-6.019
			c-4.132-0.506-8.442-0.375-12.715,0.496c4.106-2.211,8.705-3.736,13.54-4.464l2.833-13.627
			c-10.36,2.844-20.196,8.425-28.051,16.347c7.237-9.696,17.45-17.429,29.205-21.899l3.113-14.974
			c-11.402,6.43-22.528,13.55-31.564,23.059C129.73,115.258,118.503,130.939,111.696,144.869z"/>
		<path style="stroke:#000000;stroke-width:0.75;stroke-linecap:round;stroke-linejoin:round;stroke-miterlimit:10;" d="
			M25.173,176.057c4.562,0.155,9.905,1.205,15.267,3.45c-0.423-0.795-0.806-1.611-1.142-2.444
			c-2.062-5.105-2.775-14.038-1.331-20.98C30.685,160.742,25.83,168.211,25.173,176.057z"/>
		<path style="stroke:#000000;stroke-width:0.75;stroke-linecap:round;stroke-linejoin:round;stroke-miterlimit:10;" d="
			M57.157,168.995c-2.873-0.507-5.903-0.225-9.112,0.073c-2.173,0.203-4.403,0.398-6.671,0.362c0.293,2.317,0.78,4.473,1.477,6.199
			c1.329,3.291,3.495,6.246,6.169,8.62c1.742,1.526,4.383,3.6,6.691,4.184c11.946,1.522,24.597-2.74,33.329-11.042
			c-2.178-5.325-6.422-11.545-10.67-15.516c-10.906-10.195-23.893-13.182-35.706-8.252c-1.024,2.604-1.563,6.273-1.609,10.053
			c2.074,0.07,4.216-0.122,6.455-0.334c3.449-0.322,7.013-0.655,10.653-0.007c6.366,1.132,11.556,4.982,16.134,8.379l-3.425,4.619
			C66.804,173.312,62.191,169.891,57.157,168.995z"/>
		<path style="stroke:#000000;stroke-width:0.75;stroke-linecap:round;stroke-linejoin:round;stroke-miterlimit:10;" d="
			M101.199,137.173c-7.542-33.142-22.243-63.783-34.668-85.585L49.629,66.975c6.932,4.732,13.378,10.058,19.226,15.89
			c-7.209-5.002-14.854-9.233-22.763-12.67l-5.629,5.125c11.539,6.522,22.819,13.782,32.119,23.569
			C79.658,106.336,91.936,120.423,101.199,137.173z"/>
		<path style="stroke:#000000;stroke-width:0.75;stroke-linecap:round;stroke-linejoin:round;stroke-miterlimit:10;" d="
			M92.014,148.489c-2.361-4.988-5.883-9.122-10.5-12.438c-1.528,3.194-3.795,6.904-5.855,10.263
			c-1.396,2.275-2.732,4.454-3.616,6.119c3.084,1.763,6.083,3.968,8.944,6.643c3.765,3.518,7.439,8.491,9.981,13.353l-1.539-16.405
			c-0.256-2.748,0.655-5.418,2.57-7.52C92.004,148.499,92.009,148.494,92.014,148.489z"/>
		<path style="stroke:#000000;stroke-width:0.75;stroke-linecap:round;stroke-linejoin:round;stroke-miterlimit:10;" d="
			M133.143,412.674c0.973-1.921,1.836-3.982,2.542-6.217l10.721-33.951c-11.769,3.62-24.044,5.641-36.471,5.945
			C114.199,390.968,122.742,403.363,133.143,412.674z"/>
		<path style="stroke:#000000;stroke-width:0.75;stroke-linecap:round;stroke-linejoin:round;stroke-miterlimit:10;" d="
			M103.168,378.435c-1.266-0.033-2.529-0.034-3.797-0.103c-11.917-0.651-23.4-2.924-34.242-6.634l10.977,34.76
			c0.805,2.548,1.814,4.869,2.963,7.009C89.875,404.07,98.785,391.313,103.168,378.435z"/>
		<path style="stroke:#000000;stroke-width:0.75;stroke-linecap:round;stroke-linejoin:round;stroke-miterlimit:10;" d="
			M142.872,41.727l-7.153-7.049c-4.077,5.276-7.513,11.279-10.088,17.807c1.266-7.201,3.58-14.303,6.873-20.976l-8.607-8.481
			c-7.644,22.202-15.655,57.259-15.747,57.662l-1.86,8.178l-1.86-8.178c-0.093-0.406-8.245-36.073-15.951-58.238l-8.671,8.544
			c3.43,6.821,5.84,14.101,7.139,21.489c-2.647-6.71-6.199-12.869-10.426-18.249l-7.086,6.982
			c13.44,25.401,29.665,62.073,36.855,101.492C113.432,103.556,129.487,67.103,142.872,41.727z"/>
		<path style="stroke:#000000;stroke-width:0.75;stroke-linecap:round;stroke-linejoin:round;stroke-miterlimit:10;" d="
			M59.761,141.433c-0.148,2.363-0.291,4.615-0.438,6.427c3.142,0.497,6.262,1.435,9.317,2.821c0.935-1.77,2.264-3.944,3.752-6.371
			c2.113-3.444,4.458-7.274,5.874-10.348c-4.812-2.767-10.611-4.793-17.39-6.071C60.399,131.299,60.061,136.645,59.761,141.433z"/>
		<path style="stroke:#000000;stroke-width:0.75;stroke-linecap:round;stroke-linejoin:round;stroke-miterlimit:10;" d="
			M110.788,266.265c1.174-0.296,2.42-0.653,3.662-1.037l0.636-0.332c0.56-0.288,1.121-0.574,1.664-0.898
			c0.363-0.215,0.711-0.436,1.061-0.657l0.361-0.226c0.348-0.322,0.758-0.692,1.237-1.123c1.644-1.549,3.35-2.974,5.098-4.3
			c4.449-5.075,6.615-12.342,8.704-19.375c0.567-1.905,1.125-3.786,1.72-5.594c1.481-4.504,3.036-8.691,4.669-12.615
			c-7.408-1.266-15.644-4.66-20.34-10.939l-12.317,57.196c1.105,0.023,2.214,0.034,3.307,0.006L110.788,266.265z M111.973,257.11
			c0.051-0.26,5.048-26.283,8.175-38.884l0.486-1.958l1.93,0.586c5.313,1.611,9.352,7.128,9.822,13.418
			c0.359,4.84-1.151,10.108-4.493,15.659c-3.545,5.882-8.077,10.452-13.113,13.218l-3.573,1.963L111.973,257.11z"/>
		<path style="stroke:#000000;stroke-width:0.75;stroke-linecap:round;stroke-linejoin:round;stroke-miterlimit:10;" d="
			M166.555,163.343c2.236,0.21,4.377,0.402,6.454,0.333c-0.047-3.78-0.585-7.448-1.61-10.052
			c-11.806-4.925-24.796-1.943-35.704,8.253c-4.249,3.971-8.492,10.191-10.67,15.516c8.73,8.302,21.381,12.567,33.327,11.042
			c1.346-0.539,5.225-2.85,6.69-4.183c3.004-2.563,4.843-5.33,6.174-8.624c0.697-1.726,1.184-3.881,1.476-6.198
			c-2.268,0.036-4.498-0.159-6.672-0.362c-3.208-0.299-6.236-0.582-9.112-0.073c-5.03,0.895-9.646,4.318-13.716,7.338l-3.425-4.619
			c4.579-3.397,9.771-7.248,16.134-8.379C159.546,162.688,163.109,163.021,166.555,163.343z"/>
		<path style="stroke:#000000;stroke-width:0.75;stroke-linecap:round;stroke-linejoin:round;stroke-miterlimit:10;" d="
			M139.997,98.889c9.168-9.65,20.262-16.842,31.633-23.294l-5.677-5.168c-7.719,3.395-15.183,7.549-22.23,12.439
			c5.721-5.706,12.008-10.934,18.769-15.59L145.78,52.062c-12.367,21.769-26.912,52.199-34.401,85.111
			C120.645,120.419,132.921,106.335,139.997,98.889z"/>
		<path style="stroke:#000000;stroke-width:0.75;stroke-linecap:round;stroke-linejoin:round;stroke-miterlimit:10;" d="
			M124.609,243.953c2.923-4.856,4.254-9.365,3.955-13.396c-0.294-3.934-2.354-7.443-5.233-9.189
			c-2.272,9.582-5.257,24.518-6.715,31.95C119.605,250.924,122.323,247.749,124.609,243.953z"/>
		<path style="stroke:#000000;stroke-width:0.75;stroke-linecap:round;stroke-linejoin:round;stroke-miterlimit:10;" d="
			M55.935,141.194c0.307-4.891,0.653-10.351,1.159-13.929c-5.505-0.778-11.597-1.106-18.259-0.992l7.926,22.025
			c2.895-0.666,5.822-0.94,8.747-0.818C55.651,145.72,55.79,143.507,55.935,141.194z"/>
		<path style="stroke:#000000;stroke-width:0.75;stroke-linecap:round;stroke-linejoin:round;stroke-miterlimit:10;" d="
			M182.049,227.172c-7.498,2.736-15.504,8.897-24.384,18.755c10.882-0.265,21.858,2.641,31.744,8.731
			c0.205-0.306,0.414-0.611,0.615-0.917c0.056-9.417-2.271-18.684-6.798-26.958C182.83,226.909,182.431,227.032,182.049,227.172z"/>
		<path style="stroke:#000000;stroke-width:0.75;stroke-linecap:round;stroke-linejoin:round;stroke-miterlimit:10;" d="
			M32.016,227.172c-0.381-0.139-0.779-0.262-1.174-0.388c-2.842,5.294-5.123,12.741-6.192,20.148
			c7.601-4.187,16.556-6.674,25.925-7.065C44.006,233.539,37.775,229.273,32.016,227.172z"/>
		<path style="stroke:#000000;stroke-width:0.75;stroke-linecap:round;stroke-linejoin:round;stroke-miterlimit:10;" d="
			M9.321,227.69c2.754,7.008,6.469,14.378,11.081,21.851c0.189-0.129,0.37-0.266,0.561-0.393l-0.459-0.049
			c0.89-8.422,3.301-16.947,6.518-23.274C21.302,224.758,14.831,225.112,9.321,227.69z"/>
		<path style="stroke:#000000;stroke-width:0.75;stroke-linecap:round;stroke-linejoin:round;stroke-miterlimit:10;" d="
			M203.927,227.33c-5.327-2.247-11.443-2.52-16.883-1.505c3.639,6.921,5.875,14.459,6.579,22.207
			C197.889,240.951,201.343,233.971,203.927,227.33z"/>
		<path style="stroke:#000000;stroke-width:0.75;stroke-linecap:round;stroke-linejoin:round;stroke-miterlimit:10;" d="
			M196.531,264.829h0.002c-21.883-20.083-53.225-20.094-74.528-0.017c-0.558,0.502-6.713,6.266-13.954,6.44
			c-9.988,0.24-18.408-12.416-18.408-12.416c-8.006-9.391-20.869-14.929-35.29-15.193c-0.364-0.007-0.728-0.011-1.09-0.011
			c-14.982,0-29.079,5.659-37.887,15.254c-20.017,21.809-19.999,51.09,0.046,74.599c21.005,24.634,50.894,39.202,84.159,41.017
			c35.697,1.95,71.028-10.933,96.933-35.343c9.741-9.18,15.271-22.959,15.176-37.81
			C211.596,286.898,206.071,273.588,196.531,264.829z M180.361,326.952c-20.873,12.668-47.417,18.939-73.5,18.939
			c-28.342,0-56.135-7.404-75.519-22.044c-8.695-6.567-13.217-14.207-13.078-22.095c0.133-7.6,4.674-14.753,13.132-20.687
			c16.079-11.283,48.912-11.261,63.873,0.039l0.262,0.198c0.658,0.504,2.283,1.746,3.868,2.85c0.395,0.165,0.902,0.38,1.525,0.649
			l2.274,0.835c0.81,0.161,1.626,0.315,2.446,0.451l0.505,0.127c1.099,0.021,2.197,0.022,3.296,0.002l0.457-0.058
			c0.951-0.154,1.954-0.339,2.953-0.537l0.504-0.169c0.451-0.15,0.904-0.299,1.342-0.468c0.309-0.116,0.601-0.236,0.891-0.356
			l0.232-0.093l0.964-0.565c18.153-11.017,44.897-11.025,63.555,0.009c8.56,5.06,13.497,12.799,13.546,21.23
			C193.937,313.782,189.007,321.706,180.361,326.952z"/>
		<path style="stroke:#000000;stroke-width:0.75;stroke-linecap:round;stroke-linejoin:round;stroke-miterlimit:10;" d="
			M167.311,187.349c-1.476,1.067-4.044,3.243-4.669,3.848c-10.033,9.728-17.682,23.304-24.067,42.724
			c-0.584,1.774-1.132,3.618-1.686,5.487c-1.346,4.526-2.729,9.139-4.727,13.348c6.358-3.439,13.143-5.583,20.053-6.431
			c10.345-12.075,19.681-19.53,28.521-22.756c8.326-3.038,17.259-2.802,24.502,0.208c6.182-17.757,5.765-32.653-2.7-39.747
			c-3.189-2.672-7.279-4.006-12-4.167C184.075,179.774,175.144,181.831,167.311,187.349z"/>
		<path style="stroke:#000000;stroke-width:0.75;stroke-linecap:round;stroke-linejoin:round;stroke-miterlimit:10;" d="
			M192.654,175.277c10.945-16.631,8.552-28.79,1.615-37.063c-3.292,4.762-8.699,12.74-11.695,18.006
			C188.236,161.326,191.923,168.14,192.654,175.277z"/>
		<path style="stroke:#000000;stroke-width:0.75;stroke-linecap:round;stroke-linejoin:round;stroke-miterlimit:10;" d="
			M111.084,408.294h-9.9c-1.364,0-2.476,1.112-2.476,2.476v18.699c4.88,1.256,9.987,1.203,14.852-0.139v-18.56
			C113.56,409.406,112.448,408.294,111.084,408.294z"/>
		<path style="stroke:#000000;stroke-width:0.75;stroke-linecap:round;stroke-linejoin:round;stroke-miterlimit:10;" d="
			M33.33,223.571c7.085,2.586,14.714,8.074,22.676,16.307c8.651,0.379,16.748,2.552,23.67,6.248
			c-1.428-3.853-2.754-7.851-3.963-11.528l-0.223-0.676c-6.385-19.42-14.033-32.996-24.067-42.724
			c-0.623-0.604-3.438-2.961-4.673-3.851c-6.699-4.718-14.204-6.909-20.281-7.386l0.009,0.027c-0.726-0.068-1.437-0.104-2.139-0.124
			c-0.378-0.005-0.752-0.006-1.115,0.003c-0.134,0.001-0.267,0.004-0.4,0.007c-1.761,0.069-3.319,0.3-4.588,0.67l-0.041-0.14
			c-2.904,0.635-5.488,1.817-7.649,3.628c-8.521,7.14-8.875,22.19-2.568,40.099C15.363,220.777,24.68,220.413,33.33,223.571z"/>
		<path style="stroke:#000000;stroke-width:0.75;stroke-linecap:round;stroke-linejoin:round;stroke-miterlimit:10;" d="
			M53.026,277.153c-7.427,1.145-14.334,3.474-19.429,7.049c-6.329,4.44-10.128,9.533-11.181,14.862
			c7.842,2.239,15.811,4.142,23.86,5.77C47.176,295.238,49.452,285.751,53.026,277.153z"/>
		<path style="stroke:#000000;stroke-width:0.75;stroke-linecap:round;stroke-linejoin:round;stroke-miterlimit:10;" d="
			M106.549,380.413c-4.794,13.636-14.067,26.759-25.454,36.434c3.699,5.398,8.516,9.171,13.78,11.342V410.77
			c0-3.479,2.83-6.309,6.309-6.309h9.9c3.479,0,6.309,2.83,6.309,6.309v17.226c5.31-2.299,10.124-6.274,13.773-11.891
			C120.166,406.505,111.223,393.71,106.549,380.413z"/>
		<path style="stroke:#000000;stroke-width:0.75;stroke-linecap:round;stroke-linejoin:round;stroke-miterlimit:10;" d="
			M120.852,17.399L105.895,0.375L91.525,16.732c5.794,18.715,11.807,46.262,14.765,60.459
			C109.213,63.158,115.121,36.095,120.852,17.399z"/>
		<path style="stroke:#000000;stroke-width:0.75;stroke-linecap:round;stroke-linejoin:round;stroke-miterlimit:10;" d="
			M31.49,156.22c-2.648-4.653-7.171-11.414-10.465-16.218c-5.408,7.604-6.981,18.129,0.94,31.96
			C23.342,166.052,26.713,160.529,31.49,156.22z"/>
		<path style="stroke:#000000;stroke-width:0.75;stroke-linecap:round;stroke-linejoin:round;stroke-miterlimit:10;" d="
			M80.22,338.925l0.135,0.897c7.735,1.371,15.736,2.087,23.801,2.223l0.062-26.987c-8.274-0.178-16.537-0.649-24.763-1.434
			C78.821,322.204,78.944,330.933,80.22,338.925z"/>
		<path style="stroke:#000000;stroke-width:0.75;stroke-linecap:round;stroke-linejoin:round;stroke-miterlimit:10;" d="
			M111.487,315.184c-1.146,0-2.29-0.047-3.436-0.059l0.105,26.976c9.435-0.08,18.92-1.004,28.152-2.779
			c1.123-7.999,1.163-16.654,0.457-25.127C128.362,314.829,119.927,315.184,111.487,315.184z"/>
		<path style="stroke:#000000;stroke-width:0.75;stroke-linecap:round;stroke-linejoin:round;stroke-miterlimit:10;" d="
			M75.984,309.428c1.135-11.318,3.484-22.123,6.247-30.468c-5.613-1.746-12.019-2.647-18.498-2.647
			c-2.109,0-4.216,0.123-6.308,0.308c-3.98,8.882-6.474,18.866-7.379,28.959C58.616,307.206,67.272,308.493,75.984,309.428z"/>
		<path style="stroke:#000000;stroke-width:0.75;stroke-linecap:round;stroke-linejoin:round;stroke-miterlimit:10;" d="
			M93.612,203.642l-0.205-5.211c-5.639,6.543-14.501,10.526-24.065,10.777c1.227,2.302,2.409,4.726,3.552,7.269
			C80.945,215.312,90.345,211.444,93.612,203.642z"/>
		<path style="stroke:#000000;stroke-width:0.75;stroke-linecap:round;stroke-linejoin:round;stroke-miterlimit:10;" d="
			M140.576,313.906c0.687,8.267,0.691,16.709-0.29,24.593c8.786-1.94,17.297-4.65,25.255-8.165
			c1.283-6.648,1.763-13.266,1.446-19.827C158.255,311.988,149.443,313.135,140.576,313.906z"/>
		<path style="stroke:#000000;stroke-width:0.75;stroke-linecap:round;stroke-linejoin:round;stroke-miterlimit:10;" d="
			M97.449,253.318c-1.458-7.432-4.443-22.368-6.715-31.95c-2.878,1.746-4.939,5.255-5.233,9.189c-0.3,4.031,1.031,8.54,3.954,13.398
			C91.742,247.749,94.46,250.924,97.449,253.318z"/>
		<path style="stroke:#000000;stroke-width:0.75;stroke-linecap:round;stroke-linejoin:round;stroke-miterlimit:10;" d="
			M169.793,328.354c2.95-1.446,5.819-3.001,8.581-4.677c7.289-4.423,11.489-10.94,11.647-17.938
			c-6.347,1.569-12.761,2.947-19.23,4.124C171.12,315.984,170.796,322.154,169.793,328.354z"/>
		<path style="stroke:#000000;stroke-width:0.75;stroke-linecap:round;stroke-linejoin:round;stroke-miterlimit:10;" d="
			M45.988,308.686c-8.036-1.612-15.989-3.509-23.824-5.723c0.336,6.222,4.254,12.363,11.487,17.826
			c4.09,3.089,8.584,5.827,13.37,8.249C45.936,322.449,45.609,315.571,45.988,308.686z"/>
		<path style="stroke:#000000;stroke-width:0.75;stroke-linecap:round;stroke-linejoin:round;stroke-miterlimit:10;" d="
			M79.355,233.402c1.705,5.195,3.637,11.048,5.761,16.099c6.338,4.443,12.779,16.887,20.507,16.627l0.021,0.007l-11.188-56.522
			c-4.747,5.994-12.762,9.26-19.993,10.495c1.633,3.924,3.188,8.112,4.669,12.615L79.355,233.402z M81.68,230.273
			c0.47-6.29,4.508-11.807,9.821-13.418l1.244-0.378l9.328,44.205l-2.787-1.531c-5.036-2.766-9.569-7.336-13.113-13.216
			C82.83,240.38,81.32,235.112,81.68,230.273z"/>
		<path style="stroke:#000000;stroke-width:0.75;stroke-linecap:round;stroke-linejoin:round;stroke-miterlimit:10;" d="
			M75.65,313.254c-8.69-0.931-17.321-2.228-25.872-3.839c-0.364,7.362,0.119,14.709,1.508,21.658
			c7.764,3.485,16.223,6.148,25.086,7.984C75.113,330.879,74.999,321.989,75.65,313.254z"/>
		<path style="stroke:#000000;stroke-width:0.75;stroke-linecap:round;stroke-linejoin:round;stroke-miterlimit:10;" d="
			M178.392,287.278c-4.294-2.538-9.046-4.446-14.02-5.74c3.263,8.033,5.301,16.212,6.124,24.488
			c6.452-1.182,12.848-2.567,19.177-4.145C188.526,296.138,184.577,290.935,178.392,287.278z"/>
		<path style="stroke:#000000;stroke-width:0.75;stroke-linecap:round;stroke-linejoin:round;stroke-miterlimit:10;" d="
			M102.051,289.295l-2.549-0.936c-0.801-0.344-1.351-0.576-1.75-0.739l-0.367-0.198c-1.696-1.175-3.474-2.532-4.181-3.073
			l-0.243-0.185c-2.038-1.539-4.465-2.824-7.118-3.91c-2.678,8.108-4.954,18.583-6.055,29.545c8.116,0.776,16.267,1.273,24.43,1.451
			v-21.524c-0.603-0.105-1.242-0.224-1.898-0.354L102.051,289.295z"/>
		<path style="stroke:#000000;stroke-width:0.75;stroke-linecap:round;stroke-linejoin:round;stroke-miterlimit:10;" d="
			M130.465,282.131c-4.163,1.261-8.128,2.954-11.723,5.136l-1.703,0.913c-0.322,0.131-0.646,0.262-0.975,0.387
			c-0.482,0.185-0.992,0.355-1.501,0.524l-0.837,0.264c-1.089,0.219-2.182,0.421-3.288,0.597l-0.814,0.096
			c-0.524,0.01-1.049-0.004-1.574-0.002v21.262c9.463,0.098,18.927-0.204,28.347-0.913
			C135.249,299.895,133.041,289.919,130.465,282.131z"/>
		<path style="stroke:#000000;stroke-width:0.75;stroke-linecap:round;stroke-linejoin:round;stroke-miterlimit:10;" d="
			M159.778,280.533c-8.463-1.523-17.341-1.31-25.605,0.607c2.624,7.996,4.867,18.2,6.034,28.942
			c8.897-0.773,17.74-1.917,26.499-3.412C165.855,297.823,163.543,289.091,159.778,280.533z"/>
		<path style="stroke:#000000;stroke-width:0.75;stroke-linecap:round;stroke-linejoin:round;stroke-miterlimit:10;" d="
			M114.653,215.746l6.968-60.288c0.183-1.596-0.333-3.17-1.456-4.43c-1.317-1.478-3.284-2.326-5.397-2.326h-14.334
			c-2.18,0-4.222,0.869-5.602,2.383c-1.179,1.293-1.742,2.921-1.585,4.579l5.639,60.118l7.561,35.655L114.653,215.746z
			 M107.119,162.472c2.353,0,4.26,12.596,4.26,28.134c0,15.538-1.907,28.134-4.26,28.134c-2.353,0-4.26-12.596-4.26-28.134
			C102.859,175.068,104.766,162.472,107.119,162.472z"/>
	</g>
</g>
<g id="Layer_1">
</g>
</svg>
