<?xml version="1.0" encoding="iso-8859-1"?>
<!-- Generator: Adobe Illustrator 23.0.6, SVG Export Plug-In . SVG Version: 6.00 Build 0)  -->
<svg version="1.1" xmlns="http://www.w3.org/2000/svg" xmlns:xlink="http://www.w3.org/1999/xlink" x="0px" y="0px"
	 viewBox="0 0 269.798 430.75" style="enable-background:new 0 0 269.798 430.75;" xml:space="preserve">
<g id="tiki-mask-silhouette-clip-art-9">
	<g>
		<path style="stroke:#000000;stroke-width:0.75;stroke-linecap:round;stroke-linejoin:round;stroke-miterlimit:10;" d="
			M214.611,135.373l0.267,24.135c6.844,0.873,13.798,1.047,20.711,0.409c-1.444-7.972-3.231-15.97-5.324-23.832
			c-1.656,0.156-3.349,0.253-5.091,0.253C221.787,136.337,218.235,135.979,214.611,135.373z"/>
		<path style="stroke:#000000;stroke-width:0.75;stroke-linecap:round;stroke-linejoin:round;stroke-miterlimit:10;" d="
			M33.784,134.766c-9.535-2.439-16.289-7.691-19.116-15.053C8.4,103.387,23.443,82.934,48.916,73.153
			c25.477-9.782,50.34-4.648,56.608,11.675c6.268,16.33-8.776,36.779-34.25,46.557c-2.458,0.943-4.933,1.711-7.408,2.385
			l-0.273,24.568c20.435-4.438,42.609-17.623,56.314-33.599c0.333-2.874,0.63-5.788,0.926-8.784
			c0.839-8.496,1.727-17.147,3.727-25.882c-9.285-15.344-24.934-28.76-40.276-34.353c-16.024-5.848-34.388-7.272-48.765-4.048
			c-11.367,3.274-22.56,7.132-33.533,11.544c-3.849,24.089-0.407,56.643,6.122,89.955c6.519,2.636,13.32,4.637,20.285,5.807
			C29.856,150.86,31.673,142.736,33.784,134.766z"/>
		<path style="stroke:#000000;stroke-width:0.75;stroke-linecap:round;stroke-linejoin:round;stroke-miterlimit:10;" d="
			M184.424,48.899c6.229-2.273,12.809-3.847,19.411-4.863c-8.722-1.659-17.506-2.997-26.331-4.01
			c-13.509,3.148-27.5,13.53-38.705,28.541c0.196,0.373,4.051,8.732,5.226,12.232C154.312,66.467,169.498,54.342,184.424,48.899z"/>
		<path style="stroke:#000000;stroke-width:0.75;stroke-linecap:round;stroke-linejoin:round;stroke-miterlimit:10;" d="
			M106.582,165.307c-5.359,3.286-9.987,6.126-10.932,10.877c-1.007,5.056,3.338,10.26,8.117,12.366
			c1.699,0.751,4.989,1.288,8.966,1.658c14.94-1.715,29.881-1.687,44.796,0.086c4.4-0.37,8.07-0.934,9.902-1.744
			c4.779-2.106,9.122-7.31,8.119-12.366c-0.947-4.751-5.573-7.59-10.934-10.877c-3.765-2.312-7.658-4.698-10.689-8.073
			c-4.999-5.566-6.743-12.88-8.101-19.893c-1.315-6.797-2.014-13.848-2.687-20.666c-1.223-12.402-2.548-25.14-7.54-37.703
			c-4.991,12.561-6.315,25.298-7.539,37.699c-0.674,6.818-1.372,13.869-2.687,20.669c-1.36,7.016-3.104,14.33-8.099,19.893
			C114.244,160.609,110.349,162.995,106.582,165.307z"/>
		<path style="stroke:#000000;stroke-width:0.75;stroke-linecap:round;stroke-linejoin:round;stroke-miterlimit:10;" d="
			M67.452,44.049c6.572,1.017,13.121,2.587,19.321,4.85c14.926,5.443,30.111,17.568,40.401,31.9
			c1.175-3.5,4.658-11.113,4.658-11.113c0.188-0.373,0.373-0.746,0.568-1.119c-11.189-14.988-25.154-25.359-38.642-28.523
			C84.942,41.06,76.165,42.389,67.452,44.049z"/>
		<path style="stroke:#000000;stroke-width:0.75;stroke-linecap:round;stroke-linejoin:round;stroke-miterlimit:10;" d="
			M84.699,92.826c-1.415-3.687-5.217-6.275-10.707-7.289c-1.656-0.305-3.402-0.457-5.206-0.457c-4.524,0-9.416,0.95-14.218,2.794
			c-6.717,2.577-12.396,6.577-15.997,11.264c-3.4,4.425-4.492,8.895-3.077,12.579c1.415,3.687,5.217,6.275,10.707,7.289
			c5.809,1.074,12.707,0.241,19.425-2.336C79.189,111.46,87.746,100.764,84.699,92.826z"/>
		<path style="stroke:#000000;stroke-width:0.75;stroke-linecap:round;stroke-linejoin:round;stroke-miterlimit:10;" d="
			M135.599,60.837c7.823-9.661,16.796-17.277,26.076-22.299c-17.336-1.23-34.762-1.207-52.097,0.03
			C118.839,43.59,127.792,51.195,135.599,60.837z"/>
		<path style="stroke:#000000;stroke-width:0.75;stroke-linecap:round;stroke-linejoin:round;stroke-miterlimit:10;" d="
			M249.754,117.111c4.648-12.107-9.126-29.135-30.075-37.18c-7.686-2.95-15.461-4.357-22.456-4.357
			c-12.079,0-21.829,4.19-24.771,11.856c-4.648,12.111,9.126,29.135,30.075,37.176C223.483,132.654,245.106,129.215,249.754,117.111
			z M239.096,113.016v0.003c-2.51,6.531-9.938,10.111-19.173,10.111c-4.868,0-10.235-0.993-15.653-3.074
			c-7.332-2.815-13.571-7.233-17.571-12.441c-4.201-5.467-5.474-11.182-3.588-16.096c1.886-4.91,6.655-8.303,13.433-9.555
			c6.456-1.188,14.05-0.301,21.389,2.517c7.332,2.815,13.571,7.232,17.574,12.441C239.706,102.391,240.982,108.106,239.096,113.016z
			"/>
		<path style="stroke:#000000;stroke-width:0.75;stroke-linecap:round;stroke-linejoin:round;stroke-miterlimit:10;" d="
			M267.675,62.543c-9.443-3.74-19.042-7.08-28.776-9.981c-14.783-4.26-34.716-3.141-51.987,3.159
			c-15.344,5.597-30.992,19.009-40.275,34.354c2,8.735,2.889,17.387,3.73,25.885c0.294,2.995,0.59,5.907,0.922,8.78
			c13.708,15.975,35.881,29.16,56.314,33.598l-0.271-24.551c-2.455-0.674-4.925-1.448-7.408-2.402
			c-25.473-9.778-40.516-30.227-34.251-46.557c6.268-16.33,31.139-21.453,56.608-11.675c25.473,9.782,40.516,30.235,34.251,46.561
			c-2.923,7.609-9.932,12.728-19.11,15.096c2.111,7.976,3.926,16.083,5.378,24.166c6.458-1.085,12.775-2.885,18.862-5.232
			C268.285,119.914,271.745,86.832,267.675,62.543z"/>
		<path style="stroke:#000000;stroke-width:0.75;stroke-linecap:round;stroke-linejoin:round;stroke-miterlimit:10;" d="
			M216.633,87.873c-4.804-1.843-9.7-2.794-14.22-2.794c-1.805,0-3.549,0.153-5.208,0.457c-5.488,1.014-9.289,3.602-10.703,7.286
			c-1.415,3.687-0.323,8.154,3.077,12.582c3.598,4.683,9.278,8.686,15.997,11.264c13.557,5.212,27.086,2.985,30.132-4.953
			c1.415-3.683,0.323-8.154-3.077-12.579C229.028,94.449,223.348,90.45,216.633,87.873z"/>
		<path style="stroke:#000000;stroke-width:0.75;stroke-linecap:round;stroke-linejoin:round;stroke-miterlimit:10;" d="
			M195.234,14.247c4.771,0,9.059-2.025,12.116-5.234C163.515-2.703,103.65-2.495,60.343,9.599c3.011,2.862,7.056,4.648,11.529,4.648
			H195.234z"/>
		<path style="stroke:#000000;stroke-width:0.75;stroke-linecap:round;stroke-linejoin:round;stroke-miterlimit:10;" d="
			M228.428,192.098c0,3.634,2.957,6.591,6.591,6.591h16.306c1.132-4.349,2.24-8.75,3.32-13.182h-19.627
			C231.385,185.508,228.428,188.464,228.428,192.098z"/>
		<path style="stroke:#000000;stroke-width:0.75;stroke-linecap:round;stroke-linejoin:round;stroke-miterlimit:10;" d="
			M53.55,343.038c9.193,12.5,22.286,31.283,31.601,48.736l36.181,23.175c-0.759-15.054-6.174-49.078-14.923-70.048
			C87.805,350.48,69.548,349.689,53.55,343.038z"/>
		<path style="stroke:#000000;stroke-width:0.75;stroke-linecap:round;stroke-linejoin:round;stroke-miterlimit:10;" d="
			M26.679,46.651c2.195-0.789,4.53-1.439,6.951-1.988c67.439-19.396,140.662-19.04,207.877,1.105
			c1.002,0.298,2.057,0.54,3.014,0.883l-0.01,0.028c7.196,2.226,14.315,4.696,21.356,7.371c-2.113-7.79-5.237-14.354-9.567-19.331
			c-9.32-10.712-25.435-18.887-45.091-24.59c-3.741,4.712-9.506,7.748-15.975,7.748H71.872c-6.185,0-11.725-2.777-15.471-7.137
			c-18.687,5.671-33.965,13.649-42.942,23.978c-4.45,5.12-7.608,11.932-9.715,20.011c7.565-2.917,15.219-5.598,22.965-7.996
			L26.679,46.651z"/>
		<path style="stroke:#000000;stroke-width:0.75;stroke-linecap:round;stroke-linejoin:round;stroke-miterlimit:10;" d="
			M35.609,159.918c6.913,0.637,13.866,0.463,20.709-0.41l0.269-24.169c-3.53,0.581-7.027,0.942-10.408,0.942
			c-1.777,0-3.516-0.097-5.227-0.261C38.853,143.88,37.061,151.904,35.609,159.918z"/>
		<path style="stroke:#000000;stroke-width:0.75;stroke-linecap:round;stroke-linejoin:round;stroke-miterlimit:10;" d="
			M98.746,87.43c-2.943-7.665-12.696-11.856-24.77-11.856c-6.997,0-14.772,1.407-22.458,4.357
			c-20.949,8.044-34.721,25.073-30.072,37.18c2.168,5.648,8.051,9.622,16.567,11.193c9.154,1.695,20.045,0.379,30.658-3.698
			C89.622,116.565,103.393,99.541,98.746,87.43z M51.391,123.089c-2.023,0-3.983-0.17-5.85-0.514
			c-6.779-1.251-11.551-4.644-13.437-9.555c-1.886-4.914-0.612-10.629,3.588-16.096c4.001-5.208,10.242-9.626,17.574-12.441
			c7.332-2.819,14.924-3.708,21.385-2.517c6.779,1.252,11.551,4.644,13.437,9.555c3.829,9.977-5.467,22.509-21.162,28.536
			C61.713,122.06,56.366,123.089,51.391,123.089z"/>
		<path style="stroke:#000000;stroke-width:0.75;stroke-linecap:round;stroke-linejoin:round;stroke-miterlimit:10;" d="
			M140.77,337.642c-0.043-0.011-3.499-0.124-5.162-0.099c-1.918-0.043-3.783-0.021-5.623,0.064
			c-0.901,0.195-9.365,2.794-10.594,3.229c7.307,28.877,12.673,80.044,15.488,89.539c2.799-9.44,8.119-60.075,15.361-89.042
			C147.64,340.476,144.958,339.217,140.77,337.642z"/>
		<path style="stroke:#000000;stroke-width:0.75;stroke-linecap:round;stroke-linejoin:round;stroke-miterlimit:10;" d="
			M46.399,192.098c0,5.637-4.584,10.221-10.219,10.221H19.574c2.066,7.772,4.187,15.372,6.309,22.673
			c5.553-6.509,12.128-11.751,19.514-15.207c17.09-7.997,34.233-13.614,51.389-17.009c-5.507-4.031-9.7-10.766-8.259-18.012
			c1.565-7.864,8.308-11.997,14.258-15.649c3.478-2.131,6.761-4.145,9.085-6.733c3.52-3.92,4.968-9.408,6.134-15.235
			c-15.361,14.294-36.586,25.458-55.941,28.917c-5.768,1.032-11.65,1.539-17.546,1.539c-11.773,0-23.587-2.062-34.694-5.968
			c1.423,6.767,2.96,13.532,4.572,20.241h21.784C41.815,181.877,46.399,186.461,46.399,192.098z"/>
		<path style="stroke:#000000;stroke-width:0.75;stroke-linecap:round;stroke-linejoin:round;stroke-miterlimit:10;" d="
			M42.768,192.098c0-3.634-2.955-6.591-6.589-6.591H15.276c1.086,4.432,2.2,8.832,3.338,13.182h17.565
			C39.813,198.689,42.768,195.733,42.768,192.098z"/>
		<path style="stroke:#000000;stroke-width:0.75;stroke-linecap:round;stroke-linejoin:round;stroke-miterlimit:10;" d="
			M209.135,166.065c-19.354-3.459-40.58-14.624-55.944-28.918c1.169,5.825,2.617,11.313,6.139,15.236
			c2.322,2.588,5.609,4.602,9.083,6.733c5.949,3.652,12.692,7.785,14.256,15.649c1.475,7.411-2.942,14.292-8.635,18.285
			c16.857,3.465,33.671,9.082,50.399,17.016c7.632,3.62,14.226,8.661,19.658,14.927c2.112-7.301,4.223-14.902,6.279-22.674h-15.35
			c-5.637,0-10.221-4.584-10.221-10.221c0-5.637,4.584-10.221,10.221-10.221h20.502c1.562-6.537,3.056-13.128,4.44-19.72
			c-10.691,3.586-22.011,5.447-33.281,5.447C220.785,167.604,214.903,167.097,209.135,166.065z"/>
		<path style="stroke:#000000;stroke-width:0.75;stroke-linecap:round;stroke-linejoin:round;stroke-miterlimit:10;" d="
			M162.791,344.871c-8.756,20.968-14.176,55.018-14.935,70.078l36.181-23.175c8.937-16.744,21.339-34.691,30.454-47.165
			c-8.194,2.808-16.882,4.158-25.619,4.158C180.048,348.767,171.211,347.374,162.791,344.871z"/>
		<path style="stroke:#000000;stroke-width:0.75;stroke-linecap:round;stroke-linejoin:round;stroke-miterlimit:10;" d="
			M219.767,219.908c-56.133-26.622-113.243-26.707-169.754-0.259c-13.183,6.169-23.502,19.29-28.309,35.996
			c-5.206,18.092-3.04,37.701,5.653,51.184c0.59,0.915,1.227,1.757,1.849,2.624c0.072,0.233,0.159,0.454,0.238,0.649
			c0.213,0.532,0.551,1.379,0.991,2.652c10.152,29.423,46.451,25.97,78.481,22.931c9.283-0.883,18.053-1.716,26.002-1.801
			c7.984,0.085,16.755,0.918,26.037,1.801c10.086,0.957,20.591,1.957,30.575,1.957c21.719,0,40.952-4.73,47.908-24.888
			c0.228-0.66,0.425-1.195,0.594-1.64c0.739-1.186,1.508-2.333,2.182-3.607c8.729-16.521,10.423-37.999,4.424-56.045
			C243.251,241.272,235.838,227.531,219.767,219.908z M161.298,332.068c-9.363-0.886-18.205-1.727-26.381-1.815
			c-8.14,0.089-16.984,0.929-26.344,1.819c-31.906,3.024-64.897,6.165-74.457-19.801c0.994,0.287,3.559,0.553,3.559,0.553
			c36.155,3.95,67.712-10.189,100.581-9.493c33.72,0.715,62.443,11.859,96.379,10.874c0.094-0.003,0.161-0.025,0.253-0.029
			C224.395,337.991,192.373,335.023,161.298,332.068z"/>
	</g>
</g>
<g id="Layer_1">
</g>
</svg>
