<?xml version="1.0" encoding="iso-8859-1"?>
<!-- Generator: Adobe Illustrator 23.0.6, SVG Export Plug-In . SVG Version: 6.00 Build 0)  -->
<svg version="1.1" xmlns="http://www.w3.org/2000/svg" xmlns:xlink="http://www.w3.org/1999/xlink" x="0px" y="0px"
	 viewBox="0 0 285.751 430.75" style="enable-background:new 0 0 285.751 430.75;" xml:space="preserve">
<g id="tiki-mask-silhouette-clip-art-6">
	<g>
		<path style="stroke:#000000;stroke-width:0.75;stroke-linecap:round;stroke-linejoin:round;stroke-miterlimit:10;" d="
			M141.31,405.443c0,0-19.771,9.161-55.092,13.611c0,0,25.181,11.321,53.37,11.321l3.46-0.003c28.189,0,53.37-11.321,53.37-11.321
			c-35.321-4.45-55.092-13.611-55.092-13.611L141.31,405.443z"/>
		<path style="stroke:#000000;stroke-width:0.75;stroke-linecap:round;stroke-linejoin:round;stroke-miterlimit:10;" d="
			M225.065,134.737l-4.432-0.624l0.286-2.637c-1.676,0.031-3.347,0.133-5.011,0.307l0.38,3.128l-4.423,0.699l-0.388-3.193
			c-1.558,0.282-3.106,0.627-4.642,1.033l0.96,2.823l-4.164,1.841l-1.137-3.342c-1.704,0.589-3.388,1.255-5.048,1.996l1.385,3.095
			l-3.978,2.314l-1.517-3.389c-1.23,0.66-2.445,1.359-3.64,2.105l1.855,3.022l-3.658,2.92l-2.05-3.338
			c-1.453,1.057-2.875,2.178-4.259,3.367l2.298,3.074l-3.399,3.303l-2.374-3.175c-5.528,5.446-10.366,12.018-14.225,19.639
			c32.074,21.114,73.086,8.584,91.604-27.986v0c-9.513-6.263-19.814-9.565-30.08-10.158L225.065,134.737z M180.083,165.487
			L180.083,165.487c12.937-25.55,41.591-34.304,63.999-19.553C231.145,171.484,202.491,180.238,180.083,165.487z"/>
		<path style="stroke:#000000;stroke-width:0.75;stroke-linecap:round;stroke-linejoin:round;stroke-miterlimit:10;" d="
			M253.777,158.473c-17.122,31.676-65.065,27.396-89.892,21.403c0,0,21.403,64.209,97.597,51.367
			C252.921,203.847,253.777,157.617,253.777,158.473z"/>
		<path style="stroke:#000000;stroke-width:0.75;stroke-linecap:round;stroke-linejoin:round;stroke-miterlimit:10;" d="
			M141.326,149.989h-19.96c12.915,24.827,0,97.597,0,97.597l19.96,14.554l19.96-14.554c0,0-12.915-72.77,0-97.597H141.326z"/>
		<path style="stroke:#000000;stroke-width:0.75;stroke-linecap:round;stroke-linejoin:round;stroke-miterlimit:10;" d="
			M163.885,200.423v44.518l32.532-14.554C196.418,230.387,174.012,195.982,163.885,200.423z"/>
		<path style="stroke:#000000;stroke-width:0.75;stroke-linecap:round;stroke-linejoin:round;stroke-miterlimit:10;" d="
			M251.209,121.66V77.998l-61.64,5.137c0,0-33.828,51.188-22.259,63.352C204.979,111.387,251.209,121.66,251.209,121.66z"/>
		<path style="stroke:#000000;stroke-width:0.75;stroke-linecap:round;stroke-linejoin:round;stroke-miterlimit:10;" d="
			M268.245,276.402c5.665-5.905-9.126-31.434-9.126-31.434l-43.602-10.14l-36.504,24.336
			C179.014,259.164,242.895,244.968,268.245,276.402z"/>
		<path style="stroke:#000000;stroke-width:0.75;stroke-linecap:round;stroke-linejoin:round;stroke-miterlimit:10;" d="
			M114.314,88.096l27.012,50.021l27.012-50.021c7.617-14.106,21.121-24.087,36.842-27.232l46.163-9.233V37.943h-78.159
			c-9.037,0-17.375,4.86-21.829,12.722l-10.026,17.698l-10.03-17.7c-4.455-7.861-12.792-12.72-21.828-12.72H31.309v13.689
			l46.163,9.233C93.193,64.009,106.697,73.99,114.314,88.096z"/>
		<path style="stroke:#000000;stroke-width:0.75;stroke-linecap:round;stroke-linejoin:round;stroke-miterlimit:10;" d="
			M86.324,27.753h25.303c8.966,0,17.251,4.785,21.732,12.552l7.965,13.805h0.004l7.965-13.805
			c4.481-7.767,12.766-12.552,21.732-12.552h25.303c7.543,0,14.685-3.393,19.45-9.241l14.778-18.137h-89.232H52.096l14.778,18.137
			C71.639,24.359,78.782,27.753,86.324,27.753z"/>
		<path style="stroke:#000000;stroke-width:0.75;stroke-linecap:round;stroke-linejoin:round;stroke-miterlimit:10;" d="
			M118.766,169.704c-3.859-7.621-8.697-14.193-14.225-19.639l-2.373,3.175l-3.399-3.303l2.298-3.074
			c-1.385-1.189-2.807-2.31-4.259-3.367l-2.05,3.338l-3.658-2.92l1.855-3.022c-1.195-0.746-2.411-1.445-3.64-2.105l-1.517,3.389
			l-3.978-2.314l1.385-3.095c-1.66-0.742-3.344-1.407-5.048-1.996l-1.137,3.342l-4.164-1.841l0.96-2.823
			c-1.536-0.406-3.084-0.75-4.642-1.033l-0.388,3.193l-4.423-0.699l0.38-3.128c-1.664-0.174-3.336-0.275-5.011-0.307l0.286,2.637
			l-4.432,0.624l-0.344-3.178c-10.266,0.593-20.567,3.896-30.08,10.158v0C45.68,178.287,86.693,190.817,118.766,169.704z
			 M102.569,165.486L102.569,165.486c-22.408,14.751-51.062,5.997-63.999-19.552C60.978,131.183,89.632,139.937,102.569,165.486z"/>
		<path style="stroke:#000000;stroke-width:0.75;stroke-linecap:round;stroke-linejoin:round;stroke-miterlimit:10;" d="
			M118.766,179.876c-24.827,5.993-72.77,10.273-89.892-21.403c0-0.856,0.856,45.374-7.705,72.77
			C97.363,244.084,118.766,179.876,118.766,179.876z"/>
		<path style="stroke:#000000;stroke-width:0.75;stroke-linecap:round;stroke-linejoin:round;stroke-miterlimit:10;" d="
			M86.234,230.387l32.532,14.554v-44.518C108.64,195.982,86.234,230.387,86.234,230.387z"/>
		<path style="stroke:#000000;stroke-width:0.75;stroke-linecap:round;stroke-linejoin:round;stroke-miterlimit:10;" d="
			M31.443,77.998v43.662c0,0,46.23-10.273,83.899,24.827c11.569-12.165-22.259-63.352-22.259-63.352L31.443,77.998z"/>
		<path style="stroke:#000000;stroke-width:0.75;stroke-linecap:round;stroke-linejoin:round;stroke-miterlimit:10;" d="
			M103.638,259.164l-36.504-24.336l-43.602,10.14c0,0-14.791,25.529-9.126,31.434C39.756,244.968,103.638,259.164,103.638,259.164z"
			/>
		<path style="stroke:#000000;stroke-width:0.75;stroke-linecap:round;stroke-linejoin:round;stroke-miterlimit:10;" d="
			M273.516,289.539l-0.001,0c-11.411-13.522-28.669-22.896-48.614-26.411c-12.697-2.55-25.693,0.276-40.726,3.545
			c-11.881,2.584-25.324,5.507-41.299,6.401c-15.975-0.894-29.417-3.817-41.299-6.401c-15.034-3.269-28.028-6.094-40.725-3.545
			c-19.946,3.515-37.204,12.889-48.615,26.412C0.849,303.036-2.753,323.407,3.24,340.31c2.713,8.557,7.838,16.109,15.241,22.46
			c10.433,10.598,53.217,32.29,123.408,34.611l0.001,0.066h1.972l0.001-0.066c70.191-2.321,112.975-24.015,123.409-34.613
			c7.403-6.35,12.528-13.902,15.238-22.459C288.504,323.407,284.904,303.036,273.516,289.539z M38.239,347.094l-0.527-0.622
			l-0.829-0.693c-4.234-3.534-6.995-7.514-8.443-12.165l-0.156-0.465c-1.649-4.576-2.026-9.783-1.295-14.777
			c14.945,3.976,30.119,7.146,45.431,9.508c0.44,9.717,2.081,19.403,4.975,28.857C61.919,357.945,52.376,357.175,38.239,347.094z
			 M72.292,320.598c-14.645-2.31-29.167-5.369-43.485-9.186c1.065-2.753,2.496-5.289,4.287-7.413
			c7.639-9.052,19.02-15.115,32.915-17.533l0.435-0.083c3.218-0.665,7.124-0.528,11.657,0.081
			C74.452,297.598,72.497,309.082,72.292,320.598z M85.885,287.797c2.991,0.592,6.178,1.283,9.567,2.02
			c11.531,2.508,25.7,5.557,42.483,6.772c0.179,9.773,0.358,19.547,0.536,29.32c-19.49-0.081-38.973-1.459-58.271-4.138
			C80.296,310.33,82.198,298.91,85.885,287.797z M85.378,356.033c-2.807-8.874-4.463-17.919-4.993-26.995
			c19.278,2.615,38.744,3.952,58.217,4.026c0.127,6.964,0.255,13.928,0.382,20.891C114.614,353.258,98.034,354.848,85.378,356.033z
			 M145.815,296.727c17.665-1.107,32.499-4.302,44.486-6.909c1.527-0.332,3.013-0.655,4.46-0.965
			c6.891,9.751,11.764,20.465,14.469,31.602c-20.783,3.321-41.82,5.126-62.882,5.416
			C146.17,316.156,145.992,306.441,145.815,296.727z M210.363,356.6c-14.992-0.883-34.936-3.299-63.503-2.746
			c-0.127-6.943-0.254-13.887-0.381-20.83c21.498-0.296,42.969-2.137,64.167-5.528C212.169,337.089,212.102,346.901,210.363,356.6z
			 M202.938,287.214c6.591-1.187,12.085-1.714,16.37-0.829l0.435,0.083c13.895,2.418,25.278,8.481,32.915,17.533
			c1.518,1.799,2.782,3.894,3.782,6.165c-12.992,3.617-26.163,6.606-39.449,8.979C214.318,307.925,209.605,297.103,202.938,287.214z
			 M257.467,333.15l-0.156,0.466c-1.446,4.65-4.207,8.628-8.442,12.164l-0.828,0.693l-0.527,0.622
			c-7.957,7.965-16.683,9.952-29.246,9.809c1.725-10.214,1.744-20.578,0.12-30.717c13.531-2.414,26.937-5.457,40.153-9.139
			C259.553,322.438,259.264,328.167,257.467,333.15z"/>
		<path style="stroke:#000000;stroke-width:0.75;stroke-linecap:round;stroke-linejoin:round;stroke-miterlimit:10;" d="
			M155.013,401.802c0,0,26.398,12.09,53.066,9.292c24.582-3.141,41.236-17.786,47.151-35.991
			C208.924,410.44,155.013,401.802,155.013,401.802z"/>
		<path style="stroke:#000000;stroke-width:0.75;stroke-linecap:round;stroke-linejoin:round;stroke-miterlimit:10;" d="
			M27.406,375.106c5.915,18.206,22.569,32.85,47.151,35.991c26.668,2.798,53.066-9.292,53.066-9.292S73.712,410.443,27.406,375.106z
			"/>
	</g>
</g>
<g id="Layer_1">
</g>
</svg>
