<?xml version="1.0" encoding="iso-8859-1"?>
<!-- Generator: Adobe Illustrator 23.0.6, SVG Export Plug-In . SVG Version: 6.00 Build 0)  -->
<svg version="1.1" xmlns="http://www.w3.org/2000/svg" xmlns:xlink="http://www.w3.org/1999/xlink" x="0px" y="0px"
	 viewBox="0 0 280.077 430.75" style="enable-background:new 0 0 280.077 430.75;" xml:space="preserve">
<g id="tiki-mask-silhouette-clip-art-2">
	<g>
		<path style="stroke:#000000;stroke-width:0.75;stroke-linecap:round;stroke-linejoin:round;stroke-miterlimit:10;" d="
			M47.425,154.675c-5.563,7.056-11.604,14.987-13.998,23.848c-2.101,7.779-0.994,18.556,6.403,23.841
			c7.795,5.565,19.059,2.729,25.083,0.543c19.857-7.212,34.801-24.433,41.406-46.692c0.625-3.152,1.239-6.309,1.84-9.461
			c-8.804,8.584-21.586,14.03-35.836,14.03C63.201,160.783,54.697,158.524,47.425,154.675z"/>
		<path style="stroke:#000000;stroke-width:0.75;stroke-linecap:round;stroke-linejoin:round;stroke-miterlimit:10;" d="
			M72.323,153.421c19.251,0,35.384-11.363,39.578-26.553c0.308-1.638,0.614-3.247,0.917-4.836c0.099-0.974,0.177-1.954,0.177-2.949
			c0-18.93-18.245-34.334-40.672-34.334c-22.426,0-40.669,15.404-40.669,34.334C31.653,138.017,49.897,153.421,72.323,153.421z
			 M72.323,103.055c15.481,0,28.03,6.02,28.03,13.445s-12.549,13.445-28.03,13.445c-15.481,0-28.03-6.02-28.03-13.445
			S56.843,103.055,72.323,103.055z"/>
		<path style="stroke:#000000;stroke-width:0.75;stroke-linecap:round;stroke-linejoin:round;stroke-miterlimit:10;" d="
			M202.945,59.482c-17.806,4.229-31.041,22.481-37.208,37.258c0.447,2.005,0.894,4.065,1.343,6.202
			c7.282-14.998,24.387-25.554,44.282-25.554c10.509,0,20.208,2.978,28.125,7.966c-0.036-0.7-0.043-1.42-0.094-2.11
			c-0.723-9.712-6.502-18.481-7.068-26.459C222.42,56.619,212.547,57.205,202.945,59.482z"/>
		<path style="stroke:#000000;stroke-width:0.75;stroke-linecap:round;stroke-linejoin:round;stroke-miterlimit:10;" d="
			M98.462,228.045c-3.185,5.13-6.203,9.997-7.19,15.285c4.946,3.58,31.517,8.096,41.768,9.835c0.816,0.139,1.589,0.271,2.337,0.399
			h12.929c0.748-0.128,1.52-0.26,2.337-0.399c10.252-1.74,36.825-6.255,41.77-9.835c-0.987-5.291-4.006-10.159-7.193-15.292
			l-0.766-1.237c-11.807-19.117-18.783-56.467-25.528-92.584c-4.767-25.529-10.508-56.19-17.082-67.486
			c-6.574,11.296-12.316,41.958-17.083,67.49c-6.746,36.117-13.72,73.463-25.528,92.58L98.462,228.045z"/>
		<path style="stroke:#000000;stroke-width:0.75;stroke-linecap:round;stroke-linejoin:round;stroke-miterlimit:10;" d="
			M170.692,119.084c0,0.998,0.078,1.98,0.177,2.957c0.301,1.583,0.606,3.185,0.914,4.818c4.189,15.195,20.323,26.563,39.578,26.563
			c22.426,0,40.671-15.404,40.671-34.338c0-18.93-18.246-34.334-40.671-34.334C188.936,84.75,170.692,100.154,170.692,119.084z
			 M239.393,116.5c0,7.426-12.55,13.445-28.03,13.445c-15.481,0-28.03-6.02-28.03-13.445s12.55-13.445,28.03-13.445
			C226.843,103.055,239.393,109.075,239.393,116.5z"/>
		<path style="stroke:#000000;stroke-width:0.75;stroke-linecap:round;stroke-linejoin:round;stroke-miterlimit:10;" d="
			M116.606,102.941c0.449-2.135,0.896-4.195,1.343-6.199c-6.165-14.778-19.4-33.031-37.207-37.259
			c-11.069-2.625-22.498-3.021-33.924-2.58c-0.614,7.947-6.337,16.677-7.056,26.342c-0.134,1.799-0.215,3.633-0.267,5.486
			c8.598-7.011,20.129-11.342,32.828-11.342C92.219,77.388,109.324,87.943,116.606,102.941z"/>
		<path style="stroke:#000000;stroke-width:0.75;stroke-linecap:round;stroke-linejoin:round;stroke-miterlimit:10;" d="
			M257.365,176.604c2.836,10.497,1.082,24.383-9.23,31.749c-4.285,3.063-9.631,4.605-15.686,4.605
			c-4.979,0-10.439-1.043-16.193-3.135c-12.989-4.717-24.052-13.263-32.467-24.454c3.874,15.405,8.312,28.879,13.677,37.565h0.002
			l0.76,1.229c3.649,5.878,7.421,11.96,8.394,19.21c0.558,4.155-2.845,7.08-14.08,10.191h19.375c1.873,0,3.731,0.036,5.574,0.111
			c12.375,0.504,23.953,2.782,34.097,6.495c12.318-11.637,20.271-29.369,20.271-49.367c0-21.685-9.301-40.758-23.447-52.202
			C252.191,164.028,255.569,169.956,257.365,176.604z"/>
		<path style="stroke:#000000;stroke-width:0.75;stroke-linecap:round;stroke-linejoin:round;stroke-miterlimit:10;" d="
			M141.443,56.068c0.025,0.013,0.051,0.025,0.076,0.038c10.106-20.659,29.163-39.146,51.179-50.428
			c-16.243-3.554-34.688-5.323-53.121-5.302h0c-2.466-0.003-4.933,0.026-7.394,0.088c-7.385,0.184-14.723,0.656-21.872,1.415
			c-4.767,0.507-9.449,1.141-14.005,1.903c-2.283,0.382-4.507,0.82-6.72,1.266C111.776,16.206,131.141,34.972,141.443,56.068z"/>
		<path style="stroke:#000000;stroke-width:0.75;stroke-linecap:round;stroke-linejoin:round;stroke-miterlimit:10;" d="
			M82.442,52.321c17.072,4.054,30.312,18.838,38.217,33.141c4.469-17.114,9.249-27.557,16.012-29.985l0.313-0.112
			C126.09,34.607,106.172,16.41,83.776,6.332c-17.335,4.073-31.981,10.209-41.015,18.486c0.37,6.705,3.232,14.071,3.976,24.712
			C58.632,49.075,70.614,49.509,82.442,52.321z"/>
		<path style="stroke:#000000;stroke-width:0.75;stroke-linecap:round;stroke-linejoin:round;stroke-miterlimit:10;" d="
			M62.586,253.676c1.842-0.075,3.701-0.111,5.574-0.111h22.982c-11.235-3.111-14.637-6.036-14.08-10.191
			c0.974-7.258,4.752-13.344,8.405-19.225l0.753-1.215c5.364-8.685,9.802-22.158,13.675-37.562
			c-8.415,11.191-19.478,19.737-32.469,24.455c-5.75,2.089-11.212,3.131-16.191,3.131c-6.057,0-11.399-1.542-15.686-4.605
			c-10.312-7.366-12.066-21.252-9.23-31.749c2.457-9.093,7.859-16.855,13.228-23.799c-18.98,9.87-32.253,32.078-32.253,57.999
			c0,20.142,8.064,37.99,20.535,49.621C38.133,256.565,49.94,254.191,62.586,253.676z"/>
		<path style="stroke:#000000;stroke-width:0.75;stroke-linecap:round;stroke-linejoin:round;stroke-miterlimit:10;" d="
			M146.058,55.262h0.353l0.602,0.216c6.757,2.426,11.535,12.852,16.001,29.94c7.994-14.625,21.08-29.026,38.23-33.097
			c10.333-2.455,20.78-3.078,31.182-2.901c0.755-10.581,3.598-17.922,3.967-24.603c-4.459-4.085-10.273-7.658-17.103-10.718
			c-6.236-2.795-13.327-5.156-20.998-7.097C176.201,17.241,156.737,35.07,146.058,55.262z"/>
		<path style="stroke:#000000;stroke-width:0.75;stroke-linecap:round;stroke-linejoin:round;stroke-miterlimit:10;" d="
			M218.771,202.907c6.023,2.189,17.291,5.033,25.084-0.543c7.396-5.284,8.504-16.061,6.402-23.841
			c-2.396-8.861-8.436-16.792-13.997-23.848c-7.272,3.849-15.777,6.108-24.898,6.108c-14.25,0-27.032-5.446-35.836-14.031
			c0.601,3.151,1.216,6.308,1.84,9.46C183.972,178.472,198.916,195.695,218.771,202.907z"/>
		<path style="stroke:#000000;stroke-width:0.75;stroke-linecap:round;stroke-linejoin:round;stroke-miterlimit:10;" d="
			M263.78,347.01c-14.428,13.277-32.244,24.205-51.862,24.205H68.16c-19.977,0-38.099-11.32-52.663-24.926
			c-0.592,3.473-1.062,6.188-1.382,8.023c-0.32,1.837-0.498,3.7-0.428,5.563c1.481,39.187,33.716,70.5,73.265,70.5h0.924h103.402
			h0.924c39.228,0,71.26-30.807,73.223-69.546c0.126-2.489-0.115-4.96-0.542-7.415C264.599,351.782,264.227,349.629,263.78,347.01z"
			/>
		<path style="stroke:#000000;stroke-width:0.75;stroke-linecap:round;stroke-linejoin:round;stroke-miterlimit:10;" d="
			M277.461,294.121c-6.258-13.667-27.367-28.065-60.419-29.409c-1.695-0.068-3.403-0.104-5.125-0.104H68.16
			c-1.722,0-3.43,0.036-5.125,0.104c-33.052,1.344-54.161,15.742-60.419,29.409c-4.01,8.76-2.621,17.809,4.019,26.163
			c11.836,14.897,35.567,39.888,61.525,39.888h143.757c25.958,0,49.689-24.991,61.525-39.888
			C280.082,311.93,281.471,302.881,277.461,294.121z M223.567,320.105c-1.499,2.117-3.202,4.379-5.066,6.665v-11.326h-24.847v31.282
			c-2.686,1.014-5.453,1.655-8.282,1.848v-33.13h-24.847v33.236h-8.283v-33.236h-24.847v33.236h-8.282v-33.236H94.265v33.103
			c-2.832-0.243-5.598-0.941-8.282-1.998v-31.106H61.135v10.775c-1.689-2.097-3.247-4.167-4.624-6.114
			c-7.78-10.992-5.039-23.258,4.624-32.047v21.865h24.847v-32.967c2.33-0.372,4.717-0.667,7.22-0.781
			c0.351-0.016,0.709-0.014,1.062-0.024v33.772h24.847v-33.822h8.282v33.822h24.847v-33.822h8.283v33.822h24.847V276.14
			c0.501,0.012,1.007,0.012,1.504,0.034c2.342,0.107,4.587,0.367,6.778,0.7v33.048h24.847V287.69
			C228.506,296.502,231.459,308.954,223.567,320.105z"/>
	</g>
</g>
<g id="Layer_1">
</g>
</svg>
