<?xml version="1.0" encoding="iso-8859-1"?>
<!-- Generator: Adobe Illustrator 23.0.6, SVG Export Plug-In . SVG Version: 6.00 Build 0)  -->
<svg version="1.1" xmlns="http://www.w3.org/2000/svg" xmlns:xlink="http://www.w3.org/1999/xlink" x="0px" y="0px"
	 viewBox="0 0 237.228 430.75" style="enable-background:new 0 0 237.228 430.75;" xml:space="preserve">
<g id="tiki-mask-silhouette-clip-art-8">
	<g>
		<path style="stroke:#000000;stroke-width:0.75;stroke-linecap:round;stroke-linejoin:round;stroke-miterlimit:10;" d="
			M120.311,304.994c-58.763,0-106.677,33.876-109.181,76.35c14.44-33.016,57.922-57.065,109.181-57.065
			c51.26,0,94.743,24.05,109.182,57.068C226.99,338.872,179.075,304.994,120.311,304.994z"/>
		<path style="stroke:#000000;stroke-width:0.75;stroke-linecap:round;stroke-linejoin:round;stroke-miterlimit:10;" d="
			M120.311,326.619c-51.656,0-95.229,24.723-108.077,58.212c8.178-2.515,56.781-29.651,108.078-29.651
			c51.294,0,99.895,27.134,108.076,29.651C215.54,351.342,171.967,326.619,120.311,326.619z"/>
		<path style="stroke:#000000;stroke-width:0.75;stroke-linecap:round;stroke-linejoin:round;stroke-miterlimit:10;" d="
			M197.272,282.426c5.361-2.906,10.409-6.471,14.831-10.667c4.398-4.209,8.15-9.119,10.571-14.54
			c-2.339,1.845-4.629,3.585-7.011,5.143c-2.426,1.509-4.814,2.953-7.301,4.214c-4.945,2.554-10.077,4.562-15.277,6.299
			c-5.22,1.692-10.526,3.089-15.893,4.195c-2.674,0.589-5.382,1.02-8.068,1.477c-2.636,0.439-5.515,0.756-7.875,0.988l-15.061,1.48
			l10.901,10.556c2.662,2.577,5.379,5.095,8.24,7.457c2.829,2.398,5.79,4.653,8.845,6.808c3.048,2.162,6.247,4.162,9.576,6.021
			c3.348,1.84,6.801,3.566,10.637,4.879c-1.59-3.731-3.563-7.049-5.642-10.253c-2.097-3.185-4.325-6.229-6.704-9.111
			c-1.878-2.288-3.837-4.489-5.851-6.63c1.432-0.391,2.855-0.81,4.274-1.239C186.261,287.687,191.913,285.352,197.272,282.426z"/>
		<path style="stroke:#000000;stroke-width:0.75;stroke-linecap:round;stroke-linejoin:round;stroke-miterlimit:10;" d="
			M183.894,292.247l42.117,50.95c0,0,10.847-34.181,7.938-82.543C217.283,287.761,183.894,292.247,183.894,292.247z"/>
		<path style="stroke:#000000;stroke-width:0.75;stroke-linecap:round;stroke-linejoin:round;stroke-miterlimit:10;" d="
			M228.493,153.731l-11.052,8.529c-4.16,3.21-8.38,6.36-12.67,9.435c-4.272,3.104-8.625,6.119-13.021,9.116
			c-4.406,2.98-8.855,5.947-13.375,8.869l-13.674,8.901c5.428-0.931,10.762-2.282,16.013-3.909
			c5.24-1.652,10.412-3.558,15.468-5.742c5.066-2.167,10.017-4.607,14.871-7.237c0.111-0.061,0.219-0.13,0.33-0.191
			c-3.751,10.289-10.285,19.614-18.835,26.59c-6.225,5.004-13.597,8.889-21.65,11.325c-8.057,2.469-16.745,3.5-25.849,3.004
			c8.172,4.12,17.786,5.702,27.3,4.952c9.539-0.721,19.052-3.898,27.389-9.262c16.71-10.784,27.536-30.021,28.245-50.008
			L228.493,153.731z"/>
		<path style="stroke:#000000;stroke-width:0.75;stroke-linecap:round;stroke-linejoin:round;stroke-miterlimit:10;" d="
			M163.18,267.335c0.66-0.074,1.308-0.184,1.963-0.272c0-9.572,0-19.144,0-28.717c-0.836-0.062-1.673-0.123-2.499-0.217
			c-4.435-0.55-8.689-1.516-12.685-2.837l-6.296,32.153C150.287,268.073,156.822,268.004,163.18,267.335z"/>
		<path style="stroke:#000000;stroke-width:0.75;stroke-linecap:round;stroke-linejoin:round;stroke-miterlimit:10;" d="
			M176.322,238.317c-1.392,0.103-2.777,0.16-4.158,0.194c0,9.12,0,18.239,0,27.359c3.207-0.676,6.359-1.496,9.448-2.445
			c4.847-1.482,9.513-3.382,14.013-5.586c-2.858-7.052-5.715-14.104-8.572-21.156C183.497,237.49,179.894,238.041,176.322,238.317z"
			/>
		<path style="stroke:#000000;stroke-width:0.75;stroke-linecap:round;stroke-linejoin:round;stroke-miterlimit:10;" d="
			M226.426,208.788c2.441,1.809,4.883,3.618,7.324,5.427c3.152-10.574,3.864-21.538,2.315-31.806
			C234.639,192.022,231.273,201.022,226.426,208.788z"/>
		<path style="stroke:#000000;stroke-width:0.75;stroke-linecap:round;stroke-linejoin:round;stroke-miterlimit:10;" d="
			M223.574,235.727c0.888-1.226,1.646-2.543,2.448-3.809c2.106-3.478,3.85-7.106,5.325-10.796c-2.969-2.2-5.939-4.401-8.908-6.601
			c-3.404,4.386-7.326,8.234-11.448,11.39c3.936,3.643,7.872,7.287,11.808,10.93L223.574,235.727z"/>
		<path style="stroke:#000000;stroke-width:0.75;stroke-linecap:round;stroke-linejoin:round;stroke-miterlimit:10;" d="
			M213.939,246.074c1.184-1.023,2.368-2.009,3.485-3.162c0.26-0.252,0.514-0.515,0.772-0.771
			c-4.402-4.075-8.805-8.151-13.208-12.226c-0.551,0.315-1.1,0.648-1.653,0.935c-3.031,1.551-6.229,2.868-9.518,3.955
			c2.665,6.578,5.331,13.156,7.996,19.734C206.057,252.074,210.127,249.296,213.939,246.074z"/>
		<path style="stroke:#000000;stroke-width:0.75;stroke-linecap:round;stroke-linejoin:round;stroke-miterlimit:10;" d="
			M51.878,306.484c-2.079,3.205-4.052,6.523-5.642,10.253c3.837-1.313,7.289-3.04,10.637-4.879c3.329-1.859,6.528-3.859,9.575-6.022
			c3.055-2.155,6.016-4.41,8.845-6.808c2.861-2.362,5.579-4.88,8.241-7.457l10.9-10.556l-15.061-1.48
			c-2.36-0.232-5.24-0.549-7.876-0.988c-2.686-0.457-5.394-0.888-8.068-1.477c-5.367-1.106-10.673-2.503-15.893-4.195
			c-5.2-1.737-10.333-3.745-15.277-6.299c-2.488-1.262-4.876-2.705-7.302-4.214c-2.382-1.559-4.672-3.299-7.011-5.143
			c2.422,5.421,6.173,10.332,10.571,14.54c4.422,4.197,9.47,7.761,14.831,10.667c5.359,2.925,11.011,5.261,16.809,7.078
			c1.419,0.429,2.843,0.848,4.274,1.239c-2.014,2.141-3.974,4.342-5.851,6.63C56.203,300.255,53.975,303.299,51.878,306.484z"/>
		<path style="stroke:#000000;stroke-width:0.75;stroke-linecap:round;stroke-linejoin:round;stroke-miterlimit:10;" d="
			M57.816,292.221c0,0-33.388-4.486-50.055-31.594c-2.909,48.362,7.938,82.543,7.938,82.543L57.816,292.221z"/>
		<path style="stroke:#000000;stroke-width:0.75;stroke-linecap:round;stroke-linejoin:round;stroke-miterlimit:10;" d="
			M44.441,188.931c5.056,2.184,10.228,4.09,15.468,5.742c5.251,1.627,10.585,2.978,16.013,3.909l-13.674-8.901
			c-4.521-2.922-8.97-5.889-13.376-8.869c-4.396-2.997-8.749-6.011-13.021-9.116c-4.29-3.075-8.51-6.225-12.67-9.435l-11.052-8.529
			l0.509,14.373c0.709,19.987,11.535,39.223,28.245,50.008c8.337,5.365,17.85,8.541,27.39,9.262c9.513,0.75,19.128-0.832,27.3-4.952
			c-9.103,0.496-17.792-0.535-25.849-3.004c-8.053-2.436-15.426-6.321-21.651-11.325c-8.549-6.976-15.084-16.3-18.835-26.59
			c0.111,0.061,0.219,0.13,0.33,0.191C34.424,184.324,39.375,186.764,44.441,188.931z"/>
		<path style="stroke:#000000;stroke-width:0.75;stroke-linecap:round;stroke-linejoin:round;stroke-miterlimit:10;" d="
			M116.113,117.613l4.445-46.341l4.445,46.341c0,0,11.447-29.194,25.851-45.037c-0.195-19.234-30.296-72.201-30.296-72.201
			S90.456,53.343,90.261,72.576C104.665,88.419,116.113,117.613,116.113,117.613z"/>
		<path style="stroke:#000000;stroke-width:0.75;stroke-linecap:round;stroke-linejoin:round;stroke-miterlimit:10;" d="
			M75.479,238.346c0,9.572,0,19.144,0,28.717c0.655,0.088,1.303,0.198,1.962,0.272c6.358,0.669,12.894,0.738,19.517,0.11
			l-6.296-32.153c-3.997,1.321-8.25,2.287-12.685,2.837C77.152,238.223,76.315,238.284,75.479,238.346z"/>
		<path style="stroke:#000000;stroke-width:0.75;stroke-linecap:round;stroke-linejoin:round;stroke-miterlimit:10;" d="
			M68.458,265.87c0-9.119,0-18.239,0-27.359c-1.381-0.033-2.766-0.091-4.159-0.194c-3.572-0.276-7.175-0.828-10.73-1.635
			c-2.857,7.052-5.715,14.104-8.572,21.156c4.5,2.205,9.166,4.104,14.013,5.586C62.099,264.374,65.251,265.194,68.458,265.87z"/>
		<path style="stroke:#000000;stroke-width:0.75;stroke-linecap:round;stroke-linejoin:round;stroke-miterlimit:10;" d="
			M4.558,182.409c-1.549,10.268-0.837,21.232,2.315,31.806c2.441-1.809,4.882-3.618,7.323-5.427
			C9.349,201.022,5.983,192.022,4.558,182.409z"/>
		<path style="stroke:#000000;stroke-width:0.75;stroke-linecap:round;stroke-linejoin:round;stroke-miterlimit:10;" d="
			M14.6,231.918c0.802,1.266,1.56,2.583,2.448,3.809l0.776,1.114c3.936-3.643,7.872-7.287,11.807-10.93
			c-4.122-3.156-8.044-7.004-11.448-11.39c-2.969,2.201-5.939,4.401-8.908,6.601C10.749,224.813,12.494,228.44,14.6,231.918z"/>
		<path style="stroke:#000000;stroke-width:0.75;stroke-linecap:round;stroke-linejoin:round;stroke-miterlimit:10;" d="
			M35.634,229.914c-4.403,4.075-8.805,8.151-13.207,12.226c0.258,0.256,0.511,0.519,0.772,0.771
			c1.116,1.154,2.301,2.139,3.484,3.162c3.813,3.223,7.882,6,12.126,8.464c2.665-6.578,5.331-13.156,7.996-19.734
			c-3.289-1.087-6.486-2.403-9.518-3.955C36.735,230.562,36.185,230.229,35.634,229.914z"/>
		<path style="stroke:#000000;stroke-width:0.75;stroke-linecap:round;stroke-linejoin:round;stroke-miterlimit:10;" d="
			M120.034,361.787c-26.564,0-48.098,20.589-48.098,45.987c0,1.728,23.342-17.081,48.098-17.081
			c24.757,0,48.098,18.809,48.098,17.081C168.132,382.376,146.598,361.787,120.034,361.787z"/>
		<path style="stroke:#000000;stroke-width:0.75;stroke-linecap:round;stroke-linejoin:round;stroke-miterlimit:10;" d="
			M120.034,396.92c-21.267,0-38.507,7.489-38.507,16.728c0,9.238,17.24,16.727,38.507,16.727c21.267,0,38.507-7.489,38.507-16.727
			C158.54,404.409,141.301,396.92,120.034,396.92z"/>
		<path style="stroke:#000000;stroke-width:0.75;stroke-linecap:round;stroke-linejoin:round;stroke-miterlimit:10;" d="
			M177.028,420.525c14.874,0.088,25.332-32.34,25.332-32.34s-14.107,0.232-32.724-12.916
			C163.296,383.157,176.368,402.635,177.028,420.525z"/>
		<path style="stroke:#000000;stroke-width:0.75;stroke-linecap:round;stroke-linejoin:round;stroke-miterlimit:10;" d="
			M70.986,375.268c-18.616,13.148-32.724,12.916-32.724,12.916s10.458,32.428,25.332,32.34
			C64.254,402.635,77.326,383.157,70.986,375.268z"/>
		<path style="stroke:#000000;stroke-width:0.75;stroke-linecap:round;stroke-linejoin:round;stroke-miterlimit:10;" d="
			M222.438,100.966c0,16.672,0,33.344,0,50.016c4.718-1.438,9.515-2.77,14.415-3.959l-0.261-50.217
			C231.855,97.955,227.132,99.356,222.438,100.966z"/>
		<path style="stroke:#000000;stroke-width:0.75;stroke-linecap:round;stroke-linejoin:round;stroke-miterlimit:10;" d="
			M17.34,149.685c0-16.333,0-32.666,0-48.999c-4.416-1.489-8.855-2.8-13.309-3.88l-3.656,48.37
			c5.737,1.391,11.413,2.975,16.991,4.763C17.361,149.851,17.34,149.775,17.34,149.685z"/>
		<path style="stroke:#000000;stroke-width:0.75;stroke-linecap:round;stroke-linejoin:round;stroke-miterlimit:10;" d="
			M184.868,90.634c-11.382,3.632-22.272,9.126-32.28,16c-12.349,8.47-23.239,19.113-32.289,31.168
			c-9.016-12.014-19.848-22.638-32.149-31.103c-9.986-6.877-20.854-12.381-32.214-16.023c-11.363-3.593-23.146-5.559-34.831-4.883
			c9.892,6.215,19.033,12.314,27.398,19.064c8.375,6.691,16.041,13.794,23,21.374c3.215,3.498,6.277,7.091,9.219,10.759
			c-16.69-14.035-35.485-25.504-55.004-33.237c0,15.311,0,30.621,0,45.931c0,1.182,0.007,3.132,0.007,3.132
			c35.17,12.873,65.348,34.638,79.657,69.827c0,0.001,0.001,0.001,0.001,0.002l0,0v0l1.924-0.783l-3.401,62.62
			c0,7.422,6.072,13.494,13.494,13.494h5.385c7.422,0,13.494-6.073,13.494-13.494l-3.35-62.625l2.305,0.937
			c14.669-36.075,43.696-56.902,79.213-69.213c-0.243-0.516-0.386-1.118-0.386-1.812c0-15.892,0-31.784,0-47.676
			c-19.034,7.654-37.361,18.849-53.692,32.504c2.848-3.513,5.8-6.962,8.9-10.318c6.988-7.57,14.676-14.671,23.066-21.369
			c8.38-6.759,17.529-12.872,27.43-19.116C208.057,85.096,196.253,87.055,184.868,90.634z"/>
		<polygon style="stroke:#000000;stroke-width:0.75;stroke-linecap:round;stroke-linejoin:round;stroke-miterlimit:10;" points="
			136.986,300.051 168.648,308.318 143.663,284.748 		"/>
		<polygon style="stroke:#000000;stroke-width:0.75;stroke-linecap:round;stroke-linejoin:round;stroke-miterlimit:10;" points="
			96.502,284.748 71.518,308.318 103.179,300.051 		"/>
		<path style="stroke:#000000;stroke-width:0.75;stroke-linecap:round;stroke-linejoin:round;stroke-miterlimit:10;" d="
			M196.751,70.315c2.981-0.823,6.008-1.255,9.033-1.441c-2.714-14.082-6.555-27.815-11.551-41.268l-11.681-3.312
			c5.5,15.128,9.24,30.713,11.304,46.82L196.751,70.315z"/>
		<path style="stroke:#000000;stroke-width:0.75;stroke-linecap:round;stroke-linejoin:round;stroke-miterlimit:10;" d="
			M165.143,79.04l17.974-4.962c-2.145-18.513-6.754-36.386-13.824-53.544l-18.439-5.228
			C150.853,15.306,167.007,58.994,165.143,79.04z"/>
		<path style="stroke:#000000;stroke-width:0.75;stroke-linecap:round;stroke-linejoin:round;stroke-miterlimit:10;" d="
			M207.384,31.335c4.258,12.496,7.506,25.246,9.827,38.294c7.13,1.437,13.905,4.6,19.642,9.411V39.691L207.384,31.335z"/>
		<path style="stroke:#000000;stroke-width:0.75;stroke-linecap:round;stroke-linejoin:round;stroke-miterlimit:10;" d="
			M31.406,32.074L4.542,39.691V79.04c5.072-4.253,10.968-7.175,17.189-8.805C24.013,57.232,27.205,44.525,31.406,32.074z"/>
		<path style="stroke:#000000;stroke-width:0.75;stroke-linecap:round;stroke-linejoin:round;stroke-miterlimit:10;" d="
			M76.252,79.04c-1.865-20.045,14.289-63.734,14.289-63.734L69.473,21.28c-6.82,16.737-11.309,34.151-13.453,52.175L76.252,79.04z"
			/>
		<path style="stroke:#000000;stroke-width:0.75;stroke-linecap:round;stroke-linejoin:round;stroke-miterlimit:10;" d="
			M45.281,70.49c2.047-15.626,5.686-30.758,10.972-45.462l-11.697,3.317c-4.851,13.183-8.598,26.633-11.261,40.418
			c3.793,0.033,7.606,0.518,11.349,1.552L45.281,70.49z"/>
	</g>
</g>
<g id="Layer_1">
</g>
</svg>
