<?xml version="1.0" encoding="iso-8859-1"?>
<!-- Generator: Adobe Illustrator 23.0.6, SVG Export Plug-In . SVG Version: 6.00 Build 0)  -->
<svg version="1.1" xmlns="http://www.w3.org/2000/svg" xmlns:xlink="http://www.w3.org/1999/xlink" x="0px" y="0px"
	 viewBox="0 0 257.566 430.75" style="enable-background:new 0 0 257.566 430.75;" xml:space="preserve">
<g id="tiki-mask-silhouette-clip-art-3">
	<g>
		<polygon style="stroke:#000000;stroke-width:0.75;stroke-linecap:round;stroke-linejoin:round;stroke-miterlimit:10;" points="
			240.5,61.9 128.784,0.375 17.066,61.9 128.783,22.227 		"/>
		<path style="stroke:#000000;stroke-width:0.75;stroke-linecap:round;stroke-linejoin:round;stroke-miterlimit:10;" d="
			M86.186,277.796c0.535,0.349,1.737,0.155,3.004-0.049c0.853-0.138,1.732-0.28,2.668-0.309c1.81-0.051,3.544,0.349,5.07,0.71
			c1.758,0.415,3.273,0.771,4.457,0.383c1.659-0.548,2.592-2.662,2.782-4.515c0.144-1.401,0.016-2.879-0.12-4.444
			c-0.107-1.244-0.209-2.491-0.198-3.737c0.024-2.497,0.469-6.312,1.105-9.703l-25.021-3.475c0.846,8.401,2.73,16.951,5.165,23.229
			C85.315,276.448,85.719,277.492,86.186,277.796z"/>
		<path style="stroke:#000000;stroke-width:0.75;stroke-linecap:round;stroke-linejoin:round;stroke-miterlimit:10;" d="
			M102.54,322.202c-0.438-1.165-0.887-2.246-1.536-2.672c-0.412-0.267-1.134-0.377-1.964-0.301c-0.733,0.068-1.52,0.256-2.352,0.454
			l-1.121,0.259c-2.642,0.569-5.349,0.757-8.061,0.552c-0.391-0.03-0.874-0.064-1.132-0.052c-0.096,0.244-0.193,0.654-0.235,0.831
			c-0.668,2.842-1.335,6.183-2.003,9.527c-0.491,2.457-0.981,4.908-1.473,7.177c1.286-0.272,2.586-0.549,3.896-0.827
			c6.884-1.464,13.85-2.935,20.429-4.132c-0.643-1.718-1.423-3.584-2.226-5.446C103.951,325.693,103.156,323.845,102.54,322.202z"/>
		<path style="stroke:#000000;stroke-width:0.75;stroke-linecap:round;stroke-linejoin:round;stroke-miterlimit:10;" d="
			M72.883,324.985c-0.37-0.378-1.523-0.575-2.141-0.68c-6.1-1.044-12.312-1.571-18.506-1.571l-0.057,19.195
			c2.478,0.406,5.019,0.509,7.563,0.228c4.063-0.455,9.084-1.358,14.595-2.46l-0.911-12.355
			C73.371,326.611,73.282,325.39,72.883,324.985z"/>
		<path style="stroke:#000000;stroke-width:0.75;stroke-linecap:round;stroke-linejoin:round;stroke-miterlimit:10;" d="
			M162.739,272.176c0.441,1.09,0.895,2.215,1.591,2.855c1.103,1.012,3.182,1.176,5.398,1.265l11.871,0.479
			c1.051,0.039,2.634,0.104,3.336-0.395c0.934-0.669,1.041-2.87,1.093-3.928l1.039-21.144l-30.995,4.306l2.776,6.895
			C160.22,265.927,161.605,269.37,162.739,272.176z"/>
		<path style="stroke:#000000;stroke-width:0.75;stroke-linecap:round;stroke-linejoin:round;stroke-miterlimit:10;" d="
			M116.764,275.342c0.063,0.621,0.211,2.073,0.715,2.487c0.373,0.304,1.411,0.435,2.097,0.522l15.17,1.908
			c2.514,0.312,4.89,0.517,6.444-0.398c1.706-1.011,2.514-3.457,3.078-5.718c1.186-4.767,1.953-11.655,2.269-17.206l-1.63,0.227
			c-10.056,1.394-20.235,1.434-30.309,0.229c0.168,3.394,0.778,7.702,1.338,11.618C116.274,271.39,116.586,273.597,116.764,275.342z
			"/>
		<path style="stroke:#000000;stroke-width:0.75;stroke-linecap:round;stroke-linejoin:round;stroke-miterlimit:10;" d="
			M55.305,284.012c1.249,0.674,3.2,0.387,5.265,0l9.183-1.715c0.287-0.054,1.046-0.195,1.236-0.332
			c0.008-0.058,0.078-0.442-0.122-1.674c-0.788-4.821-0.357-10.072,0.057-15.15c0.404-4.91,0.769-9.546,0.131-13.718l-11.194-1.555
			c-9.077,0.045-17.192,3.27-22.59,8.299l15.697,23.222C53.644,282.393,54.411,283.528,55.305,284.012z"/>
		<path style="stroke:#000000;stroke-width:0.75;stroke-linecap:round;stroke-linejoin:round;stroke-miterlimit:10;" d="
			M197.427,249.868l-1.062,0.148c-0.161,8.746,0.112,19.158,0.741,28.041c0.057,0.838,0.125,1.786,0.443,2.377
			c0.641,1.182,2.715,1.783,4.608,2.252c2.256,0.563,4.819,1.2,6.926,0.688c2.454-0.597,4.632-2.741,6.848-6.747
			c0.758-1.367,4.659-8.117,9.205-11.445C221.094,256.321,210.226,249.932,197.427,249.868z"/>
		<path style="stroke:#000000;stroke-width:0.75;stroke-linecap:round;stroke-linejoin:round;stroke-miterlimit:10;" d="
			M146.392,317.233c-0.367-0.38-1.387-0.645-1.998-0.803c-5.007-1.293-10.166-2.19-15.337-2.666
			c-0.623-0.06-2.282-0.209-2.804,0.234c-0.344,0.293-0.61,1.217-0.787,1.827c-0.863,2.97-2.399,6.46-3.886,9.837
			c-0.808,1.835-1.617,3.693-2.319,5.454c3.413-0.402,6.585-0.643,9.384-0.643c5.453,0,12.273,0.885,19.686,2.183
			c-0.3-4.984-0.764-9.811-1.279-13.246C146.956,318.747,146.792,317.644,146.392,317.233z"/>
		<path style="stroke:#000000;stroke-width:0.75;stroke-linecap:round;stroke-linejoin:round;stroke-miterlimit:10;" d="
			M210.404,288.307c-1.022,0.248-2.042,0.348-3.041,0.348c-2.371,0-4.626-0.562-6.554-1.043c-2.17-0.538-6.215-1.543-8.004-4.841
			c-0.829-1.53-0.947-3.174-1.03-4.374c-0.146-2.062-0.27-4.214-0.378-6.401l-0.034,0.693c-0.096,1.975-0.276,5.653-3.221,7.762
			c-1.719,1.232-3.742,1.447-5.406,1.447c-0.49,0-0.952-0.019-1.364-0.036l-11.869-0.479c-2.48-0.099-6.228-0.25-8.88-2.686
			c-1.552-1.424-2.282-3.236-2.869-4.69c-1.137-2.807-2.522-6.255-3.896-9.679l-2.113-5.252c-0.386,5.434-1.152,11.706-2.284,16.245
			c-0.814,3.271-2.1,6.882-5.456,8.867c-1.896,1.121-4.021,1.435-5.99,1.435c-1.463,0-2.84-0.173-3.969-0.316l-15.17-1.908
			c-1.317-0.165-3.304-0.417-4.88-1.709c-2.131-1.745-2.402-4.419-2.548-5.856c-0.172-1.69-0.48-3.83-0.808-6.135
			c-0.39-2.742-0.805-5.668-1.088-8.414c-0.214,1.737-0.351,3.372-0.362,4.595c-0.01,1.093,0.086,2.185,0.18,3.276
			c0.149,1.719,0.303,3.497,0.112,5.354c-0.347,3.371-2.196,7.461-6.35,8.832c-0.989,0.326-1.959,0.45-2.903,0.45
			c-1.619,0-3.163-0.365-4.587-0.701c-1.299-0.308-2.525-0.609-3.607-0.563c-0.639,0.02-1.299,0.134-1.956,0.24
			c-2.045,0.328-4.59,0.741-6.906-0.766c-1.732-1.129-2.501-2.838-3.088-4.352c-1.473-3.801-2.751-8.377-3.749-13.236
			c-0.03,0.374-0.056,0.752-0.087,1.125c-0.41,5.006-0.798,9.736-0.104,13.971c0.208,1.288,0.644,3.963-1.247,5.925
			c-1.286,1.331-3.059,1.663-4.118,1.861l-9.183,1.716c-1.189,0.223-2.691,0.503-4.285,0.503c-1.526,0-3.14-0.259-4.645-1.073
			c-2.037-1.102-3.283-2.947-4.191-4.295L33.73,262.331c-2.089,3.137-3.288,6.683-3.288,10.448v46.451
			c0,6.024,3.054,12.069,8.379,16.585c2.394,2.03,5.12,3.585,8.021,4.682l0.069-22.761l2.595-0.061
			c7.422-0.18,14.873,0.368,22.178,1.617c1.703,0.291,3.641,0.726,5.101,2.215c1.692,1.725,1.865,4.075,1.969,5.478l0.19,2.588
			c0.662-3.308,1.322-6.602,1.985-9.419c0.227-0.963,0.649-2.747,2.256-3.868c1.591-1.109,3.419-0.97,4.624-0.879
			c2.295,0.174,4.465,0.025,6.58-0.434l1.007-0.231c0.986-0.235,2.006-0.477,3.129-0.581c2.118-0.196,4.019,0.206,5.495,1.165
			c2.133,1.393,2.986,3.658,3.549,5.157c0.592,1.58,1.356,3.351,2.133,5.151c0.945,2.19,1.894,4.428,2.619,6.468
			c0.323-0.052,0.651-0.107,0.97-0.157c0.889-2.594,2.133-5.456,3.366-8.256c1.421-3.228,2.892-6.567,3.662-9.221
			c0.342-1.182,0.861-2.97,2.37-4.263c2.266-1.932,5.378-1.65,6.885-1.51c5.466,0.504,10.922,1.453,16.219,2.821
			c1.508,0.39,3.223,0.92,4.527,2.266c1.526,1.578,1.836,3.663,2.021,4.91c0.674,4.491,1.079,9.74,1.298,13.259
			c0.493-1.945,1.122-4.052,1.746-6.119c0.856-2.847,1.742-5.79,2.18-8.061c0.188-0.987,0.691-3.612,3.229-4.565
			c1.262-0.469,2.459-0.281,3.174-0.164c4.548,0.729,9.138,1.642,13.639,2.711c3.127,0.741,6.661,1.754,9.055,4.407
			c1.575,1.744,2.314,3.814,2.642,5.83l-0.047-8.361l17.935-4.131c1.784-0.411,4.235-0.976,6.692-0.204
			c3.427,1.079,5.224,4.251,6.296,6.146l0.681,1.196c1.208,2.119,2.669,4.698,3.881,7.255c1.367-2.773,2.106-5.719,2.106-8.662
			v-46.451c0-0.715-0.055-1.419-0.138-2.117c-2.207,2.217-4.492,5.523-6.051,8.342C218.786,282.381,215.688,287.023,210.404,288.307
			z"/>
		<path style="stroke:#000000;stroke-width:0.75;stroke-linecap:round;stroke-linejoin:round;stroke-miterlimit:10;" d="
			M243.444,229.831c-6.56-5.132-14.917-8.25-24.027-8.326l-69.045,11.591c-14.325,2.406-28.859,2.406-43.179,0l-69.045-11.591
			c-9.11,0.076-17.466,3.194-24.026,8.325c-8.408,7.186-13.747,18.038-13.747,29.585v71.476c0,12.121,5.924,23.96,15.09,31.459
			c0.013,0.118,0.033,0.234,0.046,0.352c6.711,4.992,14.596,7.185,22.415,6.128c9.049-1.224,21.74-4.488,35.173-7.943
			c20.376-5.241,41.448-10.66,55.685-10.66c14.237,0,35.306,5.419,55.682,10.66c13.433,3.454,26.123,6.719,35.173,7.944v-0.001
			c7.834,1.063,15.709-1.135,22.416-6.128c0.013-0.118,0.034-0.234,0.046-0.352c9.166-7.499,15.09-19.339,15.09-31.459v-71.476
			C257.191,247.869,251.852,237.017,243.444,229.831z M232.188,319.229c0,7.477-3.708,14.908-10.171,20.39
			c-5.954,5.047-13.593,7.799-21.403,7.799c-1.228,0-2.459-0.067-3.688-0.205c-7.198-0.806-16.991-2.889-27.357-5.096
			c-14.44-3.073-30.808-6.555-40.924-6.555c-10.116,0-26.484,3.482-40.921,6.555c-10.369,2.207-20.164,4.29-27.362,5.096
			c-9.057,1.012-18.203-1.757-25.091-7.594c-6.463-5.482-10.171-12.913-10.171-20.39v-46.451c0-15.44,15.679-28.002,34.951-28.002
			l0.386,0.026l52.719,7.322c10.276,1.427,20.702,1.427,30.977,0l53.103-7.348c19.272,0,34.951,12.561,34.951,28.002V319.229z"/>
		<path style="stroke:#000000;stroke-width:0.75;stroke-linecap:round;stroke-linejoin:round;stroke-miterlimit:10;" d="
			M215.477,321.857c-0.939-1.661-1.966-3.318-3.268-3.727c-0.942-0.3-2.206-0.042-3.763,0.318l-13.827,3.184l0.115,19.876
			c0,0,1.395,0.49,2.814,0.649c7.553,0.847,15.173-1.466,20.921-6.342c0.998-0.846,1.887-1.76,2.72-2.703
			c-1.085-3.128-3.328-7.069-5.023-10.043L215.477,321.857z"/>
		<path style="stroke:#000000;stroke-width:0.75;stroke-linecap:round;stroke-linejoin:round;stroke-miterlimit:10;" d="
			M184.145,330.541c0.227-3.41-0.261-5.652-1.531-7.06c-1.372-1.52-3.862-2.21-6.296-2.788c-4.371-1.037-8.825-1.922-13.241-2.63
			c-0.029-0.005-0.065-0.011-0.109-0.017c-0.044,0.148-0.096,0.354-0.151,0.641c-0.482,2.52-1.408,5.585-2.3,8.55
			c-0.775,2.569-1.553,5.192-2.023,7.353c4.047,0.819,8.158,1.69,12.239,2.558c4.942,1.052,9.744,2.071,14.176,2.936
			C184.331,336.853,183.987,332.959,184.145,330.541z"/>
		<path style="stroke:#000000;stroke-width:0.75;stroke-linecap:round;stroke-linejoin:round;stroke-miterlimit:10;" d="
			M28.206,94.572l-0.175,0.031l-2.097-10.635L13.878,88.03l-1.259,19.939C17.592,100.821,23.593,96.785,28.206,94.572z"/>
		<path style="stroke:#000000;stroke-width:0.75;stroke-linecap:round;stroke-linejoin:round;stroke-miterlimit:10;" d="
			M39.594,128.86c-7.121-5.099-15.766-1.713-22.185,3.03l4.632,19.68l3.359-6.591C28.781,138.344,33.723,132.91,39.594,128.86z"/>
		<path style="stroke:#000000;stroke-width:0.75;stroke-linecap:round;stroke-linejoin:round;stroke-miterlimit:10;" d="
			M31.685,194.246c11.7-5.986,21.706-15.215,28.494-26.113c-2.616,0.442-5.251,0.676-7.881,0.676
			c-6.791,0-13.548-1.469-19.836-4.382l-9.556-4.424l-7.667,40.293C20.962,198.896,26.514,196.892,31.685,194.246z"/>
		<path style="stroke:#000000;stroke-width:0.75;stroke-linecap:round;stroke-linejoin:round;stroke-miterlimit:10;" d="
			M105.503,118.681c4.691-6.019,10.97-9.81,18.317-11.206c-4.301-3.121-8.628-6.224-12.99-9.302
			c-6.692,7.327-15.238,16.166-21.607,22.6c3.798,3.496,7.389,6.645,10.556,8.746C101.133,125.566,103.028,121.857,105.503,118.681z
			"/>
		<path style="stroke:#000000;stroke-width:0.75;stroke-linecap:round;stroke-linejoin:round;stroke-miterlimit:10;" d="
			M88.444,142.148l4.337-8.509l-8.924-4.133c-19.912-9.216-43.98-1.282-53.653,17.699l-4.334,8.509l8.924,4.133
			C54.706,169.066,78.771,161.129,88.444,142.148z"/>
		<path style="stroke:#000000;stroke-width:0.75;stroke-linecap:round;stroke-linejoin:round;stroke-miterlimit:10;" d="
			M87.043,182.831c0.555-0.515,1.119-1.016,1.683-1.503c0.618-0.534,1.241-1.069,1.823-1.63c7.208-6.931,10.494-17.53,8.176-26.375
			c-1.574-6.015-1.637-12.493-0.383-18.628c-0.041-0.024-0.083-0.05-0.125-0.074l-4.969,9.753
			c-5.005,9.819-13.533,17.288-24.109,21.29C71.701,173.713,78.604,180.364,87.043,182.831z"/>
		<path style="stroke:#000000;stroke-width:0.75;stroke-linecap:round;stroke-linejoin:round;stroke-miterlimit:10;" d="
			M83.484,199.067c-1.544-4.593-1.464-8.728,0.195-12c-8.238-2.963-15.092-9.217-18.539-16.932
			c-7.283,11.947-18.17,22.07-30.93,28.598c-6.26,3.203-13.034,5.549-20.013,7.044l-0.045,1.798
			c14.662-3.029,29.763-2.471,41.866-0.06c11.598,2.311,24.355,6.61,37.475,12.589C87.932,211.678,84.397,201.789,83.484,199.067z"
			/>
		<path style="stroke:#000000;stroke-width:0.75;stroke-linecap:round;stroke-linejoin:round;stroke-miterlimit:10;" d="
			M68.656,102.78c2.137,1.589,4.224,3.269,6.258,4.995c6.38-7.038,12.973-14.04,19.627-20.885c-2.183-1.488-4.368-2.973-6.56-4.446
			L68.656,102.78z"/>
		<path style="stroke:#000000;stroke-width:0.75;stroke-linecap:round;stroke-linejoin:round;stroke-miterlimit:10;" d="
			M43.458,91.702l-3.725-12.386l-8.704,2.934l2.048,10.385c1.355-0.418,2.227-0.584,2.393-0.614
			C38.174,91.537,40.835,91.475,43.458,91.702z"/>
		<path style="stroke:#000000;stroke-width:0.75;stroke-linecap:round;stroke-linejoin:round;stroke-miterlimit:10;" d="
			M106.506,95.152c-2.525-1.765-5.037-3.543-7.578-5.29c-6.81,6.991-13.556,14.157-20.078,21.355
			c2.254,2.019,4.441,4.043,6.545,6.005C91.627,110.925,99.932,102.336,106.506,95.152z"/>
		<path style="stroke:#000000;stroke-width:0.75;stroke-linecap:round;stroke-linejoin:round;stroke-miterlimit:10;" d="
			M48.476,89.922c5.467-6.209,13.227-14.438,18.246-19.702l-21.948,7.397L48.476,89.922z"/>
		<path style="stroke:#000000;stroke-width:0.75;stroke-linecap:round;stroke-linejoin:round;stroke-miterlimit:10;" d="
			M14.127,115.734l1.635,8.091c9.373-5.633,20.636-7.472,30.123,0.147c0.35,0.281,0.599,0.583,0.804,0.892
			c11.998-5.462,26.369-5.912,39.242-0.041c-1.263-1.16-2.552-2.358-3.887-3.602C69.075,109.132,52.95,94.094,36.45,97.026
			C35.788,97.144,22.086,99.784,14.127,115.734z"/>
		<path style="stroke:#000000;stroke-width:0.75;stroke-linecap:round;stroke-linejoin:round;stroke-miterlimit:10;" d="
			M52.202,93.614c4.176,1.455,8.217,3.599,12.114,6.149l19.266-20.274c-3.778-2.514-7.566-5-11.359-7.462
			C67.315,77.16,58.166,86.814,52.202,93.614z"/>
		<path style="stroke:#000000;stroke-width:0.75;stroke-linecap:round;stroke-linejoin:round;stroke-miterlimit:10;" d="
			M74.761,67.51c16.572,10.749,33.011,22.02,49.033,33.567L111.788,55.03L74.761,67.51z"/>
		<polygon style="stroke:#000000;stroke-width:0.75;stroke-linecap:round;stroke-linejoin:round;stroke-miterlimit:10;" points="
			116.848,53.324 128.751,98.974 140.652,53.324 128.75,49.313 		"/>
		<path style="stroke:#000000;stroke-width:0.75;stroke-linecap:round;stroke-linejoin:round;stroke-miterlimit:10;" d="
			M171.568,124.823c12.879-5.874,27.248-5.423,39.245,0.04c0.205-0.308,0.454-0.61,0.803-0.89
			c9.503-7.632,20.794-5.775,30.181-0.113l1.625-8.042c-7.955-16.028-21.709-18.673-22.372-18.791
			c-16.5-2.95-32.628,12.109-45.595,24.195C174.12,122.465,172.831,123.663,171.568,124.823z"/>
		<path style="stroke:#000000;stroke-width:0.75;stroke-linecap:round;stroke-linejoin:round;stroke-miterlimit:10;" d="
			M225.815,194.248c5.191,2.656,10.769,4.664,16.515,6.064l-7.676-40.338l-9.614,4.453c-6.382,2.956-13.144,4.356-19.802,4.356
			c-2.675,0-5.329-0.251-7.942-0.692C204.085,179.009,214.102,188.254,225.815,194.248z"/>
		<path style="stroke:#000000;stroke-width:0.75;stroke-linecap:round;stroke-linejoin:round;stroke-miterlimit:10;" d="
			M168.777,181.329c0.564,0.486,1.127,0.986,1.681,1.501c8.436-2.466,15.338-9.114,17.9-17.161
			c-10.182-3.859-18.952-11.182-24.107-21.296l-4.969-9.753c-0.042,0.025-0.084,0.05-0.125,0.074
			c1.255,6.135,1.192,12.613-0.383,18.628c-2.318,8.845,0.968,19.443,8.174,26.373C167.533,180.26,168.156,180.795,168.777,181.329z
			"/>
		<path style="stroke:#000000;stroke-width:0.75;stroke-linecap:round;stroke-linejoin:round;stroke-miterlimit:10;" d="
			M243.372,205.791c-7.003-1.494-13.802-3.844-20.082-7.057c-12.759-6.529-23.646-16.652-30.929-28.601
			c-3.447,7.716-10.3,13.971-18.538,16.933c1.657,3.273,1.736,7.407,0.195,11.999c-0.914,2.724-4.452,12.613-10.012,21.038
			c13.12-5.98,25.878-10.279,37.476-12.59c12.122-2.417,27.418-3.163,42.101-0.112L243.372,205.791z"/>
		<path style="stroke:#000000;stroke-width:0.75;stroke-linecap:round;stroke-linejoin:round;stroke-miterlimit:10;" d="
			M133.682,107.475c7.345,1.396,13.624,5.187,18.315,11.206c2.475,3.175,4.37,6.885,5.724,10.838
			c3.166-2.101,6.758-5.25,10.556-8.746c-6.36-6.426-14.901-15.26-21.605-22.6C142.308,101.252,137.982,104.355,133.682,107.475z"/>
		<path style="stroke:#000000;stroke-width:0.75;stroke-linecap:round;stroke-linejoin:round;stroke-miterlimit:10;" d="
			M104.308,224.857l4.273,0.717c13.407,2.25,27.003,2.25,40.405,0l4.185-0.699c7.189-6.144,13.167-19.629,15.763-27.36
			c0.798-2.379,1.447-5.769,0.01-8.404c-0.798-1.461-2.23-2.696-3.748-4.004c-0.696-0.599-1.387-1.199-2.042-1.826
			c-8.471-8.149-12.315-20.683-9.563-31.19c2.678-10.221,0.313-22.426-5.881-30.373c-4.675-5.998-11.229-9.362-18.958-9.742
			c-7.729,0.38-14.286,3.745-18.961,9.743c-6.194,7.947-8.559,20.153-5.881,30.372c2.751,10.508-1.093,23.042-9.566,31.192
			c-0.649,0.626-1.343,1.226-2.037,1.824c-1.518,1.308-2.952,2.543-3.748,4.005c-1.439,2.637-0.787,6.025,0.01,8.403
			C91.161,205.239,97.126,218.704,104.308,224.857z"/>
		<path style="stroke:#000000;stroke-width:0.75;stroke-linecap:round;stroke-linejoin:round;stroke-miterlimit:10;" d="
			M173.98,221.399l45.095-7.533c8.97,0,17.327,2.475,24.438,6.687l0.07-9.262c-14.115-3.264-29.074-1.17-41.009,1.207
			C193.652,214.277,183.984,217.31,173.98,221.399z"/>
		<polygon style="stroke:#000000;stroke-width:0.75;stroke-linecap:round;stroke-linejoin:round;stroke-miterlimit:10;" points="
			129.178,44.078 129.673,44.224 243.341,82.535 242.503,69.269 128.783,28.061 15.063,69.269 14.227,82.513 128.26,44.078 		"/>
		<path style="stroke:#000000;stroke-width:0.75;stroke-linecap:round;stroke-linejoin:round;stroke-miterlimit:10;" d="
			M133.708,101.076c15.999-11.532,32.438-22.802,49.031-33.566l-37.027-12.48L133.708,101.076z"/>
		<path style="stroke:#000000;stroke-width:0.75;stroke-linecap:round;stroke-linejoin:round;stroke-miterlimit:10;" d="
			M13.982,211.277l0.07,9.275c7.111-4.212,15.467-6.687,24.437-6.687l0.694,0.058l44.199,7.42c-9.955-4.06-19.576-7.076-28.46-8.846
			C43.015,210.125,28.081,208.035,13.982,211.277z"/>
		<path style="stroke:#000000;stroke-width:0.75;stroke-linecap:round;stroke-linejoin:round;stroke-miterlimit:10;" d="
			M209.024,89.921l3.702-12.304l-21.946-7.397C195.799,75.485,203.559,83.713,209.024,89.921z"/>
		<path style="stroke:#000000;stroke-width:0.75;stroke-linecap:round;stroke-linejoin:round;stroke-miterlimit:10;" d="
			M173.92,79.489l19.271,20.279c3.896-2.549,7.937-4.692,12.111-6.148c-5.961-6.8-15.114-16.459-20.024-21.594
			C181.485,74.489,177.697,76.976,173.92,79.489z"/>
		<path style="stroke:#000000;stroke-width:0.75;stroke-linecap:round;stroke-linejoin:round;stroke-miterlimit:10;" d="
			M222.709,159.847l8.924-4.133l-4.337-8.509c-9.673-18.982-33.739-26.919-53.653-17.699l-8.924,4.133l4.337,8.509
			C178.731,161.132,202.797,169.068,222.709,159.847z"/>
		<path style="stroke:#000000;stroke-width:0.75;stroke-linecap:round;stroke-linejoin:round;stroke-miterlimit:10;" d="
			M232.1,144.98l3.404,6.681l4.644-19.73c-6.421-4.761-15.101-8.181-22.24-3.071C223.777,132.91,228.719,138.344,232.1,144.98z"/>
		<path style="stroke:#000000;stroke-width:0.75;stroke-linecap:round;stroke-linejoin:round;stroke-miterlimit:10;" d="
			M229.468,94.603l-0.175-0.031c4.636,2.224,10.673,6.29,15.66,13.503l-1.264-20.021l-12.123-4.086L229.468,94.603z"/>
		<path style="stroke:#000000;stroke-width:0.75;stroke-linecap:round;stroke-linejoin:round;stroke-miterlimit:10;" d="
			M150.996,95.152c6.585,7.197,14.885,15.781,21.109,22.071c2.106-1.962,4.293-3.986,6.548-6.005
			c-6.534-7.208-13.281-14.373-20.08-21.355C156.032,91.611,153.521,93.387,150.996,95.152z"/>
		<path style="stroke:#000000;stroke-width:0.75;stroke-linecap:round;stroke-linejoin:round;stroke-miterlimit:10;" d="
			M222.031,92.021c0.167,0.03,1.039,0.195,2.393,0.614l2.048-10.385l-8.702-2.933l-3.728,12.389
			C216.665,91.478,219.326,91.538,222.031,92.021z"/>
		<path style="stroke:#000000;stroke-width:0.75;stroke-linecap:round;stroke-linejoin:round;stroke-miterlimit:10;" d="
			M188.85,102.783l-19.328-20.34c-2.193,1.474-4.378,2.959-6.562,4.447c6.646,6.836,13.239,13.838,19.63,20.886
			C184.624,106.052,186.712,104.372,188.85,102.783z"/>
		<path style="stroke:#000000;stroke-width:0.75;stroke-linecap:round;stroke-linejoin:round;stroke-miterlimit:10;" d="
			M128.784,380.888c12.355,0,23.818,3.685,33.266,9.949c-3.896-8.763-13.532-25.019-33.298-32.041
			c-19.816,7.04-29.451,23.359-33.328,32.106C104.889,384.599,116.388,380.888,128.784,380.888z"/>
		<path style="stroke:#000000;stroke-width:0.75;stroke-linecap:round;stroke-linejoin:round;stroke-miterlimit:10;" d="
			M128.784,385.979c-26.327,0-48.177,18.388-52.313,42.387c5.777,1.276,11.773,2.008,17.958,2.008h6.265
			c-0.822-2.578-1.272-5.31-1.272-8.144c0-15.458,13.145-27.99,29.361-27.99c16.216,0,29.361,12.532,29.361,27.99
			c0,2.834-0.45,5.566-1.271,8.144h6.265c6.185,0,12.182-0.733,17.959-2.008C176.961,404.367,155.111,385.979,128.784,385.979z"/>
		<path style="stroke:#000000;stroke-width:0.75;stroke-linecap:round;stroke-linejoin:round;stroke-miterlimit:10;" d="
			M218.512,376.393v-0.001c-9.537-1.29-22.457-4.613-36.136-8.131c-13.791-3.547-28.908-7.429-41.202-9.284
			c16.503,9.798,24.099,25.174,26.897,32.428c19.321-3.632,46.455-5.533,66.974-4.77c2.145-4.383,3.913-8.966,5.151-13.757
			c-5.254,2.533-10.893,3.856-16.621,3.856C221.892,376.734,220.202,376.622,218.512,376.393z"/>
		<path style="stroke:#000000;stroke-width:0.75;stroke-linecap:round;stroke-linejoin:round;stroke-miterlimit:10;" d="
			M169.162,396.391c8.812,8.049,14.983,18.696,17.161,30.635c19.703-5.737,36.137-18.549,46.036-35.371
			C212.691,391.163,187.123,393.033,169.162,396.391z"/>
		<path style="stroke:#000000;stroke-width:0.75;stroke-linecap:round;stroke-linejoin:round;stroke-miterlimit:10;" d="
			M88.393,396.402c-17.944-3.359-43.504-5.23-63.186-4.746c9.9,16.822,26.334,29.634,46.037,35.37
			C73.422,415.093,79.588,404.45,88.393,396.402z"/>
		<path style="stroke:#000000;stroke-width:0.75;stroke-linecap:round;stroke-linejoin:round;stroke-miterlimit:10;" d="
			M89.428,391.404c2.798-7.252,10.389-22.616,26.875-32.414c-12.28,1.86-27.358,5.731-41.118,9.27
			c-13.679,3.518-26.596,6.841-36.133,8.131c-7.446,1.004-14.892-0.279-21.697-3.563c1.239,4.807,3.012,9.405,5.163,13.802
			C43.03,385.87,70.127,387.774,89.428,391.404z"/>
	</g>
</g>
<g id="Layer_1">
</g>
</svg>
