<?xml version="1.0" encoding="UTF-8" standalone="no"?>
<!-- Created with Inkscape (http://www.inkscape.org/) -->

<svg
   xmlns:dc="http://purl.org/dc/elements/1.1/"
   xmlns:cc="http://creativecommons.org/ns#"
   xmlns:rdf="http://www.w3.org/1999/02/22-rdf-syntax-ns#"
   xmlns:svg="http://www.w3.org/2000/svg"
   xmlns="http://www.w3.org/2000/svg"
   xmlns:sodipodi="http://sodipodi.sourceforge.net/DTD/sodipodi-0.dtd"
   xmlns:inkscape="http://www.inkscape.org/namespaces/inkscape"
   width="153.70485"
   height="206.15329"
   id="svg2"
   version="1.1"
   inkscape:version="0.48.3.1 r9886"
   style="enable-background:new"
   sodipodi:docname="dibujo-17.svg">
  <defs
     id="defs4">
    <filter
       inkscape:collect="always"
       id="filter3863"
       color-interpolation-filters="sRGB">
      <feBlend
         inkscape:collect="always"
         mode="multiply"
         in2="BackgroundImage"
         id="feBlend3865" />
    </filter>
  </defs>
  <sodipodi:namedview
     id="base"
     pagecolor="#ffffff"
     bordercolor="#666666"
     borderopacity="1.0"
     inkscape:pageopacity="0.0"
     inkscape:pageshadow="2"
     inkscape:zoom="1"
     inkscape:cx="-66.653833"
     inkscape:cy="110.81624"
     inkscape:document-units="px"
     inkscape:current-layer="layer2"
     showgrid="false"
     fit-margin-top="0"
     fit-margin-left="0"
     fit-margin-right="0"
     fit-margin-bottom="0"
     inkscape:window-width="1360"
     inkscape:window-height="742"
     inkscape:window-x="0"
     inkscape:window-y="0"
     inkscape:window-maximized="1" />
  <metadata
     id="metadata7">
    <rdf:RDF>
      <cc:Work
         rdf:about="">
        <dc:format>image/svg+xml</dc:format>
        <dc:type
           rdf:resource="http://purl.org/dc/dcmitype/StillImage" />
        <dc:title></dc:title>
      </cc:Work>
    </rdf:RDF>
  </metadata>
  <g
     inkscape:groupmode="layer"
     id="layer2"
     inkscape:label="Capa"
     style="display:inline;filter:url(#filter3863)"
     transform="translate(-242.21156,-306.25)">
    <g
       id="g5378">
      <g
         id="g5284">
        <path
           style="fill:#000000;fill-opacity:1;stroke:none"
           d="m 319.96582,343.13408 c -4.18336,0.21524 -10.23553,0.94571 -15.42624,1.36042 -2.76895,0.22122 -5.11537,0.8299 -7.58087,2.22637 -3.64178,2.06272 -7.52389,4.02379 -10.95229,6.40792 -5.6134,3.9036 -10.68658,8.47326 -15.77591,13.00894 -2.09243,1.86481 -3.57191,4.31145 -5.28644,6.52146 -0.83105,1.07121 -1.29412,2.08651 -1.34817,3.3897 -0.12604,3.03917 -0.55074,5.86455 1.27993,8.29377 1.91964,2.54727 4.35959,4.47533 7.53706,4.75336 2.04782,0.17919 4.3772,-1.09369 5.48008,-2.82843 4.73688,-7.45073 6.68124,-16.46063 11.49048,-23.86485 1.87163,-2.88152 5.00697,-4.88974 8.04856,-6.46429 2.51505,-1.30198 5.09769,-2.94885 7.90405,-3.25843 4.62848,-0.51058 10.73833,-0.53861 13.74588,0 3.14555,0.56333 4.07525,-9.71014 0.88388,-9.54594 z"
           id="path4140"
           inkscape:connector-curvature="0"
           sodipodi:nodetypes="sssssssssssssss" />
        <path
           style="fill:#000000;fill-opacity:1;stroke:none"
           d="m 271.07143,387.80861 c 1.04905,2.53308 3.01739,5.91724 3.5638,10.87462 -0.78965,3.18164 -3.54564,5.95018 -2.94423,9.41396 0.32595,5.72556 3.38219,1.94301 5.17027,0.3843 3.0677,-1.73174 6.21856,-2.0847 6.30069,-5.93914 0.16101,-5.23466 -1.93215,-10.01599 -1.97189,-15.10631 1.3622,-6.17606 4.59397,-10.71301 8.8828,-14.89398 -2.39624,4.29647 -5.41698,8.30219 -6.98792,13.01276 -0.77164,3.4869 0.20243,6.45644 0.53021,9.68655 0.28256,3.33654 2.00763,6.95603 1.12637,10.04026 -2.44511,2.88686 -6.27151,3.66192 -8.53203,6.10488 -2.41964,2.25868 1.08432,4.19937 2.49118,5.65142 1.0636,2.3089 6.76904,3.34253 10.19955,2.93825 4.03199,-0.43543 6.52972,-0.62674 10.79763,-0.54842 1.1843,0.0217 4.41542,-1.72671 6.69574,-3.84353 2.54367,-2.36129 3.71181,-4.73822 4.10996,-5.14782 0.42942,7.49587 -5.1935,5.30733 -1.95605,8.61718 2.30948,2.58348 1.81692,6.4537 2.44291,9.65307 0.0914,1.38364 -1.3485,6.42528 -1.3485,6.42528 0,0 0.29567,-7.9046 -2.47132,-9.69237 -2.04947,-2.04384 -4.61206,-4.41033 -7.85378,-4.44426 -6.37999,-0.0668 -13.05209,1.39918 -18.69184,0.38473 -2.77406,-1.51024 -5.38942,-3.25522 -8.18728,-6.56639 -2.29744,-2.94495 -2.7622,-6.60738 -3.27348,-10.07201 0.74448,-3.02779 4.15825,-5.35607 3.03611,-8.81152 -0.49024,-2.78422 -3.70793,-4.65017 -3.61641,-8.03936 0.80986,-0.25743 1.65962,-0.0417 2.48751,-0.0821 z"
           id="path3875"
           inkscape:connector-curvature="0"
           sodipodi:nodetypes="cccccccccccccsscccccsccccccc" />
        <path
           style="fill:#000000;fill-opacity:1;stroke:none"
           d="m 276.47321,417.67468 c 0.41758,9.73891 5.86452,13.40377 11.85434,14.15658 3.65359,0.45918 7.4919,1.04164 12.03947,0.20005 3.67234,-0.67962 5.99373,-4.32121 6.71596,-7.46785 -0.45018,4.31161 -2.90042,7.83182 -6.69221,8.50534 -3.50253,0.62214 -7.95231,0.43705 -12.14569,0.28007 -6.14739,-0.23011 -11.14584,-5.81615 -11.97983,-12.01332 0.0486,-1.22144 0.16089,-2.43937 0.20796,-3.66087 z"
           id="path3884"
           inkscape:connector-curvature="0"
           sodipodi:nodetypes="csscsscc" />
        <path
           style="fill:#000000;fill-opacity:1;stroke:none"
           d="m 289.375,434.90682 17.85714,-0.625 2.67858,6.20536 -3.34822,-4.55357 c -0.9497,-1.29159 -11.50298,-0.53572 -17.1875,-1.02679 z"
           id="path3894"
           inkscape:connector-curvature="0"
           sodipodi:nodetypes="cccsc" />
        <path
           style="fill:#000000;fill-opacity:1;stroke:none"
           d="m 260.05115,388.25002 c 2.43391,3.91887 4.97541,8.29911 5.05569,13.09812 -0.41718,2.82423 -1.93494,5.88698 -3.84259,7.54379 -2.3266,2.57768 -0.0838,6.35359 2.57403,6.68132 3.35961,3.33432 7.30213,7.04949 7.37905,12.06342 0.47753,3.96496 0.0382,8.49936 3.44115,11.84858 2.95031,3.08334 6.71719,8.15846 11.05305,6.48738 2.84985,-0.71523 4.65421,-3.68616 7.02251,-5.24688 2.69949,-1.33664 4.7039,-0.58185 6.95799,0.28646 1.25097,0.6835 2.43595,4.41226 2.43595,4.41226 0,0 -4.00234,-7.02045 -8.57082,-2.61167 -1.69755,1.825 -3.21354,3.679 -5.35675,4.97933 -1.9653,1.05847 -4.33141,0.98836 -6.47021,0.66127 -3.01385,-0.88703 -5.49897,-3.10623 -7.49119,-5.44739 -2.90277,-4.06799 -5.10043,-9.14577 -4.71364,-14.23638 0.32282,-2.99693 -1.2179,-5.61814 -2.79771,-8.111 -1.90826,-3.01117 -5.7835,-3.7252 -7.79624,-6.42731 -0.75612,-2.01527 -0.56358,-4.27928 1.01959,-6.35084 2.31682,-2.27757 4.9372,-5.4904 3.6145,-8.9496 -1.07277,-3.24953 -1.89671,-6.98211 -3.51436,-10.68086 z"
           id="path3896"
           inkscape:connector-curvature="0"
           sodipodi:nodetypes="cccccccccccccccscccc" />
        <path
           style="fill:#000000;fill-opacity:1;stroke:none"
           d="m 301.95858,363.31933 -0.0542,3.92648 -0.73941,-3.55041 -6.77189,-7.29956 0.70098,-0.83352 z"
           id="path3903"
           inkscape:connector-curvature="0"
           sodipodi:nodetypes="cccccc" />
        <path
           sodipodi:nodetypes="cccccc"
           inkscape:connector-curvature="0"
           id="path3910"
           d="m 304.67336,359.37342 -0.0542,3.92648 -0.73941,-3.55041 -6.77189,-7.29956 0.70098,-0.83352 z"
           style="fill:#000000;fill-opacity:1;stroke:none" />
        <path
           style="fill:#ffffff;stroke:#000000;stroke-width:1px;stroke-linecap:butt;stroke-linejoin:miter;stroke-opacity:1"
           d="m 252.67857,306.55861 c 0,0 -1.24192,6.1429 -0.46583,12.55923 0.58365,4.82523 3.20076,9.8051 3.38389,12.44333 2.3219,6.74022 7.13922,12.18018 11.20968,17.90503 2.84439,3.60042 5.5903,7.37965 8.86189,10.57085 2.33679,0.83457 4.67358,1.66913 7.01037,2.5037 1.40527,3.87696 0.78058,8.15617 -0.69422,11.90605 -1.20242,5.20845 -3.71303,10.09206 -6.75216,14.40907 -4.47238,1.72947 -4.68333,-5.00114 -5.66006,-7.91987 -4.46663,-8.0207 -9.98616,-15.63946 -15.70538,-22.83498 -4.19393,-5.59808 -7.34286,-11.92513 -9.74176,-18.47197 -0.78203,-4.16896 -0.71505,-8.46403 -1.14331,-12.68689 -0.47728,-2.71633 -0.44524,-6.55394 1.10613,-8.88274 1.45308,-2.59007 8.59076,-11.50081 8.59076,-11.50081 z"
           id="path3912"
           inkscape:connector-curvature="0"
           sodipodi:nodetypes="cscccccccccccc" />
        <path
           style="fill:#000000;fill-opacity:1;stroke:none"
           d="m 247.32143,326.20147 15.35714,44.10714 3.39286,4.19643 z"
           id="path3931"
           inkscape:connector-curvature="0" />
        <path
           style="fill:#000000;fill-opacity:1;stroke:none"
           d="m 258.92857,347.18361 13.57143,41.69643 1.96429,0.53571 z"
           id="path3933"
           inkscape:connector-curvature="0" />
        <path
           style="fill:#000000;fill-opacity:1;stroke:none"
           d="m 267.41071,359.7729 11.60715,22.14285 -1.16072,2.67857 z"
           id="path3935"
           inkscape:connector-curvature="0" />
        <path
           style="fill:#000000;fill-opacity:1;stroke:none"
           d="m 319.71328,506.24846 c 0.33391,1.5459 0.62965,4.5535 0.0786,3.67809 -0.50492,-0.80216 -10.63157,0.66585 -13.69708,2.47347 -8.31164,0.1767 -14.2637,-6.8246 -16.07753,-14.53038 -1.70783,-6.24084 -3.58352,-12.52932 -7.98903,-17.47105 -5.69743,-7.49894 -11.5687,-14.15958 -17.74082,-21.85258 -4.44321,-8.99433 4.94368,-16.85752 3.18995,-25.98339 -0.79945,-3.04702 -1.34794,-6.73962 0.52926,-1.62907 3.13486,6.55183 -0.78516,13.40687 -1.78258,19.84135 1.33251,8.10593 7.84432,13.6803 12.45522,19.30624 4.05579,6.86877 12.32497,11.1038 13.49483,19.50943 1.99447,6.91192 2.64447,16.6259 11.47686,18.46603 6.06103,2.33332 11.02874,-1.76602 16.06229,-1.80814 z"
           id="path3937"
           inkscape:connector-curvature="0"
           sodipodi:nodetypes="csccccccccccc" />
        <path
           style="fill:#000000;fill-opacity:1;stroke:none"
           d="m 291.56251,487.16129 c -2.42023,-11.89166 -10.20516,-22.37313 -16.47322,-33.81697 4.38716,10.29573 14.28057,26.46047 12.41071,27.85715 z"
           id="path3942"
           inkscape:connector-curvature="0"
           sodipodi:nodetypes="cccc" />
        <path
           style="fill:#000000;fill-opacity:1;stroke:none"
           d="m 319.64286,495.30861 c -2.86895,-0.0699 -5.52173,0.95044 -8.4852,1.24371 -3.2481,0.66319 -7.98582,1.92255 -9.98685,-0.67835 -2.77868,-2.52075 -3.77006,-5.47229 -4.95756,-8.42637 -5.29722,-13.17764 -8.59013,-27.09234 -13.26682,-39.10328 4.7043,15.54616 8.01816,31.06953 14.56534,45.91359 1.45229,2.18152 3.58868,4.43091 5.51533,4.82999 2.84678,0.42165 5.15106,-1.27395 7.9027,-1.76983 2.71355,-0.48901 7.81642,-1.82841 8.51464,-0.35972 0.45391,-0.41492 0.25768,-1.11851 0.19842,-1.64974 z"
           id="path3944"
           inkscape:connector-curvature="0"
           sodipodi:nodetypes="cccscccscc" />
        <path
           style="fill:#000000;fill-opacity:1;stroke:none"
           d="m 319.96582,492.422 c -4.81095,-0.30295 -9.40576,0.54438 -15.02602,-0.31567 -0.20376,-0.0312 -3.7207,-2.3703 -4.89273,-4.83018 -5.13658,-10.78077 -8.31285,-23.04385 -12.46927,-34.56577 3.76043,11.81495 5.51812,25.25268 11.56894,35.37383 3.94297,6.59537 5.84059,5.35462 5.91019,5.35535 4.78514,0.0501 9.83,-0.54439 14.74148,0.21549 z"
           id="path3950"
           inkscape:connector-curvature="0"
           sodipodi:nodetypes="csscsscc" />
        <path
           style="fill:#000000;fill-opacity:1;stroke:none"
           d="m 295.71429,468.5229 c -1.37204,-2.97775 -1.53682,-6.37976 -2.99787,-9.28567 -2.0361,-4.04965 -5.07392,-7.46517 -7.89499,-11.07148 2.59422,4.01786 5.21724,6.59494 6.69457,10.43237 0.80542,2.09209 1.72155,4.34612 2.09207,6.66072 0.44493,2.77945 0.27052,5.61833 0.40979,7.9962 0.23809,-1.27976 0.47619,-2.55953 0.71428,-3.83929 1.44234,1.26523 2.94698,2.39263 4.93143,2.80734 3.17481,0.66347 6.26766,1.6505 9.34747,2.68147 2.4115,0.80726 4.815,1.64145 7.24357,2.36834 1.30799,0 2.61597,0 3.92396,0 0.38394,-1.97605 -3.15753,-0.13948 -4.68169,-0.92764 -5.61097,-1.80398 -11.35442,-3.24391 -16.83616,-5.41165 -1.18007,-0.46665 -2.41539,-1.25818 -2.94643,-2.41071 z"
           id="path3957"
           inkscape:connector-curvature="0"
           sodipodi:nodetypes="scccsccsscccss" />
        <path
           style="fill:#000000;fill-opacity:1;stroke:none"
           d="m 295.56656,470.10892 c 0,0 4.52148,9.20201 8.07898,13.31641 0.87926,1.0169 1.04481,2.0177 2.54013,2.86621 1.99457,1.13181 4.89663,2.12458 6.77222,2.08985 l 6.81853,-0.12627 0.1116,-0.62527 c -2.75214,-0.11046 -5.71295,0.3454 -8.08122,0 -1.70025,-0.28791 -3.61675,-0.84185 -5.06766,-1.77385 -0.95361,-0.61255 -1.55473,-1.65514 -2.24128,-2.55694 -3.3642,-4.41895 -8.9313,-13.19014 -8.9313,-13.19014 z"
           id="path3962"
           inkscape:connector-curvature="0"
           sodipodi:nodetypes="cssscccssc" />
        <path
           style="fill:#000000;fill-opacity:1;stroke:none"
           d="m 319.33036,479.59432 c 0,0 -2.63393,0.31277 -3.93755,0.15204 -2.35689,-0.2906 -4.5928,-1.22497 -6.83894,-1.99585 -1.61365,-0.55381 -3.25936,-1.07048 -4.75818,-1.88541 -0.86701,-0.47141 -1.5976,-1.15947 -2.41176,-1.7172 -1.8523,-1.2689 -5.80357,-4.02902 -5.80357,-4.02902 0,0 3.53171,3.20332 5.31883,4.49918 0.8412,0.60996 1.69849,1.20891 2.62008,1.68885 1.56758,0.81635 3.23976,1.42286 4.90871,2.00452 2.31276,0.80605 4.63191,1.69718 7.05529,2.05187 1.36395,0.19963 4.13531,0.0316 4.13531,0.0316 z"
           id="path3964"
           inkscape:connector-curvature="0"
           sodipodi:nodetypes="csssscsssscc" />
        <path
           style="fill:#ffffff;stroke:#000000;stroke-width:1px;stroke-linecap:butt;stroke-linejoin:miter;stroke-opacity:1"
           d="m 310.84288,487.68691 5.01919,0.1894 0,4.89293 -6.09248,0.0947 z"
           id="path3972"
           inkscape:connector-curvature="0" />
        <path
           style="fill:#ffffff;stroke:#000000;stroke-width:1px;stroke-linecap:butt;stroke-linejoin:miter;stroke-opacity:1"
           d="m 315.89364,488.00258 3.66181,-0.0947 0.0316,5.27173 -3.72494,-0.50507 z"
           id="path3974"
           inkscape:connector-curvature="0" />
        <path
           style="fill:#ffffff;stroke:#000000;stroke-width:1px;stroke-linecap:butt;stroke-linejoin:miter;stroke-opacity:1"
           d="m 303.2036,472.78716 4.79823,1.60993 -0.59978,3.21986 -4.51412,-1.89404 z"
           id="path3980"
           inkscape:connector-curvature="0"
           sodipodi:nodetypes="ccccc" />
        <path
           style="fill:#ffffff;stroke:#000000;stroke-width:1px;stroke-linecap:butt;stroke-linejoin:miter;stroke-opacity:1"
           d="m 307.62302,474.33396 0.12627,3.47239 4.76666,1.51523 0.69447,-3.40926 z"
           id="path3982"
           inkscape:connector-curvature="0"
           sodipodi:nodetypes="ccccc" />
        <path
           style="fill:#ffffff;stroke:#000000;stroke-width:1px;stroke-linecap:butt;stroke-linejoin:miter;stroke-opacity:1"
           d="m 313.24199,475.88075 -0.66291,3.50397 3.63023,0.75761 0.34724,-3.44083 z"
           id="path3984"
           inkscape:connector-curvature="0" />
        <path
           style="fill:#ffffff;stroke:#000000;stroke-width:1px;stroke-linecap:butt;stroke-linejoin:miter;stroke-opacity:1"
           d="m 316.43029,476.73307 0.1894,3.34613 3.15673,-0.0316 -0.0631,-3.34613 z"
           id="path3986"
           inkscape:connector-curvature="0" />
        <path
           style="fill:#ffffff;stroke:#000000;stroke-width:1;stroke-linecap:butt;stroke-linejoin:miter;stroke-miterlimit:4;stroke-opacity:1;stroke-dasharray:none"
           d="m 300.16698,472.00149 c 3.61387,1.03921 3.45358,1.76903 4.40651,4.47133 -1.88754,2.30706 -3.57278,4.89345 -6.41778,5.94247 -2.78194,0.82282 -7.11548,2.02154 -9.37691,0.71211 1.7632,-1.82171 4.84741,-3.03202 6.64528,-4.82161 2.44116,-2.59623 2.38083,-4.05766 4.7429,-6.3043 z"
           id="path4119"
           inkscape:connector-curvature="0"
           sodipodi:nodetypes="cccccc" />
        <path
           style="fill:#ffffff;stroke:#000000;stroke-width:1.08415329;stroke-linecap:butt;stroke-linejoin:miter;stroke-miterlimit:4;stroke-opacity:1;stroke-dasharray:none"
           d="m 300.6036,460.51272 c 1.69877,5.96004 2.34588,12.40233 4.79557,18.02179 1.26801,3.38537 4.15401,5.49199 4.58077,9.44138 0.4749,4.39481 -3.12768,7.07026 -5.83739,3.76059 -4.05744,-4.9558 -5.34626,-11.97718 -5.76583,-18.55775 -0.65297,-4.58071 0.92398,-8.5351 2.22688,-12.66601 z"
           id="path4117"
           inkscape:connector-curvature="0"
           sodipodi:nodetypes="ccsscc" />
        <path
           inkscape:connector-curvature="0"
           style="fill:#000000;stroke:none"
           d="m 297.59375,444.21875 c -2.01741,-0.002 -4.59192,1.86498 -4.375,3.6875 -0.12135,2.20047 -0.76003,4.23088 0.9375,5.90625 2.02388,1.68947 5.84558,2.30753 8.15625,3.46875 4.80177,2.75337 7.0267,8.62763 12.125,10.21875 1.52983,0.41746 3.10604,0.63362 4.625,0.5625 l 0,-2.625 c -2.10702,0.23754 -4.54484,-0.93361 -5.8125,-2.375 -2.34823,-1.66888 -4.55598,-4.31724 -7.09375,-6.34375 -2.1568,-1.92069 -4.26102,-4.2831 -7.21875,-4.84375 -3.88402,2.06912 -5.3854,-0.99136 -4.0625,-3.71875 1.11532,-1.82782 1.48385,-2.54151 4.40625,-3.25 -0.42139,-0.49502 -1.01503,-0.68699 -1.6875,-0.6875 z"
           id="path4127" />
        <path
           style="fill:#000000;fill-opacity:1;stroke:none"
           d="m 268.5,441.67468 c -2.78304,0 -5.38127,-2.87718 -5.89718,-5.90417 -0.77185,-4.52869 1.33024,-8.95628 0.37518,-13.61499 -1.96312,-9.57593 -3.87424,-19.1274 -4.853,-28.85584 -0.34922,-3.47112 1.77624,-7.93697 5.34424,-8.89984 3.42399,-0.92401 5.61447,3.52511 8.69826,4.58197 1.91713,0.65703 2.08509,-2.36128 -0.001,-3.06648 -3.45356,-1.16747 -6.42699,-3.23575 -10.039,-3.61627 -3.53304,-0.3722 -4.85729,3.62482 -5.44617,6.74167 -0.4776,2.52784 -0.68649,5.00589 -0.271,7.54296 0.73125,4.4652 2.77483,8.54512 2.18247,13.20638 -0.2692,2.11832 -0.62227,4.19996 0.1103,6.28852 1.2921,3.68378 3.12207,7.26828 3.10552,11.30027 -0.0104,2.52373 -1.28027,4.67598 -1.31157,7.19318 -0.0292,2.34643 -0.15973,5.30079 1.85276,6.79771 1.52115,1.13146 4.74457,2.31799 6.08675,0.57046 0.0554,-0.0721 0.15473,-0.26553 0.0639,-0.26553 z"
           id="path4132"
           inkscape:connector-curvature="0"
           sodipodi:nodetypes="ssssssssssssssssss" />
        <path
           style="fill:#000000;fill-opacity:1;stroke:none"
           d="m 257.9172,392.89672 3.51825,6.01301 0.92383,4.60324 -1.32299,-4.32044 -3.47264,-4.43966 z"
           id="path4138"
           inkscape:connector-curvature="0"
           sodipodi:nodetypes="cccccc" />
        <path
           style="fill:#000000;fill-opacity:1;stroke:none"
           d="m 243.95184,339.24499 19.79899,42.77996 0.53033,-9.36916 c -5.77972,-8.54547 -13.503,-22.14419 -20.32932,-33.4108 z"
           id="path4144"
           inkscape:connector-curvature="0"
           sodipodi:nodetypes="cccc" />
      </g>
      <g
         transform="matrix(-1,0,0,1,638.12797,0)"
         id="g5316">
        <path
           sodipodi:nodetypes="sssssssssssssss"
           inkscape:connector-curvature="0"
           id="path5318"
           d="m 319.96582,343.13408 c -4.18336,0.21524 -10.23553,0.94571 -15.42624,1.36042 -2.76895,0.22122 -5.11537,0.8299 -7.58087,2.22637 -3.64178,2.06272 -7.52389,4.02379 -10.95229,6.40792 -5.6134,3.9036 -10.68658,8.47326 -15.77591,13.00894 -2.09243,1.86481 -3.57191,4.31145 -5.28644,6.52146 -0.83105,1.07121 -1.29412,2.08651 -1.34817,3.3897 -0.12604,3.03917 -0.55074,5.86455 1.27993,8.29377 1.91964,2.54727 4.35959,4.47533 7.53706,4.75336 2.04782,0.17919 4.3772,-1.09369 5.48008,-2.82843 4.73688,-7.45073 6.68124,-16.46063 11.49048,-23.86485 1.87163,-2.88152 5.00697,-4.88974 8.04856,-6.46429 2.51505,-1.30198 5.09769,-2.94885 7.90405,-3.25843 4.62848,-0.51058 10.73833,-0.53861 13.74588,0 3.14555,0.56333 4.07525,-9.71014 0.88388,-9.54594 z"
           style="fill:#000000;fill-opacity:1;stroke:none" />
        <path
           sodipodi:nodetypes="cccccccccccccsscccccsccccccc"
           inkscape:connector-curvature="0"
           id="path5320"
           d="m 271.07143,387.80861 c 1.04905,2.53308 3.01739,5.91724 3.5638,10.87462 -0.78965,3.18164 -3.54564,5.95018 -2.94423,9.41396 0.32595,5.72556 3.38219,1.94301 5.17027,0.3843 3.0677,-1.73174 6.21856,-2.0847 6.30069,-5.93914 0.16101,-5.23466 -1.93215,-10.01599 -1.97189,-15.10631 1.3622,-6.17606 4.59397,-10.71301 8.8828,-14.89398 -2.39624,4.29647 -5.41698,8.30219 -6.98792,13.01276 -0.77164,3.4869 0.20243,6.45644 0.53021,9.68655 0.28256,3.33654 2.00763,6.95603 1.12637,10.04026 -2.44511,2.88686 -6.27151,3.66192 -8.53203,6.10488 -2.41964,2.25868 1.08432,4.19937 2.49118,5.65142 1.0636,2.3089 6.76904,3.34253 10.19955,2.93825 4.03199,-0.43543 6.52972,-0.62674 10.79763,-0.54842 1.1843,0.0217 4.41542,-1.72671 6.69574,-3.84353 2.54367,-2.36129 3.71181,-4.73822 4.10996,-5.14782 0.42942,7.49587 -5.1935,5.30733 -1.95605,8.61718 2.30948,2.58348 1.81692,6.4537 2.44291,9.65307 0.0914,1.38364 -1.3485,6.42528 -1.3485,6.42528 0,0 0.29567,-7.9046 -2.47132,-9.69237 -2.04947,-2.04384 -4.61206,-4.41033 -7.85378,-4.44426 -6.37999,-0.0668 -13.05209,1.39918 -18.69184,0.38473 -2.77406,-1.51024 -5.38942,-3.25522 -8.18728,-6.56639 -2.29744,-2.94495 -2.7622,-6.60738 -3.27348,-10.07201 0.74448,-3.02779 4.15825,-5.35607 3.03611,-8.81152 -0.49024,-2.78422 -3.70793,-4.65017 -3.61641,-8.03936 0.80986,-0.25743 1.65962,-0.0417 2.48751,-0.0821 z"
           style="fill:#000000;fill-opacity:1;stroke:none" />
        <path
           sodipodi:nodetypes="csscsscc"
           inkscape:connector-curvature="0"
           id="path5322"
           d="m 276.47321,417.67468 c 0.41758,9.73891 5.86452,13.40377 11.85434,14.15658 3.65359,0.45918 7.4919,1.04164 12.03947,0.20005 3.67234,-0.67962 5.99373,-4.32121 6.71596,-7.46785 -0.45018,4.31161 -2.90042,7.83182 -6.69221,8.50534 -3.50253,0.62214 -7.95231,0.43705 -12.14569,0.28007 -6.14739,-0.23011 -11.14584,-5.81615 -11.97983,-12.01332 0.0486,-1.22144 0.16089,-2.43937 0.20796,-3.66087 z"
           style="fill:#000000;fill-opacity:1;stroke:none" />
        <path
           sodipodi:nodetypes="cccsc"
           inkscape:connector-curvature="0"
           id="path5324"
           d="m 289.375,434.90682 17.85714,-0.625 2.67858,6.20536 -3.34822,-4.55357 c -0.9497,-1.29159 -11.50298,-0.53572 -17.1875,-1.02679 z"
           style="fill:#000000;fill-opacity:1;stroke:none" />
        <path
           sodipodi:nodetypes="cccccccccccccccscccc"
           inkscape:connector-curvature="0"
           id="path5326"
           d="m 260.05115,388.25002 c 2.43391,3.91887 4.97541,8.29911 5.05569,13.09812 -0.41718,2.82423 -1.93494,5.88698 -3.84259,7.54379 -2.3266,2.57768 -0.0838,6.35359 2.57403,6.68132 3.35961,3.33432 7.30213,7.04949 7.37905,12.06342 0.47753,3.96496 0.0382,8.49936 3.44115,11.84858 2.95031,3.08334 6.71719,8.15846 11.05305,6.48738 2.84985,-0.71523 4.65421,-3.68616 7.02251,-5.24688 2.69949,-1.33664 4.7039,-0.58185 6.95799,0.28646 1.25097,0.6835 2.43595,4.41226 2.43595,4.41226 0,0 -4.00234,-7.02045 -8.57082,-2.61167 -1.69755,1.825 -3.21354,3.679 -5.35675,4.97933 -1.9653,1.05847 -4.33141,0.98836 -6.47021,0.66127 -3.01385,-0.88703 -5.49897,-3.10623 -7.49119,-5.44739 -2.90277,-4.06799 -5.10043,-9.14577 -4.71364,-14.23638 0.32282,-2.99693 -1.2179,-5.61814 -2.79771,-8.111 -1.90826,-3.01117 -5.7835,-3.7252 -7.79624,-6.42731 -0.75612,-2.01527 -0.56358,-4.27928 1.01959,-6.35084 2.31682,-2.27757 4.9372,-5.4904 3.6145,-8.9496 -1.07277,-3.24953 -1.89671,-6.98211 -3.51436,-10.68086 z"
           style="fill:#000000;fill-opacity:1;stroke:none" />
        <path
           sodipodi:nodetypes="cccccc"
           inkscape:connector-curvature="0"
           id="path5328"
           d="m 301.95858,363.31933 -0.0542,3.92648 -0.73941,-3.55041 -6.77189,-7.29956 0.70098,-0.83352 z"
           style="fill:#000000;fill-opacity:1;stroke:none" />
        <path
           style="fill:#000000;fill-opacity:1;stroke:none"
           d="m 304.67336,359.37342 -0.0542,3.92648 -0.73941,-3.55041 -6.77189,-7.29956 0.70098,-0.83352 z"
           id="path5330"
           inkscape:connector-curvature="0"
           sodipodi:nodetypes="cccccc" />
        <path
           sodipodi:nodetypes="cscccccccccccc"
           inkscape:connector-curvature="0"
           id="path5332"
           d="m 252.67857,306.55861 c 0,0 -1.24192,6.1429 -0.46583,12.55923 0.58365,4.82523 3.20076,9.8051 3.38389,12.44333 2.3219,6.74022 7.13922,12.18018 11.20968,17.90503 2.84439,3.60042 5.5903,7.37965 8.86189,10.57085 2.33679,0.83457 4.67358,1.66913 7.01037,2.5037 1.40527,3.87696 0.78058,8.15617 -0.69422,11.90605 -1.20242,5.20845 -3.71303,10.09206 -6.75216,14.40907 -4.47238,1.72947 -4.68333,-5.00114 -5.66006,-7.91987 -4.46663,-8.0207 -9.98616,-15.63946 -15.70538,-22.83498 -4.19393,-5.59808 -7.34286,-11.92513 -9.74176,-18.47197 -0.78203,-4.16896 -0.71505,-8.46403 -1.14331,-12.68689 -0.47728,-2.71633 -0.44524,-6.55394 1.10613,-8.88274 1.45308,-2.59007 8.59076,-11.50081 8.59076,-11.50081 z"
           style="fill:#ffffff;stroke:#000000;stroke-width:1px;stroke-linecap:butt;stroke-linejoin:miter;stroke-opacity:1" />
        <path
           inkscape:connector-curvature="0"
           id="path5334"
           d="m 247.32143,326.20147 15.35714,44.10714 3.39286,4.19643 z"
           style="fill:#000000;fill-opacity:1;stroke:none" />
        <path
           inkscape:connector-curvature="0"
           id="path5336"
           d="m 258.92857,347.18361 13.57143,41.69643 1.96429,0.53571 z"
           style="fill:#000000;fill-opacity:1;stroke:none" />
        <path
           inkscape:connector-curvature="0"
           id="path5338"
           d="m 267.41071,359.7729 11.60715,22.14285 -1.16072,2.67857 z"
           style="fill:#000000;fill-opacity:1;stroke:none" />
        <path
           sodipodi:nodetypes="csccccccccccc"
           inkscape:connector-curvature="0"
           id="path5340"
           d="m 319.71328,506.24846 c 0.33391,1.5459 0.62965,4.5535 0.0786,3.67809 -0.50492,-0.80216 -10.63157,0.66585 -13.69708,2.47347 -8.31164,0.1767 -14.2637,-6.8246 -16.07753,-14.53038 -1.70783,-6.24084 -3.58352,-12.52932 -7.98903,-17.47105 -5.69743,-7.49894 -11.5687,-14.15958 -17.74082,-21.85258 -4.44321,-8.99433 4.94368,-16.85752 3.18995,-25.98339 -0.79945,-3.04702 -1.34794,-6.73962 0.52926,-1.62907 3.13486,6.55183 -0.78516,13.40687 -1.78258,19.84135 1.33251,8.10593 7.84432,13.6803 12.45522,19.30624 4.05579,6.86877 12.32497,11.1038 13.49483,19.50943 1.99447,6.91192 2.64447,16.6259 11.47686,18.46603 6.06103,2.33332 11.02874,-1.76602 16.06229,-1.80814 z"
           style="fill:#000000;fill-opacity:1;stroke:none" />
        <path
           sodipodi:nodetypes="cccc"
           inkscape:connector-curvature="0"
           id="path5342"
           d="m 291.56251,487.16129 c -2.42023,-11.89166 -10.20516,-22.37313 -16.47322,-33.81697 4.38716,10.29573 14.28057,26.46047 12.41071,27.85715 z"
           style="fill:#000000;fill-opacity:1;stroke:none" />
        <path
           sodipodi:nodetypes="cccscccscc"
           inkscape:connector-curvature="0"
           id="path5344"
           d="m 319.64286,495.30861 c -2.86895,-0.0699 -5.52173,0.95044 -8.4852,1.24371 -3.2481,0.66319 -7.98582,1.92255 -9.98685,-0.67835 -2.77868,-2.52075 -3.77006,-5.47229 -4.95756,-8.42637 -5.29722,-13.17764 -8.59013,-27.09234 -13.26682,-39.10328 4.7043,15.54616 8.01816,31.06953 14.56534,45.91359 1.45229,2.18152 3.58868,4.43091 5.51533,4.82999 2.84678,0.42165 5.15106,-1.27395 7.9027,-1.76983 2.71355,-0.48901 7.81642,-1.82841 8.51464,-0.35972 0.45391,-0.41492 0.25768,-1.11851 0.19842,-1.64974 z"
           style="fill:#000000;fill-opacity:1;stroke:none" />
        <path
           sodipodi:nodetypes="csscsscc"
           inkscape:connector-curvature="0"
           id="path5346"
           d="m 319.96582,492.422 c -4.81095,-0.30295 -9.40576,0.54438 -15.02602,-0.31567 -0.20376,-0.0312 -3.7207,-2.3703 -4.89273,-4.83018 -5.13658,-10.78077 -8.31285,-23.04385 -12.46927,-34.56577 3.76043,11.81495 5.51812,25.25268 11.56894,35.37383 3.94297,6.59537 5.84059,5.35462 5.91019,5.35535 4.78514,0.0501 9.83,-0.54439 14.74148,0.21549 z"
           style="fill:#000000;fill-opacity:1;stroke:none" />
        <path
           sodipodi:nodetypes="scccsccsscccss"
           inkscape:connector-curvature="0"
           id="path5348"
           d="m 295.71429,468.5229 c -1.37204,-2.97775 -1.53682,-6.37976 -2.99787,-9.28567 -2.0361,-4.04965 -5.07392,-7.46517 -7.89499,-11.07148 2.59422,4.01786 5.21724,6.59494 6.69457,10.43237 0.80542,2.09209 1.72155,4.34612 2.09207,6.66072 0.44493,2.77945 0.27052,5.61833 0.40979,7.9962 0.23809,-1.27976 0.47619,-2.55953 0.71428,-3.83929 1.44234,1.26523 2.94698,2.39263 4.93143,2.80734 3.17481,0.66347 6.26766,1.6505 9.34747,2.68147 2.4115,0.80726 4.815,1.64145 7.24357,2.36834 1.30799,0 2.61597,0 3.92396,0 0.38394,-1.97605 -3.15753,-0.13948 -4.68169,-0.92764 -5.61097,-1.80398 -11.35442,-3.24391 -16.83616,-5.41165 -1.18007,-0.46665 -2.41539,-1.25818 -2.94643,-2.41071 z"
           style="fill:#000000;fill-opacity:1;stroke:none" />
        <path
           sodipodi:nodetypes="cssscccssc"
           inkscape:connector-curvature="0"
           id="path5350"
           d="m 295.56656,470.10892 c 0,0 4.52148,9.20201 8.07898,13.31641 0.87926,1.0169 1.04481,2.0177 2.54013,2.86621 1.99457,1.13181 4.89663,2.12458 6.77222,2.08985 l 6.81853,-0.12627 0.1116,-0.62527 c -2.75214,-0.11046 -5.71295,0.3454 -8.08122,0 -1.70025,-0.28791 -3.61675,-0.84185 -5.06766,-1.77385 -0.95361,-0.61255 -1.55473,-1.65514 -2.24128,-2.55694 -3.3642,-4.41895 -8.9313,-13.19014 -8.9313,-13.19014 z"
           style="fill:#000000;fill-opacity:1;stroke:none" />
        <path
           sodipodi:nodetypes="csssscsssscc"
           inkscape:connector-curvature="0"
           id="path5352"
           d="m 319.33036,479.59432 c 0,0 -2.63393,0.31277 -3.93755,0.15204 -2.35689,-0.2906 -4.5928,-1.22497 -6.83894,-1.99585 -1.61365,-0.55381 -3.25936,-1.07048 -4.75818,-1.88541 -0.86701,-0.47141 -1.5976,-1.15947 -2.41176,-1.7172 -1.8523,-1.2689 -5.80357,-4.02902 -5.80357,-4.02902 0,0 3.53171,3.20332 5.31883,4.49918 0.8412,0.60996 1.69849,1.20891 2.62008,1.68885 1.56758,0.81635 3.23976,1.42286 4.90871,2.00452 2.31276,0.80605 4.63191,1.69718 7.05529,2.05187 1.36395,0.19963 4.13531,0.0316 4.13531,0.0316 z"
           style="fill:#000000;fill-opacity:1;stroke:none" />
        <path
           inkscape:connector-curvature="0"
           id="path5354"
           d="m 310.84288,487.68691 5.01919,0.1894 0,4.89293 -6.09248,0.0947 z"
           style="fill:#ffffff;stroke:#000000;stroke-width:1px;stroke-linecap:butt;stroke-linejoin:miter;stroke-opacity:1" />
        <path
           inkscape:connector-curvature="0"
           id="path5356"
           d="m 315.89364,488.00258 3.66181,-0.0947 0.0316,5.27173 -3.72494,-0.50507 z"
           style="fill:#ffffff;stroke:#000000;stroke-width:1px;stroke-linecap:butt;stroke-linejoin:miter;stroke-opacity:1" />
        <path
           sodipodi:nodetypes="ccccc"
           inkscape:connector-curvature="0"
           id="path5358"
           d="m 303.2036,472.78716 4.79823,1.60993 -0.59978,3.21986 -4.51412,-1.89404 z"
           style="fill:#ffffff;stroke:#000000;stroke-width:1px;stroke-linecap:butt;stroke-linejoin:miter;stroke-opacity:1" />
        <path
           sodipodi:nodetypes="ccccc"
           inkscape:connector-curvature="0"
           id="path5360"
           d="m 307.62302,474.33396 0.12627,3.47239 4.76666,1.51523 0.69447,-3.40926 z"
           style="fill:#ffffff;stroke:#000000;stroke-width:1px;stroke-linecap:butt;stroke-linejoin:miter;stroke-opacity:1" />
        <path
           inkscape:connector-curvature="0"
           id="path5362"
           d="m 313.24199,475.88075 -0.66291,3.50397 3.63023,0.75761 0.34724,-3.44083 z"
           style="fill:#ffffff;stroke:#000000;stroke-width:1px;stroke-linecap:butt;stroke-linejoin:miter;stroke-opacity:1" />
        <path
           inkscape:connector-curvature="0"
           id="path5364"
           d="m 316.43029,476.73307 0.1894,3.34613 3.15673,-0.0316 -0.0631,-3.34613 z"
           style="fill:#ffffff;stroke:#000000;stroke-width:1px;stroke-linecap:butt;stroke-linejoin:miter;stroke-opacity:1" />
        <path
           sodipodi:nodetypes="cccccc"
           inkscape:connector-curvature="0"
           id="path5366"
           d="m 300.16698,472.00149 c 3.61387,1.03921 3.45358,1.76903 4.40651,4.47133 -1.88754,2.30706 -3.57278,4.89345 -6.41778,5.94247 -2.78194,0.82282 -7.11548,2.02154 -9.37691,0.71211 1.7632,-1.82171 4.84741,-3.03202 6.64528,-4.82161 2.44116,-2.59623 2.38083,-4.05766 4.7429,-6.3043 z"
           style="fill:#ffffff;stroke:#000000;stroke-width:1;stroke-linecap:butt;stroke-linejoin:miter;stroke-miterlimit:4;stroke-opacity:1;stroke-dasharray:none" />
        <path
           sodipodi:nodetypes="ccsscc"
           inkscape:connector-curvature="0"
           id="path5368"
           d="m 300.6036,460.51272 c 1.69877,5.96004 2.34588,12.40233 4.79557,18.02179 1.26801,3.38537 4.15401,5.49199 4.58077,9.44138 0.4749,4.39481 -3.12768,7.07026 -5.83739,3.76059 -4.05744,-4.9558 -5.34626,-11.97718 -5.76583,-18.55775 -0.65297,-4.58071 0.92398,-8.5351 2.22688,-12.66601 z"
           style="fill:#ffffff;stroke:#000000;stroke-width:1.08415329;stroke-linecap:butt;stroke-linejoin:miter;stroke-miterlimit:4;stroke-opacity:1;stroke-dasharray:none" />
        <path
           inkscape:connector-curvature="0"
           id="path5370"
           d="m 297.59375,444.21875 c -2.01741,-0.002 -4.59192,1.86498 -4.375,3.6875 -0.12135,2.20047 -0.76003,4.23088 0.9375,5.90625 2.02388,1.68947 5.84558,2.30753 8.15625,3.46875 4.80177,2.75337 7.0267,8.62763 12.125,10.21875 1.52983,0.41746 3.10604,0.63362 4.625,0.5625 l 0,-2.625 c -2.10702,0.23754 -4.54484,-0.93361 -5.8125,-2.375 -2.34823,-1.66888 -4.55598,-4.31724 -7.09375,-6.34375 -2.1568,-1.92069 -4.26102,-4.2831 -7.21875,-4.84375 -3.88402,2.06912 -5.3854,-0.99136 -4.0625,-3.71875 1.11532,-1.82782 1.48385,-2.54151 4.40625,-3.25 -0.42139,-0.49502 -1.01503,-0.68699 -1.6875,-0.6875 z"
           style="fill:#000000;stroke:none" />
        <path
           sodipodi:nodetypes="ssssssssssssssssss"
           inkscape:connector-curvature="0"
           id="path5372"
           d="m 268.5,441.67468 c -2.78304,0 -5.38127,-2.87718 -5.89718,-5.90417 -0.77185,-4.52869 1.33024,-8.95628 0.37518,-13.61499 -1.96312,-9.57593 -3.87424,-19.1274 -4.853,-28.85584 -0.34922,-3.47112 1.77624,-7.93697 5.34424,-8.89984 3.42399,-0.92401 5.61447,3.52511 8.69826,4.58197 1.91713,0.65703 2.08509,-2.36128 -0.001,-3.06648 -3.45356,-1.16747 -6.42699,-3.23575 -10.039,-3.61627 -3.53304,-0.3722 -4.85729,3.62482 -5.44617,6.74167 -0.4776,2.52784 -0.68649,5.00589 -0.271,7.54296 0.73125,4.4652 2.77483,8.54512 2.18247,13.20638 -0.2692,2.11832 -0.62227,4.19996 0.1103,6.28852 1.2921,3.68378 3.12207,7.26828 3.10552,11.30027 -0.0104,2.52373 -1.28027,4.67598 -1.31157,7.19318 -0.0292,2.34643 -0.15973,5.30079 1.85276,6.79771 1.52115,1.13146 4.74457,2.31799 6.08675,0.57046 0.0554,-0.0721 0.15473,-0.26553 0.0639,-0.26553 z"
           style="fill:#000000;fill-opacity:1;stroke:none" />
        <path
           sodipodi:nodetypes="cccccc"
           inkscape:connector-curvature="0"
           id="path5374"
           d="m 257.9172,392.89672 3.51825,6.01301 0.92383,4.60324 -1.32299,-4.32044 -3.47264,-4.43966 z"
           style="fill:#000000;fill-opacity:1;stroke:none" />
        <path
           sodipodi:nodetypes="cccc"
           inkscape:connector-curvature="0"
           id="path5376"
           d="m 243.95184,339.24499 19.79899,42.77996 0.53033,-9.36916 c -5.77972,-8.54547 -13.503,-22.14419 -20.32932,-33.4108 z"
           style="fill:#000000;fill-opacity:1;stroke:none" />
      </g>
    </g>
  </g>
</svg>
